STARTFONT 2.3
FONT -FontForge-Pacifico-Book-R-Normal--28-280-72-72-P-165-ISO10646-1
SIZE 28 72 72  2
FONTBOUNDINGBOX 64 55 -17 -13
COMMENT "Generated by fontforge, http://fontforge.sourceforge.net"
COMMENT "Copyright 2018 The Pacifico Project Authors (https://github.com/googlefonts/Pacifico)"
STARTPROPERTIES 41
FOUNDRY "FontForge"
FAMILY_NAME "Pacifico"
WEIGHT_NAME "Book"
SLANT "R"
SETWIDTH_NAME "Normal"
ADD_STYLE_NAME ""
PIXEL_SIZE 28
POINT_SIZE 280
RESOLUTION_X 72
RESOLUTION_Y 72
SPACING "P"
AVERAGE_WIDTH 165
CHARSET_REGISTRY "ISO10646"
CHARSET_ENCODING "1"
FONTNAME_REGISTRY ""
CHARSET_COLLECTIONS "ISO8859-2 ISO8859-5 ISO8859-9 ISO8859-4 ISO10646-1"
BITS_PER_PIXEL 2
FONT_NAME "Pacifico-Regular"
FACE_NAME "Pacifico Regular"
COPYRIGHT "Copyright 2018 The Pacifico Project Authors (https://github.com/googlefonts/Pacifico)"
FONT_VERSION "3.001"
FONT_ASCENT 22
FONT_DESCENT 6
UNDERLINE_POSITION -3
UNDERLINE_THICKNESS 2
X_HEIGHT 12
CAP_HEIGHT 23
DEFAULT_CHAR 1
RAW_ASCENT 800
RAW_DESCENT 200
NORM_SPACE 7
RELATIVE_WEIGHT 40
RELATIVE_SETWIDTH 50
SUPERSCRIPT_X 0
SUPERSCRIPT_Y 9
SUPERSCRIPT_SIZE 16
SUBSCRIPT_X 0
SUBSCRIPT_Y 2
SUBSCRIPT_SIZE 16
AVG_LOWERCASE_WIDTH 132
AVG_UPPERCASE_WIDTH 229
ENDPROPERTIES
CHARS 1514
STARTCHAR NULL.dup1
ENCODING 0
SWIDTH 0 0
DWIDTH 0 0
BBX 1 1 0 0
BITMAP
00
ENDCHAR
STARTCHAR nonmarkingreturn
ENCODING 13
SWIDTH 265 0
DWIDTH 7 0
BBX 1 1 0 0
BITMAP
00
ENDCHAR
STARTCHAR space
ENCODING 32
SWIDTH 265 0
DWIDTH 7 0
BBX 1 1 0 0
BITMAP
00
ENDCHAR
STARTCHAR exclam
ENCODING 33
SWIDTH 340 0
DWIDTH 10 0
BBX 10 24 1 0
BITMAP
001B80
003FD0
003FC0
007F80
00BF40
00BF40
00FF00
01FE00
01FD00
02FC00
02F800
03F800
07F400
07F000
0BE000
0BD000
0BC000
010000
000000
2F4000
BFC000
FFC000
FFC000
7E4000
ENDCHAR
STARTCHAR quotedbl
ENCODING 34
SWIDTH 510 0
DWIDTH 14 0
BBX 11 10 3 14
BITMAP
1F41B8
3FC2FC
7FC3FC
7F87FC
7F87F8
BF47F8
BF07F4
BF0BF0
BE0BF0
7907D0
ENDCHAR
STARTCHAR numbersign
ENCODING 35
SWIDTH 700 0
DWIDTH 20 0
BBX 18 17 1 0
BITMAP
0001401400
000FC07E00
002FC0BE00
002F80FD00
2FFFFFFFE0
3FFFFFFFF0
2FFFFFFFE0
00FD07F400
01FC0BF000
02F80FE000
BFFFFFFF80
FFFFFFFFC0
BFFFFFFF80
0FE03F4000
0FD07F0000
1FC07E0000
0B403D0000
ENDCHAR
STARTCHAR dollar
ENCODING 36
SWIDTH 524 0
DWIDTH 15 0
BBX 13 24 1 -4
BITMAP
00014000
0003C000
0003C000
00078000
01BFE400
07FFFE00
1FEFFF40
2F8B6F80
3F4F1F40
2F8F0500
1FFE0000
0BFF8000
02FFF400
002FFD00
242EFF00
BC3D7F00
FD3C7F00
BF7DFE00
7FFFFC00
0BFFE000
00B90000
00B40000
00B40000
00B00000
ENDCHAR
STARTCHAR percent
ENCODING 37
SWIDTH 896 0
DWIDTH 25 0
BBX 24 21 1 0
BITMAP
01FE0000B400
0BFF8002F800
2FEFD00BF400
3F1FE1BFF000
7E1FFFFFD000
BD0BFFFF8000
BE07FEFF0000
7E0BC1FE0000
3FAF83FC0000
1FFF07F40000
06F80FE06F90
00002FD1FFF8
00007F83FAFD
0000BF07E0BE
0001FD0BD07E
0003F80FC07E
000BF40FD0BE
000FE00BD0FD
002FC007FAF8
002F4002FFE0
001E0000BF80
ENDCHAR
STARTCHAR ampersand
ENCODING 38
SWIDTH 851 0
DWIDTH 24 0
BBX 22 27 1 -2
BITMAP
0001BF900000
000BFFF80000
002FFFFD0000
007FD1FE0000
00BF40BE0000
00BE007F0000
00FE00BE0000
00FE00FE0000
00BF02FC0000
007F4BF40000
003FFFE00000
002FFF800000
002FFD000000
01FFF8000000
07FFFE0003F0
1FF9FF400BF0
3FD0BFD02FD0
7F802FF07F80
BF400FF9FF00
BF4007FFFC00
BF8001FFF000
7FE416FFE000
2FFFFFFFF400
0BFFFFEFFD00
00AFF903FF00
00000001FF40
000000006E00
ENDCHAR
STARTCHAR quotesingle
ENCODING 39
SWIDTH 290 0
DWIDTH 8 0
BBX 5 10 3 14
BITMAP
1F40
3FC0
7FC0
7F80
7F80
BF40
BF00
BF00
BE00
7900
ENDCHAR
STARTCHAR parenleft
ENCODING 40
SWIDTH 613 0
DWIDTH 17 0
BBX 19 30 2 -4
BITMAP
000006FE40
00007FFFF4
0002FFFFF8
000BFD06F4
002FE00050
007FC00000
00BF400000
01FE000000
02FD000000
07F8000000
0BF4000000
0FF0000000
1FE0000000
1FD0000000
2FD0000000
3FC0000000
3F80000000
3F80000000
7F80000000
7F40000000
7F40000000
7F40000000
7F40000000
7F40000000
7F80019000
3FC007E000
2FE06FE000
0FFFFF8000
07FFFE0000
006FA00000
ENDCHAR
STARTCHAR parenright
ENCODING 41
SWIDTH 613 0
DWIDTH 17 0
BBX 19 30 -3 -4
BITMAP
00001BF900
0001FFFF40
0007FFFFD0
001FF41FF0
001F800BF4
000A0007F8
00000003F8
00000003F8
00000003F8
00000003F8
00000003F8
00000003F8
00000007F8
00000007F4
0000000BF4
0000000BF0
0000000FE0
0000001FE0
0000002FD0
0000003FC0
0000007F80
000000BF40
000001FE00
000003FD00
00000BF800
14001FF000
3F41BFD000
7FFFFF4000
2FFFF80000
06FE900000
ENDCHAR
STARTCHAR asterisk
ENCODING 42
SWIDTH 520 0
DWIDTH 15 0
BBX 12 12 3 14
BITMAP
001E00
002F00
2E2F00
3FAE6D
1FFEFE
02FFFD
7FFF40
BFBFE4
79BAFC
00F8B8
01F800
00B400
ENDCHAR
STARTCHAR plus
ENCODING 43
SWIDTH 700 0
DWIDTH 20 0
BBX 16 17 2 0
BITMAP
00005000
0002F400
0003F400
0003F400
0003F000
0007F000
0007F000
7FFFFFFD
BFFFFFFE
7FFFFFFD
000FD000
000FD000
000FC000
001FC000
001FC000
001F8000
001F4000
ENDCHAR
STARTCHAR comma
ENCODING 44
SWIDTH 257 0
DWIDTH 7 0
BBX 6 10 0 -4
BITMAP
0540
1FD0
2FE0
3FD0
3FC0
3F80
3F40
7F00
7D00
7800
ENDCHAR
STARTCHAR hyphen
ENCODING 45
SWIDTH 403 0
DWIDTH 11 0
BBX 10 4 1 7
BITMAP
015A40
3FFFD0
7FFFC0
3FEA40
ENDCHAR
STARTCHAR period
ENCODING 46
SWIDTH 257 0
DWIDTH 7 0
BBX 6 5 0 0
BITMAP
1B90
3FF0
7FF0
3FE0
1F80
ENDCHAR
STARTCHAR slash
ENCODING 47
SWIDTH 509 0
DWIDTH 14 0
BBX 16 26 0 0
BITMAP
0000003C
000000BE
000001FD
000002FC
000007F4
00000FF0
00001FD0
00003F80
0000BF40
0000FE00
0002FD00
0003F800
000BF000
001FE000
002FC000
007F4000
00FF0000
01FD0000
03FC0000
07F40000
0FE00000
2FD00000
3F800000
BF400000
BE000000
78000000
ENDCHAR
STARTCHAR zero
ENCODING 48
SWIDTH 543 0
DWIDTH 15 0
BBX 14 16 1 0
BITMAP
006FE400
02FFFD00
0BFFFF40
1FE0BF80
2FC02FC0
3F401FC0
7F401FD0
7F001FC0
BF001FC0
BF002FC0
BF002F80
7F407F40
3FD1FE00
2FFFFD00
0BFFF400
01BF8000
ENDCHAR
STARTCHAR one
ENCODING 49
SWIDTH 376 0
DWIDTH 11 0
BBX 9 17 1 0
BITMAP
001500
06FF00
3FFF40
7FFF00
3AFF00
00FE00
00FE00
01FD00
01FD00
02FD00
02FC00
02FC00
03F800
03F800
07F800
07F400
02E000
ENDCHAR
STARTCHAR two
ENCODING 50
SWIDTH 560 0
DWIDTH 16 0
BBX 14 17 1 0
BITMAP
006FE400
02FFFE00
0BFFFF80
1FE07FC0
2FC02FC0
2F802FC0
1F403FC0
05007F80
0000FF00
0002FD00
000BF800
007FE000
06FF4000
2FF80000
BFFFFFD0
BFFFFFD0
7FFFFF80
ENDCHAR
STARTCHAR three
ENCODING 51
SWIDTH 520 0
DWIDTH 15 0
BBX 14 17 0 0
BITMAP
006FF900
02FFFF80
0BFFFFD0
0FE42FE0
1FC01FE0
0F801FD0
01007F80
0006FE00
002FF800
002FFE00
0005BF80
2D002FC0
3F002FD0
7F807FC0
3FFFFF80
1FFFFE00
01BFE400
ENDCHAR
STARTCHAR four
ENCODING 52
SWIDTH 577 0
DWIDTH 16 0
BBX 15 17 1 0
BITMAP
00150000
007F4000
00FF0000
01FD0000
03F80B80
0BF42FC0
0FE03F80
1FD03F40
3F807F40
7F407F00
BFFFFFF4
BFFFFFF4
7FFFFFE0
0000FE00
0000FD00
0000FD00
0000B800
ENDCHAR
STARTCHAR five
ENCODING 53
SWIDTH 518 0
DWIDTH 15 0
BBX 13 16 1 0
BITMAP
1BFFFF80
3FFFFFC0
2FFFFF80
0BE00000
0FD00000
1FC00000
1FFE9000
2FFFF800
1FFFFE00
0006FF00
28007F40
BD007F40
BF41FF00
7FFFFE00
2FFFF800
06FF9000
ENDCHAR
STARTCHAR six
ENCODING 54
SWIDTH 541 0
DWIDTH 15 0
BBX 14 17 1 0
BITMAP
001BF800
01FFFF40
07FFFFC0
0FF42FD0
2FD00FD0
3F8007C0
3F400000
7F6FE400
7FBFFD00
BFFFFF00
BFD0BF40
7F403F80
7F407F40
3FD1BF00
1FFFFE00
0BFFF800
01BF9000
ENDCHAR
STARTCHAR seven
ENCODING 55
SWIDTH 497 0
DWIDTH 14 0
BBX 14 16 1 0
BITMAP
7FFFFFD0
BFFFFFD0
7FFFFFD0
0001FE40
0007F800
001FE000
003F8000
00BF0000
01FE0000
02FD0000
03FC0000
07F80000
07F40000
0BF40000
07F00000
02D00000
ENDCHAR
STARTCHAR eight
ENCODING 56
SWIDTH 512 0
DWIDTH 14 0
BBX 13 17 1 0
BITMAP
00AFE400
07FFFE00
1FFFFF40
2FD07F80
2F802F80
2F803F40
2FE1FE00
0FFFF800
03FFF000
1FFFFD00
3F82FF00
BE00BF40
BE007F40
BF41BF00
BFFFFE00
2FFFF800
06FF9000
ENDCHAR
STARTCHAR nine
ENCODING 57
SWIDTH 541 0
DWIDTH 15 0
BBX 13 17 1 0
BITMAP
006FE000
07FFFD00
0FFFFF00
2FE0BF80
3FC03FC0
3F803FC0
3F803FC0
3FD1BFC0
1FFFFFC0
0BFFEFC0
01BE6F80
10003F40
BD00BF00
BF42FD00
BFFFF800
2FFFE000
06FE4000
ENDCHAR
STARTCHAR colon
ENCODING 58
SWIDTH 257 0
DWIDTH 7 0
BBX 7 13 0 0
BITMAP
06E4
0FF8
1FFC
0FF8
07E0
0000
0000
0000
1B90
3FF0
7FF0
3FE0
1F80
ENDCHAR
STARTCHAR semicolon
ENCODING 59
SWIDTH 257 0
DWIDTH 7 0
BBX 7 17 0 -4
BITMAP
06E4
0FF8
1FFC
0FF8
07E0
0000
0000
0540
1FD0
2FE0
3FD0
3FC0
3F80
3F40
7F00
7D00
7800
ENDCHAR
STARTCHAR less
ENCODING 60
SWIDTH 700 0
DWIDTH 20 0
BBX 16 13 2 2
BITMAP
00000005
000001BF
00006FFF
001BFFF9
06FFFE40
3FFF9000
BFE40000
BFF90000
2FFFE400
01BFFF40
000BFFF8
00006FFC
000001B4
ENDCHAR
STARTCHAR equal
ENCODING 61
SWIDTH 700 0
DWIDTH 20 0
BBX 16 9 2 4
BITMAP
2FFFFFFE
7FFFFFFF
3FFFFFFD
00000000
00000000
00000000
7FFFFFFC
FFFFFFFD
BFFFFFF8
ENDCHAR
STARTCHAR greater
ENCODING 62
SWIDTH 700 0
DWIDTH 20 0
BBX 16 13 2 2
BITMAP
05000000
2FE00000
3FFE4000
0BFFF900
006FFFE0
0002FFFD
00001BFE
00006FFD
001BFFF4
06FFFE40
BFFF9000
FFE40000
B9000000
ENDCHAR
STARTCHAR question
ENCODING 63
SWIDTH 476 0
DWIDTH 13 0
BBX 13 24 2 0
BITMAP
01BFA000
0BFFFD00
2FFFFF00
3F81FF40
7F00BF80
7E00BF40
7E00BF40
1401FF00
0007FD00
000FF400
003FE000
00BF4000
02FD0000
03F40000
07E00000
0BD00000
0B800000
05000000
00000000
6E400000
FFC00000
FFC00000
FF800000
7E000000
ENDCHAR
STARTCHAR at
ENCODING 64
SWIDTH 1015 0
DWIDTH 28 0
BBX 27 29 1 -8
BITMAP
000001AFFA4000
00006FFFFFE400
0002FFFFFFFD00
001FFE5016FF40
007FE000007FC0
00FF4000001FE0
02FD00000007F0
07F400000003F4
0FE0006F0002F4
1FD002FFA802F4
3FC00FFFFC02F8
3F802FE6F802F4
7F407F83F803F4
BF00BF03F407F0
BF00FE07F007F0
FE01FD0BF00FE0
FE01FD0BF02FC0
FE01FD1FF07F40
BF00FFFFFFFE00
BF007FF9FFF800
7F401FD06F9000
3F800000000000
2FD00000000000
0FF40000001900
07FD000001BF00
02FFE4016FFE00
007FFFFFFFF800
000BFFFFFF9000
00006BFFA40000
ENDCHAR
STARTCHAR A
ENCODING 65
SWIDTH 786 0
DWIDTH 22 0
BBX 25 24 1 0
BITMAP
000001AFFE9000
00006FFFFFF400
0002FFFFFFF400
000FFE50069000
003FF400140000
00FF8001FD0000
02FE0002FD0000
07FC0002FD0000
0BF40003FC0000
1FF00007F80000
2FE00007F80000
3FD0000BF40000
3FC0000FF40000
7FC0001FF00000
7F80001FF00000
7F80002FE00000
7F80007FE00000
7FC000BFE00000
3FC001FFE00780
2FE003FFE00F80
1FF81FDFF47F40
0BFFFF4FFFFD00
02FFFE07FFF400
006FE401BF8000
ENDCHAR
STARTCHAR B
ENCODING 66
SWIDTH 827 0
DWIDTH 23 0
BBX 25 26 0 -2
BITMAP
00006BFFE90000
006FFFFFFFD000
06FFFFFFFFF800
2FFF94006FFE00
7FE4000002FF00
7E00000000FF40
100BE00000FF40
000FF00000FF00
001FE00001FE00
002FD00007FD00
003FC001BFF400
003F80FFFF9000
007F81FFF90000
00BF41FFFD0000
00BF4006FF4000
00FF00007FC000
00FF00003FD000
01FE00003FD000
01FE00007FC000
01FE0001FF8000
02FD005BFF0000
02FFFFFFF80000
02FFFFFFD00000
03FFFFA5000000
02FC0000000000
00500000000000
ENDCHAR
STARTCHAR C
ENCODING 67
SWIDTH 686 0
DWIDTH 19 0
BBX 22 24 1 0
BITMAP
00006BF90000
0006FFFF8000
001FFFFFE000
007FE41FF400
01FF4007F800
03FD0003F800
0BF80007F800
0FF00007F400
1FE00007F000
2FD000014000
3FD000000000
3FC000000000
3FC000000000
7FC000000000
7FC000000000
3FC000000000
3FD000000000
2FE000000000
1FF400000000
0BFD000006E0
03FF9405BFE0
00FFFFFFFFD0
002FFFFFFE00
0001BFFA5000
ENDCHAR
STARTCHAR D
ENCODING 68
SWIDTH 836 0
DWIDTH 23 0
BBX 22 24 1 0
BITMAP
0016FFE90000
02FFFFFFD000
2FFFFFFFF800
7FF9405FFE00
BE400002FF40
64000000BFC0
003F80003FD0
007F80002FE0
00BF40001FE0
00FF00001FF0
00FE00001FF0
01FE00001FE0
02FD00001FE0
02FD00002FE0
03FC00003FD0
03FC00007FC0
07F80000BF80
07F80001FF00
0BF40007FE00
0BF4001FF800
0FF406FFE000
0FFFFFFF8000
0FFFFFF80000
06BFFA400000
ENDCHAR
STARTCHAR E
ENCODING 69
SWIDTH 686 0
DWIDTH 19 0
BBX 22 24 1 0
BITMAP
00016FF90000
001BFFFFD000
007FFFFFF000
01FFD01BF800
03FE0003FC00
07FC0002FC00
07F80003FC00
07F80003F800
03FD0002F000
02FF50000000
007FFF400000
006FFF400000
06FFFF000000
1FFD40000000
7FD000000000
BF8000000000
FF0000000000
FF0000000000
FF4000000000
BFC0000006E0
7FF90016BFE0
1FFFFFFFFFD0
06FFFFFFFE00
005AFFFA4000
ENDCHAR
STARTCHAR F
ENCODING 70
SWIDTH 712 0
DWIDTH 20 0
BBX 26 24 0 0
BITMAP
00005ABFFFFA90
000BFFFFFFFFF0
007FFFFFFFFFF0
01FF96FC000540
03F803FC000000
07F003FC000000
0BE003FC000000
07F003F8000000
07F407F8000000
02F407F8000000
004007F8000000
0001FFFFFF8000
0002FFFFFFC000
0001FFFFFF4000
00000FF0000000
00000FF0000000
00001FE0000000
00001FE0000000
A0002FD0000000
F8007FC0000000
FE41FF40000000
7FFFFE00000000
1FFFF800000000
01BF9000000000
ENDCHAR
STARTCHAR G
ENCODING 71
SWIDTH 811 0
DWIDTH 23 0
BBX 25 37 1 -13
BITMAP
00002BFE400000
0002FFFFE00000
001FFFFFF40000
007FE407FC0000
01FF4002FD0000
03FD0001FD0000
0BF80001FD0000
0FF00002FD0000
1FE00002FC0000
2FD00000A40000
3FD00000000000
3FC00000000000
3FC00000000000
7FC00000000000
7FC000BFFE0000
3FC000FFFF0000
3FD000BFFF0000
2FE00000BE0000
1FF40000BE0240
0BFD0000FE1F80
03FF9006FDBF40
01FFFFFFFFFD00
002FFFFFFFE000
0001BFEAFF4000
00000007FC0000
0000002FF80000
000000BFF40000
000002FBF00000
00000BD7E00000
00001F8BE00000
00003E0FD00000
00007D1F800000
0000BC2F400000
0000BC7F000000
0000BFFD000000
00007FF8000000
00001B90000000
ENDCHAR
STARTCHAR H
ENCODING 72
SWIDTH 873 0
DWIDTH 24 0
BBX 29 25 -1 0
BITMAP
000000000006F400
001BE400002FFC00
01FFFC00007FFD00
07FFFE0000FE3E00
1FD1FE0002FC2E00
3F00FF0003F42E00
7D00FF0007F03D00
7400FF000BE07C00
0000FF000FD0B800
0000FE001FD1F400
0001FE002FCBE000
0001FD002FFF8000
0001FE557FFD0000
00BFFFFFFFE00000
01FFFFFFFF800000
00FFFE957F800000
0007F8007F400000
000BF4007F800000
000BF0007F800000
000FF0003F8002C0
001FE0003FC00BC0
002FD0002FE46F80
002FC0000FFFFE00
003F800007FFF800
001F400000BF9000
ENDCHAR
STARTCHAR I
ENCODING 73
SWIDTH 495 0
DWIDTH 14 0
BBX 17 24 -1 0
BITMAP
007FFFFF40
00FFFFFF40
00BFFFFE00
0000FF0000
0001FE0000
0001FE0000
0002FD0000
0002FD0000
0003FC0000
0003FC0000
0003F80000
0007F80000
0007F40000
000BF40000
000BF00000
000FF00000
000FF00000
001FE00000
001FE00000
002FD00000
002FD00000
1FFFFF8000
7FFFFFD000
7FFFFF8000
ENDCHAR
STARTCHAR J
ENCODING 74
SWIDTH 743 0
DWIDTH 21 0
BBX 20 26 2 -2
BITMAP
001AFFFE90
02FFFFFFFD
1FFFFFFFFD
7FE5001FF4
BF00000FF0
FD00001FE0
FD00001FE0
FE00001FD0
BF00002FD0
2D00002FC0
0000003FC0
000002FF80
00002FFF80
0001FFFF40
000BFDBF00
003FD0FF00
00FF40FE00
02FC01FD00
07F402FC00
0BF003F800
0BE00BF000
0FE01FE000
0BF47FC000
07FFFF4000
02FFFD0000
007F900000
ENDCHAR
STARTCHAR K
ENCODING 75
SWIDTH 937 0
DWIDTH 26 0
BBX 30 24 0 0
BITMAP
0006BFE50001F800
007FFFFF4003FC00
01FFFFFF8007F800
07FD02FE000BF400
0BE002FD000FF000
0FD003FC001FE000
0FD003FC003FC000
0FD003F800BF8000
0FE007F801FF0000
0BE007F403FD0000
02D00BF41FF40000
00000BF5BFD00000
0000BFFFFE000000
0000FFFFE4000000
0000BFFFF8000000
00001FE6FE000000
00001FD0FF800000
00002FD07FC00000
2C003FC03FE000A0
7E007F801FF402E0
3F91FF400FFD1BD0
2FFFFE0007FFFF80
0BFFF80001FFFE00
01BF9000006FE400
ENDCHAR
STARTCHAR L
ENCODING 76
SWIDTH 673 0
DWIDTH 19 0
BBX 24 24 -1 0
BITMAP
000001BFE400
00001BFFFE00
00007FFFFF80
0001FF907FD0
0003FD001FD0
0007F8001FE0
000FF4001FD0
000FF0001FD0
001FE0001F80
001FE0000500
002FD0000000
002FD0000000
002FD0000000
002FD0000000
002FC0000000
002FC0000000
003FC0000000
003F80000008
1BFFD400002D
7FFFFFE405FD
FFFFFFFFFFF8
FFFDBFFFFFF0
BFF806FFFF80
2F90006BF900
ENDCHAR
STARTCHAR M
ENCODING 77
SWIDTH 1232 0
DWIDTH 35 0
BBX 38 24 0 0
BITMAP
006F8002FE000AF80000
02FFE01FFF807FFF0000
1FFFF07FFFD1FFFF8000
3F87F4F91FD3F4BF8000
BD07F6E00FEBC03FC000
F407F7C00FEF403FC000
A007FB400FFE007F8000
0007FF000FFC007F8000
000BFE001FF800BF4000
000BFC001FF400BF4000
000FF8002FF000FF0000
000FF4002FE001FF0000
001FF4003FD001FE0000
001FF0003FD002FD0000
001FE0007FC003FD0000
002FE0007F8003FC0000
002FD000BF8007F80000
003FC000BF4007F80000
003FC000FF4007F800B0
007F8000FF0007F802F0
007F8000FF0003FD1BE0
007F8001FE0002FFFF80
007F4000FE0000FFFE00
002E0000B800002FE400
ENDCHAR
STARTCHAR N
ENCODING 78
SWIDTH 884 0
DWIDTH 25 0
BBX 29 24 0 0
BITMAP
006F9001BF900000
02FFF00BFFF40000
0FFFF42FFFF80000
3F87F4BE07FC0000
BD07F5F403FD0000
F407F6D003FD0000
A007FB8003FC0000
000BFB4003FC0000
000BFE0007F80000
000BFD000BF80000
000FFC000BF40000
000FF8000FF00000
001FF4001FF00000
001FF0001FE00000
001FE0002FD00000
002FE0002FD00000
002FD0003FC00000
003FC0003FC00000
003FC0003FC00740
007F80003FC01F40
007F80003FE0BF00
007F80001FFFFC00
007F40000BFFE000
002E000001BE4000
ENDCHAR
STARTCHAR O
ENCODING 79
SWIDTH 816 0
DWIDTH 23 0
BBX 22 24 1 0
BITMAP
00006BFA0000
0006FFFFE000
001FFFFFF800
007FE41BFE00
01FF4001FF40
03FD0000BF80
07F800007FC0
0FF000003FC0
1FE000003FD0
2FE000002FD0
3FD000002FD0
3FC000003FD0
3FC000003FC0
7FC000003FC0
7FC000007F80
3FC00000BF40
3FC00000FF00
2FD00002FE00
2FF00007FC00
0FF8001FF400
07FE41BFE000
02FFFFFF8000
007FFFF90000
0006FE900000
ENDCHAR
STARTCHAR P
ENCODING 80
SWIDTH 805 0
DWIDTH 23 0
BBX 22 26 1 -2
BITMAP
00001AFF9000
0001FFFFFD00
000BFFFFFF40
002FE405FFC0
00BF40007FE0
02FD00001FF0
07F41B801FF0
0BE02FC00FF0
1FC03FC01FF0
2F803F801FE0
3F407F803FD0
3F00BF40BF80
7F00BF46FF00
7E1AFFBFFC00
BE2FFFFFE000
BD1BFFF90000
BD01FE000000
BD02FD000000
BD02FC000000
BE03FC000000
7F03F8000000
3F47F8000000
2F8BF4000000
0FFFF0000000
07FFE0000000
00BF40000000
ENDCHAR
STARTCHAR Q
ENCODING 81
SWIDTH 816 0
DWIDTH 23 0
BBX 24 32 1 -8
BITMAP
00006BFA0000
0006FFFFE000
001FFFFFF800
00BFE41BFE00
01FF4001FF40
03FD0000BF80
0BF800007FC0
0FF000003FD0
1FE000003FD0
2FD000002FD0
3FD000002FD0
3FC000003FD0
3FC000003FC0
7FC000007FC0
3FC00000BF80
3FC00000FF40
3FD00001FF00
2FE00003FD00
1FF4000BF800
0BFE007FF000
03FFFFFFC000
00BFFFFE0000
001BFFE40000
00007FE00000
00001FF80000
00000BFC0000
000003FE000A
000002FF002E
000000FFD1BD
000000BFFFF4
0000002FFFD0
00000006FE40
ENDCHAR
STARTCHAR R
ENCODING 82
SWIDTH 880 0
DWIDTH 25 0
BBX 28 24 1 0
BITMAP
00001BFF900000
0002FFFFFD0000
001FFFFFFF4000
007FE406FFC000
01FE00007FD000
03F806402FE000
0BF02F802FE000
0FD03F802FE000
1F807F802FD000
2F40BF407FC000
3F00BF41FF4000
3F00FF1BFD0000
7E0BFFFFE40000
7E0FFFFE400000
7E0BFFFF400000
7E01FD7FD00000
7E02FD1FF00000
7E03FC0FF80004
3F03FC07FC002C
2F47F803FE007D
1FDBF801FF82F8
0BFFF400BFFFF0
02FFE0002FFF80
006F800006F900
ENDCHAR
STARTCHAR S
ENCODING 83
SWIDTH 693 0
DWIDTH 19 0
BBX 19 24 1 0
BITMAP
0006BFE400
006FFFFF40
01FFFFFFD0
03FE406FF0
0BF4000BF4
0FF00007F4
0FF00007F4
0FF00007F0
0BF80002D0
07FF400000
02FFF40000
00BFFF8000
001BFFF800
0001BFFE00
00000BFF80
290000BFC0
BE00003FD0
FE00002FD0
FE00002FD0
FF00007FC0
BFD006FF40
3FFFFFFE00
0BFFFFF400
01AFFA4000
ENDCHAR
STARTCHAR T
ENCODING 84
SWIDTH 697 0
DWIDTH 20 0
BBX 25 24 1 0
BITMAP
0006AFFFFFF900
01FFFFFFFFFF40
1FFFFFFFFFFF00
3FE50BF4001400
BF000BF4000000
FD000FF0000000
FD001FF0000000
FE001FE0000000
BF002FD0000000
3D002FD0000000
00003FC0000000
00003FC0000000
00007F80000000
00007F80000000
0000BF40000000
0000BF40000000
0000FF00000000
0000FF00000000
0001FF00000000
0001FE00000000
0001FE00000000
0002FE00000000
0002FD00000000
0000B800000000
ENDCHAR
STARTCHAR U
ENCODING 85
SWIDTH 890 0
DWIDTH 25 0
BBX 29 24 0 0
BITMAP
006FD00000B80000
02FFF40001FD0000
0FFFFC0002FD0000
3F97FC0002FD0000
BD03FC0003FD0000
F803FC0003FC0000
A003FC0007FC0000
0007F80007F80000
0007F8000BF80000
000BF4000FF40000
000FF4000FF40000
000FF0001FF00000
001FE0002FF00000
002FE0003FE00000
002FD0007FE00000
003FC000FFE00000
007FC001FFD00000
007F8003EFD00000
007F800BAFD00740
007F801F2FD01F40
007FD1BD2FE07F40
003FFFF81FFFFD00
001FFFE00BFFF400
0006FE4001BE4000
ENDCHAR
STARTCHAR V
ENCODING 86
SWIDTH 763 0
DWIDTH 21 0
BBX 23 24 3 0
BITMAP
0B80002F9000
2FD001FFF400
3FD003FFF800
3FC007E2FC00
3FC00BD1FD00
7F800BC1FC00
7F800FC1FC00
7F800BC1FC00
7F800BD2F800
BF4007E3F800
BF4003FBF400
BF4001FFF400
BF4000BFFFF4
BF40002FFFF4
7F80003FEFE0
7F8000BF4000
7F8001FE0000
3FC003FC0000
2FD00FF40000
2FF47FE00000
0FFFFF800000
0BFFFE000000
03FFF4000000
00BF80000000
ENDCHAR
STARTCHAR W
ENCODING 87
SWIDTH 1217 0
DWIDTH 34 0
BBX 35 24 3 0
BITMAP
0B800002E0001BE000
2FD0000BF4007FFC00
3FD0000FF401FFFE00
3FC0000FF002F4FE00
3FC0001FF003F0BF00
7F80001FE003E0BF00
7F80002FE003E0BE00
7F80003FE003E0BE00
7F80003FE003F0FD00
BF40007FE002F5FD00
BF4000BFE001FEFC00
BF4000FFD000BFF800
BF4001FFD0002FFFFC
BF4002FFE0000FFFFC
BF4003FFE0001FEBF8
7F800BEFE0003FC000
7F800FDBE000BF4000
3FC02FCBF001FE0000
3FD07F47F407FC0000
2FE1FF07FD1FF40000
1FFFFD03FFFFD00000
0BFFF401FFFF400000
07FFD000BFFD000000
01BE40002F90000000
ENDCHAR
STARTCHAR X
ENCODING 88
SWIDTH 712 0
DWIDTH 20 0
BBX 25 24 -1 0
BITMAP
006FE00002F400
02FFFD000BF400
0BFFFE002FF000
2F91FF40BFC000
3E00BF81FF4000
14003FC7FD0000
00002FDFF40000
00001FFFE00000
00000FFF800000
00000FFE000000
00000BFC000000
00000FF8000000
00003FFC000000
0000BFFD000000
0002FFFD000000
000BFDFE000000
001FF0FF000000
007FD0BF400000
01FF407F800740
03FE003FC01F40
0FF8002FE07F00
2FF0001FFFFD00
7FD00007FFF400
3E400001BF8000
ENDCHAR
STARTCHAR Y
ENCODING 89
SWIDTH 851 0
DWIDTH 24 0
BBX 27 32 0 -8
BITMAP
006FD00000B800
02FFF40001FD00
1FFFFC0002FD00
3F87FC0002FD00
BD03FC0003FC00
F403FC0003FC00
9003FC0007FC00
0007F8000BF800
000BF8000BF800
000BF4000FF400
000FF0001FF400
001FF0003FF000
001FE0007FF000
002FD000FFE000
002FD002EFE000
002FE007DFD000
001FF46F9FD000
000FFFFE1FD6B8
0007FFF82FFFF8
0001BF91BFFFF4
0000001FFFE900
000001FFBF8000
00000BF47F4000
00007F807F4000
0000FD00BF0000
0002F800FE0000
0003F401FD0000
0007F403F80000
0007F81FF40000
0003FFFFD00000
0001FFFF400000
00006FE4000000
ENDCHAR
STARTCHAR Z
ENCODING 90
SWIDTH 721 0
DWIDTH 20 0
BBX 24 24 0 0
BITMAP
0006BFFEA500
007FFFFFFFD0
02FFFFFFFFE0
0BF94005FFD0
0FE00002FF00
1FC00003FD00
1FC0000BF800
1FD0001FF000
0BE0003FD000
029000BF8000
000001FF0000
000003FD0000
00000BF80000
00001FF00000
00003FD00000
0000FF800000
0002FF000000
0007FD000005
06FFF900002E
2FFFFFE501BE
7FFFFFFFFFFD
BFFF6FFFFFF4
7FFD06FFFFD0
1BE0001BF900
ENDCHAR
STARTCHAR bracketleft
ENCODING 91
SWIDTH 405 0
DWIDTH 11 0
BBX 12 28 2 -2
BITMAP
00BFFE
02FFFF
03FFFE
03F800
07F800
07F400
07F400
0BF000
0BF000
0FF000
0FE000
1FE000
1FD000
1FD000
2FD000
2FC000
3FC000
3F8000
3F8000
7F8000
7F4000
BF4000
BF0000
BF0000
FF0000
FFFF40
FFFF80
7FFF40
ENDCHAR
STARTCHAR backslash
ENCODING 92
SWIDTH 509 0
DWIDTH 14 0
BBX 10 26 3 0
BITMAP
780000
FD0000
FE0000
BF0000
7F4000
3F8000
3FC000
2FD000
1FD000
0FE000
0BF000
07F400
03F800
02FC00
02FD00
01FD00
00FE00
00BF00
007F40
003F80
002FC0
002FD0
001FE0
000FE0
000BE0
0003D0
ENDCHAR
STARTCHAR bracketright
ENCODING 93
SWIDTH 405 0
DWIDTH 11 0
BBX 13 28 -2 -2
BITMAP
00BFFE00
01FFFF80
00BFFF80
00007F80
00007F40
0000BF40
0000BF00
0000BF00
0000FF00
0000FE00
0001FE00
0001FD00
0001FD00
0002FD00
0002FC00
0003FC00
0003F800
0003F800
0007F800
0007F400
000BF400
000BF000
000BF000
000FE000
000FE000
2FFFD000
7FFFD000
2FFF4000
ENDCHAR
STARTCHAR asciicircum
ENCODING 94
SWIDTH 700 0
DWIDTH 20 0
BBX 14 15 2 1
BITMAP
00005000
0002F400
0007F800
000FFC00
001FFD00
003F7E00
00BE3F00
01FC2F40
02F81F80
07F00FC0
0FD00BD0
1FC007E0
3F4003F0
7E0002F0
780001E0
ENDCHAR
STARTCHAR underscore
ENCODING 95
SWIDTH 354 0
DWIDTH 10 0
BBX 10 3 -1 -3
BITMAP
7FFFE0
BFFFF0
7FFFE0
ENDCHAR
STARTCHAR grave
ENCODING 96
SWIDTH 600 0
DWIDTH 17 0
BBX 7 9 3 15
BITMAP
1400
7E00
BF00
7F80
2FC0
0BD0
03F0
01F4
0074
ENDCHAR
STARTCHAR a
ENCODING 97
SWIDTH 470 0
DWIDTH 13 0
BBX 16 13 1 0
BITMAP
006F4000
02FFE800
0BFFFC00
1FF5FC00
3FC2FC00
7F42F800
BE03F400
FE07F40E
FE0BF43E
FE1FF5FD
BFFFFFF8
7FF8FFD0
1BE06E40
ENDCHAR
STARTCHAR b
ENCODING 98
SWIDTH 473 0
DWIDTH 13 0
BBX 16 26 1 0
BITMAP
000BE000
002FF400
00BFF800
01FCFC00
02F4BC00
07F0BC00
0BE0F800
0FD1F400
1FD2F000
1FC3E000
2F87C000
2F8F8000
3F9E0000
3F7E8000
7FBFF400
7FFFF800
7FD7FD00
7F87FE15
7F43FFFF
7F01FFFF
7F00BFE8
3F40FD00
2FD2FC00
1FFFF400
0BFFD000
01BE4000
ENDCHAR
STARTCHAR c
ENCODING 99
SWIDTH 368 0
DWIDTH 10 0
BBX 13 13 1 0
BITMAP
01BE0000
0BFFC000
2FFFD000
7F8BD000
BF0BC000
FE0B8000
FD000000
FE000380
FE001FC0
BF81BF40
7FFFFE00
1FFFF400
06FE4000
ENDCHAR
STARTCHAR d
ENCODING 100
SWIDTH 515 0
DWIDTH 14 0
BBX 17 26 1 0
BITMAP
000001F800
000007FD00
00000FFF00
00002F6F00
00003F1F00
00007E1F00
0000BD2F00
0000BD2E00
0000FC3D00
0001FC3D00
0001FC7C00
0002F8B800
0002F8F000
006FFAE000
02FFFBD000
0BFFFF8000
1FE3FF4000
3F83FE0000
7F03FD0000
BE03F80000
FE02F402C0
FE03F80BC0
FF1BFD6F80
BFFFFFFE00
3FFC7FF800
1BE01F9000
ENDCHAR
STARTCHAR e
ENCODING 101
SWIDTH 393 0
DWIDTH 11 0
BBX 14 13 1 0
BITMAP
01BE4000
0BFFD000
2FFFE000
7F87E000
BF07E000
FD0BD000
FE7F8040
FFFD01E0
FF900BE0
BF417FD0
7FFFFF40
1FFFF800
02FF9000
ENDCHAR
STARTCHAR f
ENCODING 102
SWIDTH 371 0
DWIDTH 10 0
BBX 13 35 1 -9
BITMAP
0001F800
000BFD00
001FFF00
003F6F00
00BE2F00
00FC2F00
02F82E00
03F43E00
07F47D00
0BF0BC00
0FE0F400
0FD2E000
1FD7D000
2FCF8000
2FEE0000
3FFC0000
3FF00000
7FD00000
7F400000
7F2FFF40
7F7FFF40
7F7FF900
BF7C0000
BF3D0000
BF3D0000
BF2D0000
7F2E0000
7F1E0000
7F1E0000
7F1E0000
3F5E0000
3F6D0000
2FFD0000
0FF80000
07E00000
ENDCHAR
STARTCHAR g
ENCODING 103
SWIDTH 479 0
DWIDTH 13 0
BBX 17 26 0 -13
BITMAP
001BD00000
00BFFA0000
02FFFF0000
07FD7F0000
0FF0BE0000
1FD0BE0000
2F80FD0000
3F81FD0B40
3F82FC7F40
3F87FEFE00
2FFFFFF800
1FFFFFD000
06F6FE0000
000BF40000
003FF00000
01FFF00000
03FBE00000
0FDBD00000
2F4FC00000
7E1F800000
BC2F400000
F83F000000
FCBE000000
FFFC000000
BFF4000000
2F90000000
ENDCHAR
STARTCHAR h
ENCODING 104
SWIDTH 502 0
DWIDTH 14 0
BBX 17 26 1 0
BITMAP
000BE00000
002FF40000
00BFFC0000
01FCFC0000
02F4BC0000
03F0BC0000
07E0F80000
0BD1F40000
0FC2F00000
1FC3D00000
2F8BC00000
2F9F400000
2FBD000000
3FF87E0000
3FF2FF0000
7FCBFF0000
7F5FFF0000
7F3EBE0000
7FB8BD0000
7FF0FD0000
7FE1FC0780
7FD1FC1F80
BFC1FC7F40
BF81FFFD00
7F40FFF400
3D007F8000
ENDCHAR
STARTCHAR i
ENCODING 105
SWIDTH 246 0
DWIDTH 7 0
BBX 10 19 1 0
BITMAP
07E000
1FF800
1FF400
0BE000
000000
000000
0B8000
2FC000
2F8000
3F8000
7F4000
7F0000
BF0040
BE01D0
BE07D0
BF1FC0
7FFF40
3FFD00
1BE000
ENDCHAR
STARTCHAR j
ENCODING 106
SWIDTH 254 0
DWIDTH 7 0
BBX 17 32 -7 -13
BITMAP
00001BD000
00003FF000
00003FE000
00001F9000
0000000000
0000000000
00001F8000
00002F8000
00002F8000
00003F8000
00003F4000
00003F4000
00007F0000
00007F02C0
00007F1FC0
0000BEBF80
0000BFFD00
0000FFE000
0000FF4000
0002FC0000
000FFC0000
007FF80000
01FAF40000
03E3F00000
0BC7F00000
1F47E00000
3E0FD00000
7D1F800000
7E3F400000
7FFE000000
3FFC000000
0BE0000000
ENDCHAR
STARTCHAR k
ENCODING 107
SWIDTH 525 0
DWIDTH 15 0
BBX 18 26 1 0
BITMAP
000BE00000
002FF40000
00BFFC0000
01FCFC0000
02F4BC0000
03F0BC0000
07E0F80000
0BD1F40000
0FC2F00000
1FC3D00000
2F8B800000
2F9F000000
2FBD000000
3FF4BE0000
3FE2FF8000
7F8FFFD000
7F2F5FD000
7F7D1FC000
7FB82F8000
7FF1BF4040
7FE7FD02D0
7FCBF00BD0
7F87F82F80
7F83FFFF00
3F41FFF800
2E006F9000
ENDCHAR
STARTCHAR l
ENCODING 108
SWIDTH 326 0
DWIDTH 9 0
BBX 12 26 1 0
BITMAP
000BE0
002FF4
00BFF8
01FCFC
02F4BC
03F0BC
07E0BC
0BD0F8
0FC0F4
1FC1F4
2F82F0
2F83D0
3F4BC0
3F4F80
7F1F00
7F3E00
7FBC00
7FF400
7FE000
7FD000
7F401E
3F407E
2F81FD
1FFFF4
0BFFD0
02FE00
ENDCHAR
STARTCHAR m
ENCODING 109
SWIDTH 744 0
DWIDTH 21 0
BBX 24 13 1 0
BITMAP
0B80BD02F400
2F87FE1FF800
2F4FFE3FF800
3F6FFDBFF800
7F7DFDF7F400
7FB4FED3F400
BFE1FFC7F004
BFD1FF47F01D
BFC1FF0BE07D
BF82FE0BF1FC
7F42FD0BFFF4
7F01FC07FFC0
2E00B402F900
ENDCHAR
STARTCHAR n
ENCODING 110
SWIDTH 496 0
DWIDTH 14 0
BBX 17 13 1 0
BITMAP
0B80BD0000
2F83FF0000
2F4FFF0000
3F6FFE0000
7F7DFE0000
7FB8FD0000
BFF0FC0100
BFD1FC0740
BFC2F81F40
BF82FC7F00
7F42FFFD00
7F01FFF400
2E007E4000
ENDCHAR
STARTCHAR o
ENCODING 111
SWIDTH 451 0
DWIDTH 13 0
BBX 16 13 1 0
BITMAP
01BE4000
0BFFE000
2FFFF400
7F8FF800
BF0FFC18
FE0BFFFD
FD03FFFD
FD01FFE4
FE01F800
BF47F400
7FFFE000
1FFF8000
06F90000
ENDCHAR
STARTCHAR p
ENCODING 112
SWIDTH 481 0
DWIDTH 13 0
BBX 21 26 -4 -13
BITMAP
000BC2F80000
001FDFFE0000
001FFFFF0000
001FF87F4000
001FE03F4000
001FD03F4000
001FD07F0000
001FD0BF02C0
003FD1FD0BC0
007FD7FC6F80
00FFEFFFFE00
01FFFFFFF800
03EFF96F9000
07DFC0000000
0B9FC0000000
0F5FC0000000
1F2F80000000
2E2F80000000
3D2F40000000
3D3F00000000
7D3F00000000
7D7E00000000
7DBD00000000
3FFC00000000
2FF400000000
0B9000000000
ENDCHAR
STARTCHAR q
ENCODING 113
SWIDTH 500 0
DWIDTH 14 0
BBX 17 25 1 -11
BITMAP
00002F0000
006FBF4000
02FFFF0000
0BFFFE0000
1FF5FD0000
3FC1FC0000
7F42FC0000
BE03F80000
FE07F40000
FE0BF2FF80
FE1FF7FF80
BFFFE7FF00
7FFFD3C000
1BDFD3C000
001FC3C000
001FC3C000
002FC3C000
002FC7C000
002FC7C000
002FC78000
002FCB4000
001FDF4000
000FFE0000
000BFD0000
0002F40000
ENDCHAR
STARTCHAR r
ENCODING 114
SWIDTH 455 0
DWIDTH 13 0
BBX 16 13 1 0
BITMAP
0B80BD00
2F83FF00
2F8FFF00
3F6FFE00
7F7EFE05
7FB8FE2E
BFF0FFFD
BFD0BFF8
BFC02F90
BF800000
7F400000
7F000000
2E000000
ENDCHAR
STARTCHAR s
ENCODING 115
SWIDTH 427 0
DWIDTH 12 0
BBX 17 14 -1 -1
BITMAP
0007E00000
000FD00000
001FC00000
003FC00000
007FD00000
00FFF00000
01FFF80000
07E3FD0340
0FD1FE0F80
2F40FF7F40
7E2FFFFE00
247FFFF800
007FFF9000
001FD00000
ENDCHAR
STARTCHAR t
ENCODING 116
SWIDTH 393 0
DWIDTH 11 0
BBX 15 25 0 0
BITMAP
0001B800
0007FE00
000FFF00
002F6F00
003F1F00
007D2F00
00BD2F00
00FC3E00
01F87C00
02F8F800
02F6E000
03FFC000
BFFFFF40
FFFFFF40
BFFFFE00
07F00000
0BF00000
0BF00000
07F00000
07F00074
07F401F8
03FD0BF4
01FFFFD0
00BFFF40
001BE800
ENDCHAR
STARTCHAR u
ENCODING 117
SWIDTH 462 0
DWIDTH 13 0
BBX 16 13 1 0
BITMAP
0BC07D00
1FC0FD00
2F81FC00
3F42F800
7F43F800
7F07F400
BF0BF404
BE1FF01D
BE3FF07D
BFFBF1FC
7FF7FFF4
3FE3FFD0
1F81FA00
ENDCHAR
STARTCHAR v
ENCODING 118
SWIDTH 449 0
DWIDTH 13 0
BBX 16 13 1 0
BITMAP
7D01B800
BE03FD00
BE0BFD00
BE0BFC00
BF0BF858
BF07FFFD
7F0BFFFC
7F1FEFE4
7F7F4000
7FFE0000
3FFC0000
2FF40000
0B900000
ENDCHAR
STARTCHAR w
ENCODING 119
SWIDTH 700 0
DWIDTH 20 0
BBX 23 13 1 0
BITMAP
7D00B806E000
BE01F80FF400
BE02F81FF400
BE07F82FF000
BF0BFC2FE160
BF0FFC1FFFF4
7F1FFC2FFFF0
7F3FFC7FBF90
7F7DFDFD0000
7FFCFFF80000
3FF8BFF00000
2FF0BFD00000
0B802E400000
ENDCHAR
STARTCHAR x
ENCODING 120
SWIDTH 529 0
DWIDTH 15 0
BBX 19 13 0 0
BITMAP
01FD06F400
07FF9FFC00
0BFFFFFC00
0BDBFDBC00
0787F87400
0007F40000
0007F40000
2F0BF40074
7F0FF401F4
7F2FFD0BF0
7FFFFFFFD0
3FFDFFFE00
1BE02FE400
ENDCHAR
STARTCHAR y
ENCODING 121
SWIDTH 479 0
DWIDTH 13 0
BBX 17 26 0 -13
BITMAP
02F01F4000
07F03F4000
0BE07F0000
0FD0BF0000
1FD0FE0000
1FC1FE0000
2FC2FD0100
2F87FD0B40
2F8FFC7F40
2FFFFEFE00
1FFEFFF400
0FF9FF9000
07E2FE0000
000BF40000
002FF00000
00FFF00000
03FBE00000
0BDBD00000
2F4FC00000
7D1F800000
BC2F400000
F83F000000
F8BE000000
FFFC000000
BFF4000000
2F90000000
ENDCHAR
STARTCHAR z
ENCODING 122
SWIDTH 445 0
DWIDTH 12 0
BBX 15 13 1 0
BITMAP
3FFFFF00
7FFFFF40
3FFFFF00
002FF800
01FF9000
0BF90000
1FE00004
3F80003C
7F8001FC
3FD01BF4
2FFFFFE0
0BFFFF40
01BFE400
ENDCHAR
STARTCHAR braceleft
ENCODING 123
SWIDTH 490 0
DWIDTH 14 0
BBX 15 28 1 -2
BITMAP
00002BF8
0001FFFC
0003FFF8
000BF900
000FF000
000FE000
000FE000
001FE000
001FD000
002FD000
002FC000
00BF8000
3FFF0000
7FF80000
7FFE0000
01FF0000
00BF4000
00BF0000
00BF0000
00FF0000
00FE0000
00FE0000
01FE0000
01FE0000
00FF4000
00BFFE00
003FFF40
000BFE00
ENDCHAR
STARTCHAR bar
ENCODING 124
SWIDTH 326 0
DWIDTH 9 0
BBX 8 35 1 -9
BITMAP
007E
00BE
00BE
00FE
00FD
00FD
01FD
01FC
02FC
02F8
03F8
03F4
03F4
07F4
07F0
0BF0
0BE0
0FE0
0FD0
1FD0
1FC0
2FC0
2F80
3F80
3F80
3F40
7F40
7F00
BF00
BE00
BE00
FE00
FD00
FD00
5400
ENDCHAR
STARTCHAR braceright
ENCODING 125
SWIDTH 490 0
DWIDTH 14 0
BBX 15 28 -1 -2
BITMAP
02FE8000
07FFF000
02FFF800
0007FC00
0002FD00
0001FD00
0002FC00
0002FC00
0003FC00
0003F800
0003F800
0003FD00
0001FFF4
0000BFF8
0002FFF4
000BF900
000FF000
000FE000
001FD000
001FD000
002FD000
002FC000
002FC000
003FC000
01BF8000
BFFF0000
FFFD0000
BFA00000
ENDCHAR
STARTCHAR asciitilde
ENCODING 126
SWIDTH 700 0
DWIDTH 20 0
BBX 16 7 2 5
BITMAP
01500000
0BF9002E
2FFF80BE
7FBFF5FD
BF0BFFF8
BD01BFF0
50001B90
ENDCHAR
STARTCHAR uni00A0
ENCODING 160
SWIDTH 265 0
DWIDTH 7 0
BBX 1 1 0 0
BITMAP
00
ENDCHAR
STARTCHAR exclamdown
ENCODING 161
SWIDTH 340 0
DWIDTH 10 0
BBX 10 24 -1 -11
BITMAP
001F80
007FD0
00BFE0
007FD0
002F80
000000
001400
007D00
00BC00
00FC00
01F800
02F800
03F400
07F400
0BF000
0FF000
1FE000
2FD000
2FD000
3FC000
7F8000
BF8000
BF0000
140000
ENDCHAR
STARTCHAR cent
ENCODING 162
SWIDTH 466 0
DWIDTH 13 0
BBX 11 20 1 -4
BITMAP
000B00
000F00
000F00
001E00
01FFE0
0BFFF8
2FFEFC
3F6DFC
7F2CF8
BE3CB4
BE3800
BE381C
BF787C
3FFAFC
1FFFF4
07FF90
00F400
00F000
00F000
00E000
ENDCHAR
STARTCHAR sterling
ENCODING 163
SWIDTH 525 0
DWIDTH 15 0
BBX 15 17 0 0
BITMAP
0006FE40
002FFFE0
00BFFFF4
01FF47F8
02FC02F8
03F800B4
03F40000
07F40000
3FFFFC00
3FFFFC00
0BF00000
0BF00000
0BF00000
1FE00000
7FFFFFF0
7FFFFFF0
3EAFFFE0
ENDCHAR
STARTCHAR currency
ENCODING 164
SWIDTH 700 0
DWIDTH 20 0
BBX 14 13 3 1
BITMAP
786F92D0
7FFFFFD0
2FFFFF80
0FD07F00
1F401F40
2F000F80
2F000F80
1F401F40
0FD07F00
1FFFFF40
7FFFFFD0
BD6F97E0
740001D0
ENDCHAR
STARTCHAR yen
ENCODING 165
SWIDTH 497 0
DWIDTH 14 0
BBX 14 17 1 0
BITMAP
14000150
FD0007F0
FF001FE0
7F403F80
3FC0BF00
1FE1FD00
0BF3F800
07FFE000
02FFC000
6FFFFE00
7FFFFE00
00FE0000
BFFFFD00
BFFFFD00
01FD0000
01FD0000
00F80000
ENDCHAR
STARTCHAR brokenbar
ENCODING 166
SWIDTH 326 0
DWIDTH 9 0
BBX 8 35 1 -9
BITMAP
007E
00BF
00BE
00FE
00FD
01FD
01FC
02FC
02FC
02F8
03F8
03F4
07F4
07F0
03E0
0000
0000
0000
0000
0540
1FC0
2FC0
2FC0
2F80
3F80
3F40
7F40
7F00
7F00
BF00
BE00
FE00
FD00
FD00
5400
ENDCHAR
STARTCHAR section
ENCODING 167
SWIDTH 607 0
DWIDTH 17 0
BBX 14 24 2 0
BITMAP
001BF900
00BFFF80
02FFFFD0
07F81FE0
0BE00BE0
0BE00BE0
0BF407C0
07FE0000
07FFE400
0FFFFE00
2F87FF40
2F407FC0
2F801FC0
2FE41FC0
0FFF6F40
02FFFE00
006FFD00
7802FE00
FD00BF00
FD007F00
FE41FE00
BFFFFD00
2FFFF400
06FF8000
ENDCHAR
STARTCHAR dieresis
ENCODING 168
SWIDTH 600 0
DWIDTH 17 0
BBX 10 4 4 15
BITMAP
7D0BD0
FF1FE0
FE1FE0
BD0B80
ENDCHAR
STARTCHAR copyright
ENCODING 169
SWIDTH 647 0
DWIDTH 18 0
BBX 17 16 2 10
BITMAP
001BF90000
01FFFFD000
07E406F400
1F42F87D00
3D1FFE2E00
7C3D0E0F40
B8780D0B40
B4B4000B80
B4B4000B80
B8B4000B40
7C7D0A0F40
3D2FFD2E00
1F46A47D00
07E006F400
01FFFFD000
001BF90000
ENDCHAR
STARTCHAR ordfeminine
ENCODING 170
SWIDTH 393 0
DWIDTH 11 0
BBX 10 11 2 13
BITMAP
00BD40
07FFE0
0FE7F0
2F87E0
7F0BE0
BE0BD0
BD0FD0
BD1FD0
BE7FC0
7FEFC0
1F8B80
ENDCHAR
STARTCHAR guillemotleft
ENCODING 171
SWIDTH 615 0
DWIDTH 17 0
BBX 16 11 0 1
BITMAP
001F002D
00BF81FF
07FF4BFE
1FF83FF4
3FD0BF80
7F80BF00
3FE07FD0
0FF82FF4
02FE07FD
00BF41FE
002E007D
ENDCHAR
STARTCHAR logicalnot
ENCODING 172
SWIDTH 700 0
DWIDTH 20 0
BBX 16 9 2 0
BITMAP
7FFFFFFD
BFFFFFFE
7FFFFFFE
000000FD
000000FD
000001FC
000001FC
000001F8
00000050
ENDCHAR
STARTCHAR uni00AD
ENCODING 173
SWIDTH 403 0
DWIDTH 11 0
BBX 10 4 1 7
BITMAP
015A40
3FFFD0
7FFFC0
3FEA40
ENDCHAR
STARTCHAR registered
ENCODING 174
SWIDTH 647 0
DWIDTH 18 0
BBX 17 16 2 10
BITMAP
001BF90000
01FFFFD000
07E406F400
1F5BE47D00
3D1F6D2E00
7C0F0E0F40
B80E1E0B40
B41E6D0B80
B41FE00B80
B82DF00B40
7C2C780F40
3D3C3D2E00
1F54187D00
07E006F400
01FFFFD000
001BF90000
ENDCHAR
STARTCHAR macron
ENCODING 175
SWIDTH 600 0
DWIDTH 17 0
BBX 9 3 4 15
BITMAP
BFFF80
FFFFC0
BFFF80
ENDCHAR
STARTCHAR degree
ENCODING 176
SWIDTH 385 0
DWIDTH 11 0
BBX 10 8 2 15
BITMAP
07FD00
1FFF80
3E0BC0
7D07D0
7D07C0
3F5F80
1FFF40
06F800
ENDCHAR
STARTCHAR plusminus
ENCODING 177
SWIDTH 700 0
DWIDTH 20 0
BBX 15 16 2 0
BITMAP
0001F400
0002F400
0003F400
0003F000
0BFFFFF4
1FFFFFF8
0FFFFFF4
000BE000
000BD000
000BD000
000FD000
00064000
00000000
2FFFFFD0
7FFFFFE0
3FFFFFD0
ENDCHAR
STARTCHAR uni00B2
ENCODING 178
SWIDTH 450 0
DWIDTH 13 0
BBX 12 14 1 10
BITMAP
00BF90
07FFF4
0FD6FC
1F40FD
1F40FD
0A01FC
0003F8
000BF0
002FD0
00BF40
0BF800
3FFFFD
7FFFFE
7FFFFD
ENDCHAR
STARTCHAR uni00B3
ENCODING 179
SWIDTH 450 0
DWIDTH 13 0
BBX 11 14 2 10
BITMAP
02FF80
1FFFF0
3F57F8
7D02F8
2C03F4
001BE0
00FF80
01FF80
006FE0
6007F4
F803F4
FD5BF0
7FFFD0
1BFE40
ENDCHAR
STARTCHAR acute
ENCODING 180
SWIDTH 600 0
DWIDTH 17 0
BBX 7 9 7 15
BITMAP
0050
02F4
03F8
0BF4
0FD0
1F80
3F00
7D00
7400
ENDCHAR
STARTCHAR uni00B5
ENCODING 181
SWIDTH 462 0
DWIDTH 13 0
BBX 17 20 0 -7
BITMAP
02F01F4000
07F03F4000
0BE07F0000
0FD0BE0000
1FD0FE0000
1FC1FD0000
2FC2FD0100
2F87FC0740
2F8FFC1F40
3FFEFC7F00
3FFDFFFD00
3FF8FFF400
3FE07E8000
3F40000000
3F40000000
7F40000000
7F40000000
7F40000000
7F40000000
2E00000000
ENDCHAR
STARTCHAR paragraph
ENCODING 182
SWIDTH 739 0
DWIDTH 21 0
BBX 17 24 3 0
BITMAP
006BFFA400
0BFFFFFE00
2FFFFFFF40
BFFFFFFF80
FFFFF4BF40
FFFFF0BF40
FFFFF0BF40
FFFFE0BF00
BFFFE0FF00
2FFFD0FE00
0BFFD1FE00
007FC1FD00
003FC2FD00
003F82FC00
007F83FC00
007F43F800
00BF47F800
00BF07F400
00FF0BF400
00FF0BF000
01FE0FF000
01FE0FF000
01FD0FE000
00B80BD000
ENDCHAR
STARTCHAR periodcentered
ENCODING 183
SWIDTH 257 0
DWIDTH 7 0
BBX 6 5 1 4
BITMAP
2F80
7FD0
BFD0
BFD0
2F40
ENDCHAR
STARTCHAR cedilla
ENCODING 184
SWIDTH 600 0
DWIDTH 17 0
BBX 9 8 1 -7
BITMAP
07F800
0BFF00
006F80
000F80
002F80
3FFF40
7FFD00
2FE400
ENDCHAR
STARTCHAR uni00B9
ENCODING 185
SWIDTH 450 0
DWIDTH 13 0
BBX 8 14 3 10
BITMAP
01BD
6FFE
FFFD
F9FD
00FD
01FC
01FC
02F8
02F8
02F8
03F4
03F4
03F0
02E0
ENDCHAR
STARTCHAR ordmasculine
ENCODING 186
SWIDTH 408 0
DWIDTH 11 0
BBX 10 12 2 12
BITMAP
01FD00
0BFF80
2FFFD0
3F4BE0
7E07F0
BD03F0
BD07F0
BE07E0
7F5FD0
3FFF80
1FFF00
06A400
ENDCHAR
STARTCHAR guillemotright
ENCODING 187
SWIDTH 615 0
DWIDTH 17 0
BBX 16 11 1 1
BITMAP
2D007800
7F40FE00
7FE0BFD0
0FF82FF4
02FE07FC
00BF01FD
02FF07FD
0BFD2FF8
7FE0BFD0
BF41FE00
7900B400
ENDCHAR
STARTCHAR onequarter
ENCODING 188
SWIDTH 955 0
DWIDTH 27 0
BBX 23 24 3 0
BITMAP
01BD00000000
6FFE00000000
FFFD00000000
F9FD00050000
00FD001F4000
01FC003F8000
01FC00BF0000
02F801FD0000
02F802F80000
02F807F40000
03F40FE0B800
03F42FC1F800
03F07F43F440
02E0BE0BE3E0
0001FD0FD7E0
0003F81F8BE0
000BF03F4BD0
001FD07E0FD0
002F80BFFFF8
003F00BFFFFC
002D007FFFF8
000000001F80
000000001F80
000000001F40
ENDCHAR
STARTCHAR onehalf
ENCODING 189
SWIDTH 1024 0
DWIDTH 29 0
BBX 25 24 3 0
BITMAP
01BD0000000000
6FFE0000000000
FFFD0000000000
F9FD0005000000
00FD001F400000
01FC003F800000
01FC00BF000000
02F801FD000000
02F802F8000000
02F807F4000000
03F40FE06FE400
03F42FC1FFFD00
03F07F47F5BF00
02E0BE0BD07F00
0001FD0BC07F00
0003F80640BF00
000BF00000FE00
001FD00002FC00
002F80000BF000
003F00007FC000
002D0002FE0000
0000001FFFFE40
0000002FFFFF40
0000001FFFFF00
ENDCHAR
STARTCHAR threequarters
ENCODING 190
SWIDTH 1035 0
DWIDTH 29 0
BBX 27 24 2 0
BITMAP
02FF8000000000
1FFFF000000000
3F57F800000000
7D02F800140000
2C03F4003E0000
001BE000BE0000
00FF8001FD0000
01FF8003F80000
006FE00BF00000
6007F40FD00000
F803F42FC1F000
FD5BF07F47F000
7FFFD0FE0BD100
1BFE42FC1FCBC0
000007F42F4FC0
00000BE07F1F80
00001FD0BD1F80
00003F80FC2F40
0000BF01FFFFE0
0000BD01FFFFF4
00007800FFFFE0
00000000003F00
00000000007E00
00000000003D00
ENDCHAR
STARTCHAR questiondown
ENCODING 191
SWIDTH 476 0
DWIDTH 13 0
BBX 14 24 -2 -11
BITMAP
00002F80
00007FD0
0000BFD0
0000BFD0
00002F40
00000000
00001400
00007C00
0000FC00
0001F800
0003F400
000FF000
007FD000
01FF4000
07FD0000
0FF40000
2FE00500
3FC01F80
3FC01F80
7FC02F80
3FD07F40
2FFFFF00
0FFFFD00
01BF9000
ENDCHAR
STARTCHAR Agrave
ENCODING 192
SWIDTH 786 0
DWIDTH 22 0
BBX 25 33 1 0
BITMAP
00001400000000
0000BE00000000
0000BFC0000000
00007FF4000000
00000BFD000000
000000BF400000
0000001B400000
00000000000000
00000000000000
000001AFFE9000
00006FFFFFF400
0002FFFFFFF400
000FFE50069000
003FF400140000
00FF8001FD0000
02FE0002FD0000
07FC0002FD0000
0BF40003FC0000
1FF00007F80000
2FE00007F80000
3FD0000BF40000
3FC0000FF40000
7FC0001FF00000
7F80001FF00000
7F80002FE00000
7F80007FE00000
7FC000BFE00000
3FC001FFE00780
2FE003FFE00F80
1FF81FDFF47F40
0BFFFF4FFFFD00
02FFFE07FFF400
006FE401BF8000
ENDCHAR
STARTCHAR Aacute
ENCODING 193
SWIDTH 786 0
DWIDTH 22 0
BBX 25 33 1 0
BITMAP
00000000005000
0000000002FC00
000000000BFC00
000000002FF800
00000001FF9000
00000003F90000
00000003900000
00000000000000
00000000000000
000001AFFE9000
00006FFFFFF400
0002FFFFFFF400
000FFE50069000
003FF400140000
00FF8001FD0000
02FE0002FD0000
07FC0002FD0000
0BF40003FC0000
1FF00007F80000
2FE00007F80000
3FD0000BF40000
3FC0000FF40000
7FC0001FF00000
7F80001FF00000
7F80002FE00000
7F80007FE00000
7FC000BFE00000
3FC001FFE00780
2FE003FFE00F80
1FF81FDFF47F40
0BFFFF4FFFFD00
02FFFE07FFF400
006FE401BF8000
ENDCHAR
STARTCHAR Acircumflex
ENCODING 194
SWIDTH 786 0
DWIDTH 22 0
BBX 25 34 1 0
BITMAP
00000001500000
0000000BF80000
0000001FFD0000
0000003FBE0000
000000BE3F0000
000001FC2F4000
000003F42F8000
000002E00F4000
00000000000000
00000000000000
000001AFFE9000
00006FFFFFF400
0002FFFFFFF400
000FFE50069000
003FF400140000
00FF8001FD0000
02FE0002FD0000
07FC0002FD0000
0BF40003FC0000
1FF00007F80000
2FE00007F80000
3FD0000BF40000
3FC0000FF40000
7FC0001FF00000
7F80001FF00000
7F80002FE00000
7F80007FE00000
7FC000BFE00000
3FC001FFE00780
2FE003FFE00F80
1FF81FDFF47F40
0BFFFF4FFFFD00
02FFFE07FFF400
006FE401BF8000
ENDCHAR
STARTCHAR Atilde
ENCODING 195
SWIDTH 786 0
DWIDTH 22 0
BBX 25 32 1 0
BITMAP
00000014000000
000001FE40B400
000007FFD3F400
00000BEBFFE000
00000F81FFD000
000005002E4000
00000000000000
00000000000000
000001AFFE9000
00006FFFFFF400
0002FFFFFFF400
000FFE50069000
003FF400140000
00FF8001FD0000
02FE0002FD0000
07FC0002FD0000
0BF40003FC0000
1FF00007F80000
2FE00007F80000
3FD0000BF40000
3FC0000FF40000
7FC0001FF00000
7F80001FF00000
7F80002FE00000
7F80007FE00000
7FC000BFE00000
3FC001FFE00780
2FE003FFE00F80
1FF81FDFF47F40
0BFFFF4FFFFD00
02FFFE07FFF400
006FE401BF8000
ENDCHAR
STARTCHAR Adieresis
ENCODING 196
SWIDTH 786 0
DWIDTH 22 0
BBX 25 30 1 0
BITMAP
000001F81F4000
000002FD3FC000
000003FD3FC000
000001F42F4000
00000000000000
00000000000000
000001AFFE9000
00006FFFFFF400
0002FFFFFFF400
000FFE50069000
003FF400140000
00FF8001FD0000
02FE0002FD0000
07FC0002FD0000
0BF40003FC0000
1FF00007F80000
2FE00007F80000
3FD0000BF40000
3FC0000FF40000
7FC0001FF00000
7F80001FF00000
7F80002FE00000
7F80007FE00000
7FC000BFE00000
3FC001FFE00780
2FE003FFE00F80
1FF81FDFF47F40
0BFFFF4FFFFD00
02FFFE07FFF400
006FE401BF8000
ENDCHAR
STARTCHAR Aring
ENCODING 197
SWIDTH 786 0
DWIDTH 22 0
BBX 25 34 1 0
BITMAP
00000007F40000
0000002FFD0000
0000007FFF0000
0000007D2F0000
0000007D2F0000
0000007FFE0000
0000002FFD0000
0000000BE40000
00000000000000
00000000000000
000001AFFE9000
00006FFFFFF400
0002FFFFFFF400
000FFE50069000
003FF400140000
00FF8001FD0000
02FE0002FD0000
07FC0002FD0000
0BF40003FC0000
1FF00007F80000
2FE00007F80000
3FD0000BF40000
3FC0000FF40000
7FC0001FF00000
7F80001FF00000
7F80002FE00000
7F80007FE00000
7FC000BFE00000
3FC001FFE00780
2FE003FFE00F80
1FF81FDFF47F40
0BFFFF4FFFFD00
02FFFE07FFF400
006FE401BF8000
ENDCHAR
STARTCHAR AE
ENCODING 198
SWIDTH 1015 0
DWIDTH 28 0
BBX 31 24 1 0
BITMAP
000006BD07FFFF80
00007FFE2FFFFFD0
0002FFFE3FFFFF80
001FFF947F400000
007FF800BF000000
00FFD000FF000000
02FF0001FE000000
07FD0001FE000000
0FF80002FD000000
1FF00003FC000000
2FE00007FC000000
3FD0000BFFFFFC00
3FC0000BFFFFFD00
7FC0000FFFFFF800
7F80001FF0000000
7F80002FF0000000
7F80007FF0000000
7F8000BFF0000000
3FC001FFF4000000
2FE002FBFC000078
1FF81FE3FF401BFC
0BFFFFC1FFFFFFF4
02FFFF007FFFFF90
006FE40006FFE400
ENDCHAR
STARTCHAR Ccedilla
ENCODING 199
SWIDTH 686 0
DWIDTH 19 0
BBX 22 31 1 -7
BITMAP
00006BF90000
0006FFFF8000
001FFFFFE000
007FE41FF400
01FF4007F800
03FD0003F800
0BF80007F800
0FF00007F400
1FE00007F000
2FD000014000
3FD000000000
3FC000000000
3FC000000000
7FC000000000
7FC000000000
3FC000000000
3FD000000000
2FE000000000
1FF400000000
0BFD000006E0
03FF9405BFE0
01FFFFFFFFD0
002FFFFFFE00
000BFFFE9000
000BFF400000
00001F800000
00000FC00000
00002F800000
003FFF400000
007FFE000000
002FE4000000
ENDCHAR
STARTCHAR Egrave
ENCODING 200
SWIDTH 686 0
DWIDTH 19 0
BBX 22 33 1 0
BITMAP
001400000000
007F40000000
007FD0000000
002FF8000000
0007FE000000
00007F800000
000007800000
000000000000
000000000000
00016FF90000
001BFFFFD000
007FFFFFF000
01FFD01BF800
03FE0003FC00
07FC0002FC00
07F80003FC00
07F80003F800
03FD0002F000
02FF50000000
007FFF400000
006FFF400000
06FFFF000000
1FFD40000000
7FD000000000
BF8000000000
FF0000000000
FF0000000000
FF4000000000
BFC0000006E0
7FF90016BFE0
1FFFFFFFFFD0
06FFFFFFFE00
005AFFFA4000
ENDCHAR
STARTCHAR Eacute
ENCODING 201
SWIDTH 686 0
DWIDTH 19 0
BBX 22 33 1 0
BITMAP
000000001400
00000001FD00
00000007FE00
0000001FFC00
000000BFD000
000002FE0000
000002E00000
000000000000
000000000000
00016FF90000
001BFFFFD000
007FFFFFF000
01FFD01BF800
03FE0003FC00
07FC0002FC00
07F80003FC00
07F80003F800
03FD0002F000
02FF50000000
007FFF400000
006FFF400000
06FFFF000000
1FFD40000000
7FD000000000
BF8000000000
FF0000000000
FF0000000000
FF4000000000
BFC0000006E0
7FF90016BFE0
1FFFFFFFFFD0
06FFFFFFFE00
005AFFFA4000
ENDCHAR
STARTCHAR Ecircumflex
ENCODING 202
SWIDTH 686 0
DWIDTH 19 0
BBX 22 34 1 0
BITMAP
000000500000
000007FC0000
00000FFE0000
00002FBF0000
00007F2F4000
0000FD1F8000
0001FC0FC000
0001F40B8000
000000000000
000000000000
00016FF90000
001BFFFFD000
007FFFFFF000
01FFD01BF800
03FE0003FC00
07FC0002FC00
07F80003FC00
07F80003F800
03FD0002F000
02FF50000000
007FFF400000
006FFF400000
06FFFF000000
1FFD40000000
7FD000000000
BF8000000000
FF0000000000
FF0000000000
FF4000000000
BFC0000006E0
7FF90016BFE0
1FFFFFFFFFD0
06FFFFFFFE00
005AFFFA4000
ENDCHAR
STARTCHAR Edieresis
ENCODING 203
SWIDTH 686 0
DWIDTH 19 0
BBX 22 30 1 0
BITMAP
0000BD0B8000
0001FE2FE000
0001FE2FD000
0000B80F8000
000000000000
000000000000
00016FF90000
001BFFFFD000
007FFFFFF000
01FFD01BF800
03FE0003FC00
07FC0002FC00
07F80003FC00
07F80003F800
03FD0002F000
02FF50000000
007FFF400000
006FFF400000
06FFFF000000
1FFD40000000
7FD000000000
BF8000000000
FF0000000000
FF0000000000
FF4000000000
BFC0000006E0
7FF90016BFE0
1FFFFFFFFFD0
06FFFFFFFE00
005AFFFA4000
ENDCHAR
STARTCHAR Igrave
ENCODING 204
SWIDTH 495 0
DWIDTH 14 0
BBX 17 33 -1 0
BITMAP
0050000000
02F8000000
03FE000000
01FFD00000
006FF40000
0006FD0000
00006D0000
0000000000
0000000000
007FFFFF40
00FFFFFF40
00BFFFFE00
0000FF0000
0001FE0000
0001FE0000
0002FD0000
0002FD0000
0003FC0000
0003FC0000
0003F80000
0007F80000
0007F40000
000BF40000
000BF00000
000FF00000
000FF00000
001FE00000
001FE00000
002FD00000
002FD00000
1FFFFF8000
7FFFFFD000
7FFFFF8000
ENDCHAR
STARTCHAR Iacute
ENCODING 205
SWIDTH 495 0
DWIDTH 14 0
BBX 18 33 -1 0
BITMAP
0000000140
0000000BE0
0000002FF0
000001FFD0
000007FE40
00001FE400
00001E4000
0000000000
0000000000
007FFFFF40
00FFFFFF40
00BFFFFE00
0000FF0000
0001FE0000
0001FE0000
0002FD0000
0002FD0000
0003FC0000
0003FC0000
0003F80000
0007F80000
0007F40000
000BF40000
000BF00000
000FF00000
000FF00000
001FE00000
001FE00000
002FD00000
002FD00000
1FFFFF8000
7FFFFFD000
7FFFFF8000
ENDCHAR
STARTCHAR Icircumflex
ENCODING 206
SWIDTH 495 0
DWIDTH 14 0
BBX 17 34 -1 0
BITMAP
0000054000
00002FE000
0000BFF000
0001FEF400
0003F5FC00
000BF0FD00
000FD0BD00
000B807C00
0000000000
0000000000
007FFFFF40
00FFFFFF40
00BFFFFE00
0000FF0000
0001FE0000
0001FE0000
0002FD0000
0002FD0000
0003FC0000
0003FC0000
0003F80000
0007F80000
0007F40000
000BF40000
000BF00000
000FF00000
000FF00000
001FE00000
001FE00000
002FD00000
002FD00000
1FFFFF8000
7FFFFFD000
7FFFFF8000
ENDCHAR
STARTCHAR Idieresis
ENCODING 207
SWIDTH 495 0
DWIDTH 14 0
BBX 17 30 -1 0
BITMAP
0007E07D00
000FF0FF00
000FF0FF00
0007D0BD00
0000000000
0000000000
007FFFFF40
00FFFFFF40
00BFFFFE00
0000FF0000
0001FE0000
0001FE0000
0002FD0000
0002FD0000
0003FC0000
0003FC0000
0003F80000
0007F80000
0007F40000
000BF40000
000BF00000
000FF00000
000FF00000
001FE00000
001FE00000
002FD00000
002FD00000
1FFFFF8000
7FFFFFD000
7FFFFF8000
ENDCHAR
STARTCHAR Eth
ENCODING 208
SWIDTH 821 0
DWIDTH 23 0
BBX 23 24 0 0
BITMAP
0001BFFA4000
0003FFFFE400
0007FFFFFD00
000BF01BFF40
000FF000BFC0
001FE0003FE0
002FD0001FF0
003FC0000FF4
003F80000BF4
007F80000BF4
2FFFFFD00BF4
7FFFFFF00BF4
7FFFFFE00BF4
01FE00000FF0
02FD00001FF0
02FD00002FE0
03FC00003FC0
03FC0000BF80
03F80002FF00
07F8000BFD00
07F805BFF400
07FFFFFF9000
07FFFFFD0000
01BFFE900000
ENDCHAR
STARTCHAR Ntilde
ENCODING 209
SWIDTH 884 0
DWIDTH 25 0
BBX 29 32 0 0
BITMAP
0000005400000000
000001FE01F00000
000007FFD3F00000
00000FEBFFE00000
00000F82FFC00000
000005006E400000
0000000000000000
0000000000000000
006F9001BF900000
02FFF00BFFF40000
0FFFF42FFFF80000
3F87F4BE07FC0000
BD07F5F403FD0000
F407F6D003FD0000
A007FB8003FC0000
000BFB4003FC0000
000BFE0007F80000
000BFD000BF80000
000FFC000BF40000
000FF8000FF00000
001FF4001FF00000
001FF0001FE00000
001FE0002FD00000
002FE0002FD00000
002FD0003FC00000
003FC0003FC00000
003FC0003FC00740
007F80003FC01F40
007F80003FE0BF00
007F80001FFFFC00
007F40000BFFE000
002E000001BE4000
ENDCHAR
STARTCHAR Ograve
ENCODING 210
SWIDTH 816 0
DWIDTH 23 0
BBX 22 33 1 0
BITMAP
000500000000
002F80000000
003FE0000000
001FFD000000
0006FF400000
00006FD00000
000006D00000
000000000000
000000000000
00006BFA0000
0006FFFFE000
001FFFFFF800
007FE41BFE00
01FF4001FF40
03FD0000BF80
07F800007FC0
0FF000003FC0
1FE000003FD0
2FE000002FD0
3FD000002FD0
3FC000003FD0
3FC000003FC0
7FC000003FC0
7FC000007F80
3FC00000BF40
3FC00000FF00
2FD00002FE00
2FF00007FC00
0FF8001FF400
07FE41BFE000
02FFFFFF8000
007FFFF90000
0006FE900000
ENDCHAR
STARTCHAR Oacute
ENCODING 211
SWIDTH 816 0
DWIDTH 23 0
BBX 22 33 1 0
BITMAP
000000001400
00000000BE00
00000002FF00
0000000FFD00
0000007FE400
000000FE4000
000001E40000
000000000000
000000000000
00006BFA0000
0006FFFFE000
001FFFFFF800
007FE41BFE00
01FF4001FF40
03FD0000BF80
07F800007FC0
0FF000003FC0
1FE000003FD0
2FE000002FD0
3FD000002FD0
3FC000003FD0
3FC000003FC0
7FC000003FC0
7FC000007F80
3FC00000BF40
3FC00000FF00
2FD00002FE00
2FF00007FC00
0FF8001FF400
07FE41BFE000
02FFFFFF8000
007FFFF90000
0006FE900000
ENDCHAR
STARTCHAR Ocircumflex
ENCODING 212
SWIDTH 816 0
DWIDTH 23 0
BBX 22 34 1 0
BITMAP
000000540000
000002FE0000
000007FF0000
00001FEF8000
00002F9FC000
0000BF0FD000
0000FD0BE000
0000B807D000
000000000000
000000000000
00006BFA0000
0006FFFFE000
001FFFFFF800
007FE41BFE00
01FF4001FF40
03FD0000BF80
07F800007FC0
0FF000003FC0
1FE000003FD0
2FE000002FD0
3FD000002FD0
3FC000003FD0
3FC000003FC0
7FC000003FC0
7FC000007F80
3FC00000BF40
3FC00000FF00
2FD00002FE00
2FF00007FC00
0FF8001FF400
07FE41BFE000
02FFFFFF8000
007FFFF90000
0006FE900000
ENDCHAR
STARTCHAR Otilde
ENCODING 213
SWIDTH 816 0
DWIDTH 23 0
BBX 22 32 1 0
BITMAP
000015000000
00007F807C00
0001FFF4FC00
0002FAFFF800
0003E07FF000
0001401B9000
000000000000
000000000000
00006BFA0000
0006FFFFE000
001FFFFFF800
007FE41BFE00
01FF4001FF40
03FD0000BF80
07F800007FC0
0FF000003FC0
1FE000003FD0
2FE000002FD0
3FD000002FD0
3FC000003FD0
3FC000003FC0
7FC000003FC0
7FC000007F80
3FC00000BF40
3FC00000FF00
2FD00002FE00
2FF00007FC00
0FF8001FF400
07FE41BFE000
02FFFFFF8000
007FFFF90000
0006FE900000
ENDCHAR
STARTCHAR Odieresis
ENCODING 214
SWIDTH 816 0
DWIDTH 23 0
BBX 22 30 1 0
BITMAP
00007E07D000
0000FF0FF000
0000FF0FF000
00007D0BD000
000000000000
000000000000
00006BFA0000
0006FFFFE000
001FFFFFF800
007FE41BFE00
01FF4001FF40
03FD0000BF80
07F800007FC0
0FF000003FC0
1FE000003FD0
2FE000002FD0
3FD000002FD0
3FC000003FD0
3FC000003FC0
7FC000003FC0
7FC000007F80
3FC00000BF40
3FC00000FF00
2FD00002FE00
2FF00007FC00
0FF8001FF400
07FE41BFE000
02FFFFFF8000
007FFFF90000
0006FE900000
ENDCHAR
STARTCHAR multiply
ENCODING 215
SWIDTH 700 0
DWIDTH 20 0
BBX 14 13 3 2
BITMAP
05000040
1F8007E0
2FD01FE0
1FF47FC0
07FEFE00
01FFF800
00BFE000
00FFE000
07FFF800
1FF6FE00
7FC0FF40
FE003F80
78001E00
ENDCHAR
STARTCHAR Oslash
ENCODING 216
SWIDTH 816 0
DWIDTH 23 0
BBX 22 29 1 -3
BITMAP
0000002E0000
0000003F0000
00006BFF0000
0006FFFFE000
001FFFFFF800
007FE5FFFE00
01FF42FAFF40
03FD02F4BF80
07F803F07FC0
0FF407E03FC0
1FE00BD03FD0
2FD00BD02FD0
2FD00FC02FD0
3FC01F803FD0
3FC02F403FC0
3FC02F003FC0
7FC03F007F80
3FC07E00BF40
3FD0BD00FF00
2FD0FC02FE00
2FF0FC07FC00
0FF9F80FF400
07FFF5BFE000
02FFFFFF8000
00BFFFF90000
000BFE900000
000BD0000000
000FC0000000
000B80000000
ENDCHAR
STARTCHAR Ugrave
ENCODING 217
SWIDTH 890 0
DWIDTH 25 0
BBX 29 33 0 0
BITMAP
0000500000000000
0001FD0000000000
0001FF4000000000
0000FFE000000000
00001FF800000000
000001FE00000000
0000002E00000000
0000000000000000
0000000000000000
006FD00000B80000
02FFF40001FD0000
0FFFFC0002FD0000
3F97FC0002FD0000
BD03FC0003FD0000
F803FC0003FC0000
A003FC0007FC0000
0007F80007F80000
0007F8000BF80000
000BF4000FF40000
000FF4000FF40000
000FF0001FF00000
001FE0002FF00000
002FE0003FE00000
002FD0007FE00000
003FC000FFE00000
007FC001FFD00000
007F8003EFD00000
007F800BAFD00740
007F801F2FD01F40
007FD1BD2FE07F40
003FFFF81FFFFD00
001FFFE00BFFF400
0006FE4001BE4000
ENDCHAR
STARTCHAR Uacute
ENCODING 218
SWIDTH 890 0
DWIDTH 25 0
BBX 29 33 0 0
BITMAP
0000000000500000
0000000007F40000
000000001FF40000
00000000BFE00000
00000002FF400000
0000000BF4000000
0000000B40000000
0000000000000000
0000000000000000
006FD00000B80000
02FFF40001FD0000
0FFFFC0002FD0000
3F97FC0002FD0000
BD03FC0003FD0000
F803FC0003FC0000
A003FC0007FC0000
0007F80007F80000
0007F8000BF80000
000BF4000FF40000
000FF4000FF40000
000FF0001FF00000
001FE0002FF00000
002FE0003FE00000
002FD0007FE00000
003FC000FFE00000
007FC001FFD00000
007F8003EFD00000
007F800BAFD00740
007F801F2FD01F40
007FD1BD2FE07F40
003FFFF81FFFFD00
001FFFE00BFFF400
0006FE4001BE4000
ENDCHAR
STARTCHAR Ucircumflex
ENCODING 219
SWIDTH 890 0
DWIDTH 25 0
BBX 29 34 0 0
BITMAP
0000000140000000
0000001FF0000000
0000003FF8000000
000000BEFC000000
000001FCBD000000
000003F47E000000
00000BE07F000000
000007802E000000
0000000000000000
0000000000000000
006FD00000B80000
02FFF40001FD0000
0FFFFC0002FD0000
3F97FC0002FD0000
BD03FC0003FD0000
F803FC0003FC0000
A003FC0007FC0000
0007F80007F80000
0007F8000BF80000
000BF4000FF40000
000FF4000FF40000
000FF0001FF00000
001FE0002FF00000
002FE0003FE00000
002FD0007FE00000
003FC000FFE00000
007FC001FFD00000
007F8003EFD00000
007F800BAFD00740
007F801F2FD01F40
007FD1BD2FE07F40
003FFFF81FFFFD00
001FFFE00BFFF400
0006FE4001BE4000
ENDCHAR
STARTCHAR Udieresis
ENCODING 220
SWIDTH 890 0
DWIDTH 25 0
BBX 29 30 0 0
BITMAP
000002E02E000000
000007F8BF400000
00000BF8BF400000
000002E07E000000
0000000000000000
0000000000000000
006FD00000B80000
02FFF40001FD0000
0FFFFC0002FD0000
3F97FC0002FD0000
BD03FC0003FD0000
F803FC0003FC0000
A003FC0007FC0000
0007F80007F80000
0007F8000BF80000
000BF4000FF40000
000FF4000FF40000
000FF0001FF00000
001FE0002FF00000
002FE0003FE00000
002FD0007FE00000
003FC000FFE00000
007FC001FFD00000
007F8003EFD00000
007F800BAFD00740
007F801F2FD01F40
007FD1BD2FE07F40
003FFFF81FFFFD00
001FFFE00BFFF400
0006FE4001BE4000
ENDCHAR
STARTCHAR Yacute
ENCODING 221
SWIDTH 851 0
DWIDTH 24 0
BBX 27 41 0 -8
BITMAP
00000000005000
0000000002F800
000000000FF800
000000007FF400
00000001FF8000
00000007F80000
00000007800000
00000000000000
00000000000000
006FD00000B800
02FFF40001FD00
1FFFFC0002FD00
3F87FC0002FD00
BD03FC0003FC00
F403FC0003FC00
9003FC0007FC00
0007F8000BF800
000BF8000BF800
000BF4000FF400
000FF0001FF400
001FF0003FF000
001FE0007FF000
002FD000FFE000
002FD002EFE000
002FE007DFD000
001FF46F9FD000
000FFFFE1FD6B8
0007FFF82FFFF8
0001BF91BFFFF4
0000001FFFE900
000001FFBF8000
00000BF47F4000
00007F807F4000
0000FD00BF0000
0002F800FE0000
0003F401FD0000
0007F403F80000
0007F81FF40000
0003FFFFD00000
0001FFFF400000
00006FE4000000
ENDCHAR
STARTCHAR Thorn
ENCODING 222
SWIDTH 776 0
DWIDTH 22 0
BBX 21 29 1 -3
BITMAP
00000B800000
00002FD00000
00002FD00000
00003FC00000
00003FC00000
00007F800000
0001BFFE4000
001FFFFFF400
007FFFFFFD00
01FFFF47FF00
03FDFF00FF80
0BF0FF00BF80
1FD1FE007FC0
2F81FE007F80
3F42FD00BF80
7F02FD01FF00
7E02FC07FE00
BE17FD6FF800
BD3FFFFFE000
BD3FFFFE4000
BD1BFA900000
BD0BF4000000
BD0FF0000000
7E0FF0000000
7E1FE0000000
2F6FD0000000
1FFFC0000000
07FF80000000
01BE00000000
ENDCHAR
STARTCHAR germandbls
ENCODING 223
SWIDTH 596 0
DWIDTH 17 0
BBX 20 28 1 -6
BITMAP
0006FE4000
002FFFE000
00BFFFF800
02FE07FC00
07F801FC00
0BE001FC00
0FD002F800
1FC01BF000
2F807FD000
3F42FE0000
3F47F80000
7F4BF40000
7F0BF80000
7F07FE0000
7F02FFFA50
BF07FFFFF8
BF1FEBFEFD
BF3F42FC18
BF7F01FC00
BF3F96F800
BF2FFFF400
BF06FE8000
BE00000000
BE00000000
BE00000000
BE00000000
BE00000000
7D00000000
ENDCHAR
STARTCHAR agrave
ENCODING 224
SWIDTH 470 0
DWIDTH 13 0
BBX 16 24 1 0
BITMAP
01400000
07F00000
07F40000
03F80000
01FD0000
00BE0000
002F0000
000F8000
00074000
00000000
00000000
006F4000
02FFE800
0BFFFC00
1FF5FC00
3FC2FC00
7F42F800
BE03F400
FE07F40E
FE0BF43E
FE1FF5FD
BFFFFFF8
7FF8FFD0
1BE06E40
ENDCHAR
STARTCHAR aacute
ENCODING 225
SWIDTH 470 0
DWIDTH 13 0
BBX 16 24 1 0
BITMAP
00000500
00001F80
00003F80
00007F40
0000FE00
0001FC00
0002F400
0003D000
00038000
00000000
00000000
006F4000
02FFE800
0BFFFC00
1FF5FC00
3FC2FC00
7F42F800
BE03F400
FE07F40E
FE0BF43E
FE1FF5FD
BFFFFFF8
7FF8FFD0
1BE06E40
ENDCHAR
STARTCHAR acircumflex
ENCODING 226
SWIDTH 470 0
DWIDTH 13 0
BBX 16 24 1 0
BITMAP
0002F400
000BF800
000FFC00
002F7D00
007E7E00
00FD3F00
02F83F00
03F02F40
02D01E00
00000000
00000000
006F4000
02FFE800
0BFFFC00
1FF5FC00
3FC2FC00
7F42F800
BE03F400
FE07F40E
FE0BF43E
FE1FF5FD
BFFFFFF8
7FF8FFD0
1BE06E40
ENDCHAR
STARTCHAR atilde
ENCODING 227
SWIDTH 470 0
DWIDTH 13 0
BBX 16 21 1 0
BITMAP
00540000
01FE01E0
07FFD3F0
0BEBFFE0
0F81FF80
05006E00
00000000
00000000
006F4000
02FFE800
0BFFFC00
1FF5FC00
3FC2FC00
7F42F800
BE03F400
FE07F40E
FE0BF43E
FE1FF5FD
BFFFFFF8
7FF8FFD0
1BE06E40
ENDCHAR
STARTCHAR adieresis
ENCODING 228
SWIDTH 470 0
DWIDTH 13 0
BBX 16 19 1 0
BITMAP
01F81F40
03FC3FC0
03FC3F80
01F42F40
00000000
00000000
006F4000
02FFE800
0BFFFC00
1FF5FC00
3FC2FC00
7F42F800
BE03F400
FE07F40E
FE0BF43E
FE1FF5FD
BFFFFFF8
7FF8FFD0
1BE06E40
ENDCHAR
STARTCHAR aring
ENCODING 229
SWIDTH 470 0
DWIDTH 13 0
BBX 16 23 1 0
BITMAP
000BE400
002FFD00
007FFE00
00BD2F00
00BD2E00
007FFE00
003FFC00
000BE000
00000000
00000000
006F4000
02FFE800
0BFFFC00
1FF5FC00
3FC2FC00
7F42F800
BE03F400
FE07F40E
FE0BF43E
FE1FF5FD
BFFFFFF8
7FF8FFD0
1BE06E40
ENDCHAR
STARTCHAR ae
ENCODING 230
SWIDTH 653 0
DWIDTH 18 0
BBX 21 13 1 0
BITMAP
002BD2FD0000
02FFFFFF4000
0BFFFFFFC000
2FE4BE0FC000
3F81FC0FC000
BF02F82F8000
BE03F9BE0000
FE03FFF80780
FE07FE401F80
FF1FFE41BF40
BFFFBFFFFD00
3FFD2FFFF400
0BE406FE4000
ENDCHAR
STARTCHAR ccedilla
ENCODING 231
SWIDTH 368 0
DWIDTH 10 0
BBX 13 20 1 -7
BITMAP
01BE0000
0BFFC000
2FFFD000
7F8BD000
BF0BC000
FE0B8000
FD000000
FE000380
FE001FC0
BF81BF40
7FFFFE00
1FFFF400
0BFF4000
0BFF4000
002F8000
000F8000
002F8000
3FFF0000
7FFD0000
2FE40000
ENDCHAR
STARTCHAR egrave
ENCODING 232
SWIDTH 393 0
DWIDTH 11 0
BBX 14 24 1 0
BITMAP
05000000
1F800000
2FC00000
1FE00000
07F00000
02F40000
00FC0000
007D0000
001D0000
00000000
00000000
01BE4000
0BFFD000
2FFFE000
7F87E000
BF07E000
FD0BD000
FE7F8040
FFFD01E0
FF900BE0
BF417FD0
7FFFFF40
1FFFF800
02FF9000
ENDCHAR
STARTCHAR eacute
ENCODING 233
SWIDTH 393 0
DWIDTH 11 0
BBX 14 24 1 0
BITMAP
00001400
0000BD00
0000FE00
0002FD00
0003F400
0007E000
000FC000
001F4000
001D0000
00000000
00000000
01BE4000
0BFFD000
2FFFE000
7F87E000
BF07E000
FD0BD000
FE7F8040
FFFD01E0
FF900BE0
BF417FD0
7FFFFF40
1FFFF800
02FF9000
ENDCHAR
STARTCHAR ecircumflex
ENCODING 234
SWIDTH 393 0
DWIDTH 11 0
BBX 14 24 1 0
BITMAP
000B8000
002FE000
007FF000
00FEF400
01F5F400
03F1F800
0BD0FC00
0FC0FC00
0F40B800
00000000
00000000
01BE4000
0BFFD000
2FFFE000
7F87E000
BF07E000
FD0BD000
FE7F8040
FFFD01E0
FF900BE0
BF417FD0
7FFFFF40
1FFFF800
02FF9000
ENDCHAR
STARTCHAR edieresis
ENCODING 235
SWIDTH 393 0
DWIDTH 11 0
BBX 14 19 1 0
BITMAP
07D0BD00
0FF1FE00
0FE1FE00
0BD0B800
00000000
00000000
01BE4000
0BFFD000
2FFFE000
7F87E000
BF07E000
FD0BD000
FE7F8040
FFFD01E0
FF900BE0
BF417FD0
7FFFFF40
1FFFF800
02FF9000
ENDCHAR
STARTCHAR igrave
ENCODING 236
SWIDTH 246 0
DWIDTH 7 0
BBX 12 24 -1 0
BITMAP
140000
3F0000
7F4000
3F8000
1FD000
07E000
02F400
00F800
007400
000000
000000
00B800
02FC00
02F800
03F800
07F400
07F000
0BF004
0BE01D
0BE07D
0BF1FC
07FFF4
03FFD0
01BE00
ENDCHAR
STARTCHAR iacute
ENCODING 237
SWIDTH 246 0
DWIDTH 7 0
BBX 10 24 1 0
BITMAP
000500
001F80
003F80
007F40
00BE00
01FC00
02F400
03D000
038000
000000
000000
0B8000
2FC000
2F8000
3F8000
7F4000
7F0000
BF0040
BE01D0
BE07D0
BF1FC0
7FFF40
3FFD00
1BE000
ENDCHAR
STARTCHAR icircumflex
ENCODING 238
SWIDTH 246 0
DWIDTH 7 0
BBX 11 24 0 0
BITMAP
00BD00
01FF00
03FF40
0BDF40
1F8F80
3F4FC0
7E0FD0
FD0BD0
B40780
000000
000000
02E000
0BF000
0BE000
0FE000
1FD000
1FC000
2FC010
2F8074
2F81F4
2FC7F0
1FFFD0
0FFF40
06F800
ENDCHAR
STARTCHAR idieresis
ENCODING 239
SWIDTH 246 0
DWIDTH 7 0
BBX 11 19 0 0
BITMAP
7E07D0
FF0FF0
FF0FF0
7D0BD0
000000
000000
02E000
0BF000
0BE000
0FE000
1FD000
1FC000
2FC010
2F8074
2F81F4
2FC7F0
1FFFD0
0FFF40
06F800
ENDCHAR
STARTCHAR eth
ENCODING 240
SWIDTH 451 0
DWIDTH 13 0
BBX 14 26 1 0
BITMAP
02E40000
02FC0180
00FF0BD0
007FBFD0
001FFF40
002FF800
02FFF400
07FFF800
02D2FC00
0001FC00
0000FD00
0000FD00
0000FE00
01BEFE00
0BFFFE00
2FFFFE00
7F81FE00
BF00FE00
FE00FD00
FD01FD00
FD01FC00
FE03F800
BF4BF400
7FFFE000
1FFF8000
06F90000
ENDCHAR
STARTCHAR ntilde
ENCODING 241
SWIDTH 496 0
DWIDTH 14 0
BBX 17 21 1 0
BITMAP
0014000000
01FE40B000
03FFD2F400
0BEBFFE000
0FC1FFC000
05002E4000
0000000000
0000000000
0B80BD0000
2F83FF0000
2F4FFF0000
3F6FFE0000
7F7DFE0000
7FB8FD0000
BFF0FC0100
BFD1FC0740
BFC2F81F40
BF82FC7F00
7F42FFFD00
7F01FFF400
2E007E4000
ENDCHAR
STARTCHAR ograve
ENCODING 242
SWIDTH 451 0
DWIDTH 13 0
BBX 16 24 1 0
BITMAP
05000000
1F800000
2FC00000
1FD00000
0BF00000
02F40000
00F80000
007D0000
001D0000
00000000
00000000
01BE4000
0BFFE000
2FFFF400
7F8FF800
BF0FFC18
FE0BFFFD
FD03FFFD
FD01FFE4
FE01F800
BF47F400
7FFFE000
1FFF8000
06F90000
ENDCHAR
STARTCHAR oacute
ENCODING 243
SWIDTH 451 0
DWIDTH 13 0
BBX 16 24 1 0
BITMAP
00001400
0000BD00
0001FD00
0002FC00
0003F400
000BE000
000F8000
001F0000
001D0000
00000000
00000000
01BE4000
0BFFE000
2FFFF400
7F8FF800
BF0FFC18
FE0BFFFD
FD03FFFD
FD01FFE4
FE01F800
BF47F400
7FFFE000
1FFF8000
06F90000
ENDCHAR
STARTCHAR ocircumflex
ENCODING 244
SWIDTH 451 0
DWIDTH 13 0
BBX 16 24 1 0
BITMAP
000B8000
002FE000
007FF000
00FEF000
02F5F400
07F1F800
0BD1FC00
1FC0FC00
1F40B800
00000000
00000000
01BE4000
0BFFE000
2FFFF400
7F8FF800
BF0FFC18
FE0BFFFD
FD03FFFD
FD01FFE4
FE01F800
BF47F400
7FFFE000
1FFF8000
06F90000
ENDCHAR
STARTCHAR otilde
ENCODING 245
SWIDTH 451 0
DWIDTH 13 0
BBX 16 21 1 0
BITMAP
01500000
0BF80780
1FFE1F80
3F7FFF40
7D0BFE00
1401F800
00000000
00000000
01BE4000
0BFFE000
2FFFF400
7F8FF800
BF0FFC18
FE0BFFFD
FD03FFFD
FD01FFE4
FE01F800
BF47F400
7FFFE000
1FFF8000
06F90000
ENDCHAR
STARTCHAR odieresis
ENCODING 246
SWIDTH 451 0
DWIDTH 13 0
BBX 16 19 1 0
BITMAP
0BD0BC00
1FE1FE00
1FE1FD00
0B80B800
00000000
00000000
01BE4000
0BFFE000
2FFFF400
7F8FF800
BF0FFC18
FE0BFFFD
FD03FFFD
FD01FFE4
FE01F800
BF47F400
7FFFE000
1FFF8000
06F90000
ENDCHAR
STARTCHAR divide
ENCODING 247
SWIDTH 700 0
DWIDTH 20 0
BBX 16 15 2 0
BITMAP
0002F400
000BF800
000BF800
0002E000
00000000
00000000
7FFFFFFD
BFFFFFFE
7FFFFFFD
00000000
00000000
001F8000
003FD000
003FC000
001F4000
ENDCHAR
STARTCHAR oslash
ENCODING 248
SWIDTH 459 0
DWIDTH 13 0
BBX 16 21 1 -4
BITMAP
00010000
000B4000
000F0000
000F0000
01BF4000
0BFFE000
2FFFF800
7FAEFC00
BE3CFD19
FD3CFFFE
FD78FFFD
FD78FFA4
FEB5FC00
BFF6F800
7FFFF000
2FFFD000
07FE0000
02D00000
02D00000
03C00000
01400000
ENDCHAR
STARTCHAR ugrave
ENCODING 249
SWIDTH 462 0
DWIDTH 13 0
BBX 16 24 1 0
BITMAP
01400000
0BD00000
0BF00000
07F40000
02FC0000
00FD0000
007E0000
001F0000
000B0000
00000000
00000000
0BC07D00
1FC0FD00
2F81FC00
3F42F800
7F43F800
7F07F400
BF0BF404
BE1FF01D
BE3FF07D
BFFBF1FC
7FF7FFF4
3FE3FFD0
1F81FA00
ENDCHAR
STARTCHAR uacute
ENCODING 250
SWIDTH 462 0
DWIDTH 13 0
BBX 16 24 1 0
BITMAP
00000500
00003F40
00007F40
0000BF00
0001FD00
0002F800
0003E000
000BC000
00074000
00000000
00000000
0BC07D00
1FC0FD00
2F81FC00
3F42F800
7F43F800
7F07F400
BF0BF404
BE1FF01D
BE3FF07D
BFFBF1FC
7FF7FFF4
3FE3FFD0
1F81FA00
ENDCHAR
STARTCHAR ucircumflex
ENCODING 251
SWIDTH 462 0
DWIDTH 13 0
BBX 16 24 1 0
BITMAP
0002E000
000FF400
002FF800
003EBC00
00BDBD00
01F87D00
03F47E00
07E03F00
07C02E00
00000000
00000000
0BC07D00
1FC0FD00
2F81FC00
3F42F800
7F43F800
7F07F400
BF0BF404
BE1FF01D
BE3FF07D
BFFBF1FC
7FF7FFF4
3FE3FFD0
1F81FA00
ENDCHAR
STARTCHAR udieresis
ENCODING 252
SWIDTH 462 0
DWIDTH 13 0
BBX 16 19 1 0
BITMAP
02F42E00
07F87F40
07F8BF40
02E03E00
00000000
00000000
0BC07D00
1FC0FD00
2F81FC00
3F42F800
7F43F800
7F07F400
BF0BF404
BE1FF01D
BE3FF07D
BFFBF1FC
7FF7FFF4
3FE3FFD0
1F81FA00
ENDCHAR
STARTCHAR yacute
ENCODING 253
SWIDTH 479 0
DWIDTH 13 0
BBX 17 37 0 -13
BITMAP
0000014000
00000FD000
00001FD000
00002FC000
00007F4000
0000BE0000
0000F80000
0002F00000
0001D00000
0000000000
0000000000
02F01F4000
07F03F4000
0BE07F0000
0FD0BF0000
1FD0FE0000
1FC1FE0000
2FC2FD0100
2F87FD0B40
2F8FFC7F40
2FFFFEFE00
1FFEFFF400
0FF9FF9000
07E2FE0000
000BF40000
002FF00000
00FFF00000
03FBE00000
0BDBD00000
2F4FC00000
7D1F800000
BC2F400000
F83F000000
F8BE000000
FFFC000000
BFF4000000
2F90000000
ENDCHAR
STARTCHAR thorn
ENCODING 254
SWIDTH 508 0
DWIDTH 14 0
BBX 18 31 0 -9
BITMAP
00BC000000
01FD000000
02FC000000
02FC000000
03F8000000
03F4000000
07F4000000
0BF0000000
0BE0000000
0FE0BE0000
0FD3FF8000
0FDBFFC000
1FEE2FC000
1FFC1FC000
2FF41FC000
2FF02FC050
2FE03F81E0
3FD0BF07E0
3FC2FE1FD0
3FEFFFFF40
3FFFFFFD00
3FF91BE000
3F40000000
7F40000000
7F00000000
7F00000000
7F00000000
7F00000000
7F00000000
7F00000000
3E00000000
ENDCHAR
STARTCHAR ydieresis
ENCODING 255
SWIDTH 479 0
DWIDTH 13 0
BBX 17 32 0 -13
BITMAP
00BD0B8000
01FE1FD000
01FE2FD000
00B80F8000
0000000000
0000000000
02F01F4000
07F03F4000
0BE07F0000
0FD0BF0000
1FD0FE0000
1FC1FE0000
2FC2FD0100
2F87FD0B40
2F8FFC7F40
2FFFFEFE00
1FFEFFF400
0FF9FF9000
07E2FE0000
000BF40000
002FF00000
00FFF00000
03FBE00000
0BDBD00000
2F4FC00000
7D1F800000
BC2F400000
F83F000000
F8BE000000
FFFC000000
BFF4000000
2F90000000
ENDCHAR
STARTCHAR Amacron
ENCODING 256
SWIDTH 786 0
DWIDTH 22 0
BBX 25 29 1 0
BITMAP
000001FFFF0000
000002FFFF4000
000001FFFE0000
00000000000000
00000000000000
000001AFFE9000
00006FFFFFF400
0002FFFFFFF400
000FFE50069000
003FF400140000
00FF8001FD0000
02FE0002FD0000
07FC0002FD0000
0BF40003FC0000
1FF00007F80000
2FE00007F80000
3FD0000BF40000
3FC0000FF40000
7FC0001FF00000
7F80001FF00000
7F80002FE00000
7F80007FE00000
7FC000BFE00000
3FC001FFE00780
2FE003FFE00F80
1FF81FDFF47F40
0BFFFF4FFFFD00
02FFFE07FFF400
006FE401BF8000
ENDCHAR
STARTCHAR amacron
ENCODING 257
SWIDTH 470 0
DWIDTH 13 0
BBX 16 18 1 0
BITMAP
01FFFF00
02FFFF00
01FFFE00
00000000
00000000
006F4000
02FFE800
0BFFFC00
1FF5FC00
3FC2FC00
7F42F800
BE03F400
FE07F40E
FE0BF43E
FE1FF5FD
BFFFFFF8
7FF8FFD0
1BE06E40
ENDCHAR
STARTCHAR Abreve
ENCODING 258
SWIDTH 786 0
DWIDTH 22 0
BBX 25 31 1 0
BITMAP
000007D002E000
00000BF41BF000
000007FFFFD000
000001FFFF8000
0000006FF90000
00000000000000
00000000000000
000001AFFE9000
00006FFFFFF400
0002FFFFFFF400
000FFE50069000
003FF400140000
00FF8001FD0000
02FE0002FD0000
07FC0002FD0000
0BF40003FC0000
1FF00007F80000
2FE00007F80000
3FD0000BF40000
3FC0000FF40000
7FC0001FF00000
7F80001FF00000
7F80002FE00000
7F80007FE00000
7FC000BFE00000
3FC001FFE00780
2FE003FFE00F80
1FF81FDFF47F40
0BFFFF4FFFFD00
02FFFE07FFF400
006FE401BF8000
ENDCHAR
STARTCHAR abreve
ENCODING 259
SWIDTH 470 0
DWIDTH 13 0
BBX 16 21 1 0
BITMAP
078002D0
0BE007E0
0BF41FD0
03FFFFC0
01FFFF00
002FE400
00000000
00000000
006F4000
02FFE800
0BFFFC00
1FF5FC00
3FC2FC00
7F42F800
BE03F400
FE07F40E
FE0BF43E
FE1FF5FD
BFFFFFF8
7FF8FFD0
1BE06E40
ENDCHAR
STARTCHAR Aogonek
ENCODING 260
SWIDTH 786 0
DWIDTH 22 0
BBX 25 31 1 -7
BITMAP
000001AFFE9000
00006FFFFFF400
0002FFFFFFF400
000FFE50069000
003FF400140000
00FF8001FD0000
02FE0002FD0000
07FC0002FD0000
0BF40003FC0000
1FF00007F80000
2FE00007F80000
3FD0000BF40000
3FC0000FF40000
7FC0001FF00000
7F80001FF00000
7F80002FE00000
7F80007FE00000
7FC000BFE00000
3FC001FFE00740
2FE003FFE00F80
1FF81FEFF47F40
0BFFFF4FFFFD00
02FFFE07FFF400
006FE401FF8000
00000001FD0000
00000003F40000
00000007E00000
00000007F00000
00000003FEB000
00000001FFF000
000000006F9000
ENDCHAR
STARTCHAR aogonek
ENCODING 261
SWIDTH 470 0
DWIDTH 13 0
BBX 16 20 1 -7
BITMAP
006F4000
02FFE800
0BFFFC00
1FF5FC00
3FC2F800
7F42F800
BE03F400
FE07F41E
FE0BF07E
FE1FF9FD
BFFFFFF8
7FF8FFE0
1BE1FF40
0003F800
000BD000
000FC000
000FC000
000BFA90
0007FFD0
0001BF80
ENDCHAR
STARTCHAR Cacute
ENCODING 262
SWIDTH 686 0
DWIDTH 19 0
BBX 22 33 1 0
BITMAP
000000001400
00000000BE00
00000002FF00
0000001FFD00
0000007FE400
000001FE4000
000001E40000
000000000000
000000000000
00006BF90000
0006FFFF8000
001FFFFFE000
007FE41FF400
01FF4007F800
03FD0003F800
0BF80007F800
0FF00007F400
1FE00007F000
2FD000014000
3FD000000000
3FC000000000
3FC000000000
7FC000000000
7FC000000000
3FC000000000
3FD000000000
2FE000000000
1FF400000000
0BFD000006E0
03FF9405BFE0
00FFFFFFFFD0
002FFFFFFE00
0001BFFA5000
ENDCHAR
STARTCHAR cacute
ENCODING 263
SWIDTH 368 0
DWIDTH 10 0
BBX 13 24 1 0
BITMAP
00001400
0000BD00
0001FD00
0002FC00
0003F400
000BE000
000F8000
001F0000
001D0000
00000000
00000000
01BE0000
0BFFC000
2FFFD000
7F8BD000
BF0BC000
FE0B8000
FD000000
FE000380
FE001FC0
BF81BF40
7FFFFE00
1FFFF400
06FE4000
ENDCHAR
STARTCHAR Ccircumflex
ENCODING 264
SWIDTH 686 0
DWIDTH 19 0
BBX 22 34 1 0
BITMAP
000000540000
000002FE0000
00000BFF0000
00001FEF4000
00003F5FC000
0000BF0FD000
0000FD0BD000
0000B807C000
000000000000
000000000000
00006BF90000
0006FFFF8000
001FFFFFE000
007FE41FF400
01FF4007F800
03FD0003F800
0BF80007F800
0FF00007F400
1FE00007F000
2FD000014000
3FD000000000
3FC000000000
3FC000000000
7FC000000000
7FC000000000
3FC000000000
3FD000000000
2FE000000000
1FF400000000
0BFD000006E0
03FF9405BFE0
00FFFFFFFFD0
002FFFFFFE00
0001BFFA5000
ENDCHAR
STARTCHAR ccircumflex
ENCODING 265
SWIDTH 368 0
DWIDTH 10 0
BBX 13 24 1 0
BITMAP
000B8000
002FE000
007FE000
00FEF000
02F5F400
07F1F800
0BD1F800
1F80FC00
1F40B800
00000000
00000000
01BE0000
0BFFC000
2FFFD000
7F8BD000
BF0BC000
FE0B8000
FD000000
FE000380
FE001FC0
BF81BF40
7FFFFE00
1FFFF400
06FE4000
ENDCHAR
STARTCHAR Cdotaccent
ENCODING 266
SWIDTH 686 0
DWIDTH 19 0
BBX 22 30 1 0
BITMAP
000002F80000
000007FD0000
00000BFD0000
000002F40000
000000000000
000000000000
00006BF90000
0006FFFF8000
001FFFFFE000
007FE41FF400
01FF4007F800
03FD0003F800
0BF80007F800
0FF00007F400
1FE00007F000
2FD000014000
3FD000000000
3FC000000000
3FC000000000
7FC000000000
7FC000000000
3FC000000000
3FD000000000
2FE000000000
1FF400000000
0BFD000006E0
03FF9405BFE0
00FFFFFFFFD0
002FFFFFFE00
0001BFFA5000
ENDCHAR
STARTCHAR cdotaccent
ENCODING 267
SWIDTH 368 0
DWIDTH 10 0
BBX 13 19 1 0
BITMAP
002F4000
00BFC000
00FFC000
007E4000
00000000
00000000
01BE0000
0BFFC000
2FFFD000
7F8BD000
BF0BC000
FE0B8000
FD000000
FE000380
FE001FC0
BF81BF40
7FFFFE00
1FFFF400
06FE4000
ENDCHAR
STARTCHAR Ccaron
ENCODING 268
SWIDTH 686 0
DWIDTH 19 0
BBX 22 33 1 0
BITMAP
00003D01F000
00007E03F000
00003F0BD000
00001F9F8000
00000FFF0000
000007FD0000
000002F40000
000000000000
000000000000
00006BF90000
0006FFFF8000
001FFFFFE000
007FE41FF400
01FF4007F800
03FD0003F800
0BF80007F800
0FF00007F400
1FE00007F000
2FD000014000
3FD000000000
3FC000000000
3FC000000000
7FC000000000
7FC000000000
3FC000000000
3FD000000000
2FE000000000
1FF400000000
0BFD000006E0
03FF9405BFE0
00FFFFFFFFD0
002FFFFFFE00
0001BFFA5000
ENDCHAR
STARTCHAR ccaron
ENCODING 269
SWIDTH 368 0
DWIDTH 10 0
BBX 13 24 1 0
BITMAP
02E01F00
03F03F00
03F07E00
02F4FC00
01F5F400
01FBF000
00FFD000
00BF8000
003E0000
00000000
00000000
01BE0000
0BFFC000
2FFFD000
7F8BD000
BF0BC000
FE0B8000
FD000000
FE000380
FE001FC0
BF81BF40
7FFFFE00
1FFFF400
06FE4000
ENDCHAR
STARTCHAR Dcaron
ENCODING 270
SWIDTH 836 0
DWIDTH 23 0
BBX 22 33 1 0
BITMAP
0000F4078000
0001F81FC000
0000FC2F4000
00007D7E0000
00003FFC0000
00001FF40000
00000BD00000
000000000000
000000000000
0016FFE90000
02FFFFFFD000
2FFFFFFFF800
7FF9405FFE00
BE400002FF40
64000000BFC0
003F80003FD0
007F80002FE0
00BF40001FE0
00FF00001FF0
00FE00001FF0
01FE00001FE0
02FD00001FE0
02FD00002FE0
03FC00003FD0
03FC00007FC0
07F80000BF80
07F80001FF00
0BF40007FE00
0BF4001FF800
0FF406FFE000
0FFFFFFF8000
0FFFFFF80000
06BFFA400000
ENDCHAR
STARTCHAR dcaron
ENCODING 271
SWIDTH 470 0
DWIDTH 13 0
BBX 18 26 1 0
BITMAP
0000000140
00000007E0
0000000BE0
00000BDBD0
00001FDBC0
00002FDF80
00002FCB40
00003F8000
00003F8000
00003F4000
00007F0000
00007F0000
0000BE0000
006FBE0000
02FFFD0000
0BFFFD0000
1FF5FC0000
3FC2F80000
7F42F80000
BE03F40000
FE07F40E00
FE0BF43E00
FE1FF5FD00
BFFFFFF800
7FF8FFD000
1BE06E4000
ENDCHAR
STARTCHAR Dcroat
ENCODING 272
SWIDTH 821 0
DWIDTH 23 0
BBX 23 24 0 0
BITMAP
0001BFFA4000
0003FFFFE400
0007FFFFFD00
000BF01BFF40
000FF000BFC0
001FE0003FE0
002FD0001FF0
003FC0000FF4
003F80000BF4
007F80000BF4
2FFFFFD00BF4
7FFFFFF00BF4
7FFFFFE00BF4
01FE00000FF0
02FD00001FF0
02FD00002FE0
03FC00003FC0
03FC0000BF80
03F80002FF00
07F8000BFD00
07F805BFF400
07FFFFFF9000
07FFFFFD0000
01BFFE900000
ENDCHAR
STARTCHAR dcroat
ENCODING 273
SWIDTH 470 0
DWIDTH 13 0
BBX 16 23 1 0
BITMAP
00000BD0
00001FD0
00002FC0
00002FC0
01FFFFF4
01FFFFF4
01FFFFD0
00007F00
00007F00
0000BE00
006FBE00
02FFFD00
0BFFFC00
1FF5FC00
3FC2F800
7F42F800
BE03F400
FE07F40E
FE0BF43E
FE1FF5FD
BFFFFFF8
7FF8FFD0
1BE06E40
ENDCHAR
STARTCHAR Emacron
ENCODING 274
SWIDTH 686 0
DWIDTH 19 0
BBX 22 29 1 0
BITMAP
0000BFFF8000
0000FFFF8000
0000BFFF4000
000000000000
000000000000
00016FF90000
001BFFFFD000
007FFFFFF000
01FFD01BF800
03FE0003FC00
07FC0002FC00
07F80003FC00
07F80003F800
03FD0002F000
02FF50000000
007FFF400000
006FFF400000
06FFFF000000
1FFD40000000
7FD000000000
BF8000000000
FF0000000000
FF0000000000
FF4000000000
BFC0000006E0
7FF90016BFE0
1FFFFFFFFFD0
06FFFFFFFE00
005AFFFA4000
ENDCHAR
STARTCHAR emacron
ENCODING 275
SWIDTH 393 0
DWIDTH 11 0
BBX 14 18 1 0
BITMAP
0BFFF800
0FFFFC00
0BFFF800
00000000
00000000
01BE4000
0BFFD000
2FFFE000
7F87E000
BF07E000
FD0BD000
FE7F8040
FFFD01E0
FF900BE0
BF417FD0
7FFFFF40
1FFFF800
02FF9000
ENDCHAR
STARTCHAR Ebreve
ENCODING 276
SWIDTH 686 0
DWIDTH 19 0
BBX 22 31 1 0
BITMAP
0002E001B400
0003F807F400
0002FFFFF000
0000FFFFC000
00001BF90000
000000000000
000000000000
00016FF90000
001BFFFFD000
007FFFFFF000
01FFD01BF800
03FE0003FC00
07FC0002FC00
07F80003FC00
07F80003F800
03FD0002F000
02FF50000000
007FFF400000
006FFF400000
06FFFF000000
1FFD40000000
7FD000000000
BF8000000000
FF0000000000
FF0000000000
FF4000000000
BFC0000006E0
7FF90016BFE0
1FFFFFFFFFD0
06FFFFFFFE00
005AFFFA4000
ENDCHAR
STARTCHAR ebreve
ENCODING 277
SWIDTH 393 0
DWIDTH 11 0
BBX 14 21 1 0
BITMAP
1E000B40
3F402F80
2FD0BF40
1FFFFE00
07FFF800
01BF9000
00000000
00000000
01BE4000
0BFFD000
2FFFE000
7F87E000
BF07E000
FD0BD000
FE7F8040
FFFD01E0
FF900BE0
BF417FD0
7FFFFF40
1FFFF800
02FF9000
ENDCHAR
STARTCHAR Edotaccent
ENCODING 278
SWIDTH 686 0
DWIDTH 19 0
BBX 22 30 1 0
BITMAP
000006F40000
00000FFC0000
00000FFC0000
000007E40000
000000000000
000000000000
00016FF90000
001BFFFFD000
007FFFFFF000
01FFD01BF800
03FE0003FC00
07FC0002FC00
07F80003FC00
07F80003F800
03FD0002F000
02FF50000000
007FFF400000
006FFF400000
06FFFF000000
1FFD40000000
7FD000000000
BF8000000000
FF0000000000
FF0000000000
FF4000000000
BFC0000006E0
7FF90016BFE0
1FFFFFFFFFD0
06FFFFFFFE00
005AFFFA4000
ENDCHAR
STARTCHAR edotaccent
ENCODING 279
SWIDTH 393 0
DWIDTH 11 0
BBX 14 19 1 0
BITMAP
002F4000
00BFC000
00BFC000
006F4000
00000000
00000000
01BE4000
0BFFD000
2FFFE000
7F87E000
BF07E000
FD0BD000
FE7F8040
FFFD01E0
FF900BE0
BF417FD0
7FFFFF40
1FFFF800
02FF9000
ENDCHAR
STARTCHAR Eogonek
ENCODING 280
SWIDTH 686 0
DWIDTH 19 0
BBX 22 31 1 -7
BITMAP
00016FF90000
001BFFFFD000
007FFFFFF000
01FFD01BF800
03FE0003FC00
07FC0002FC00
07F80003FC00
07F80003F800
03FD0002F000
02FF50000000
007FFF400000
006FFF400000
06FFFF000000
1FFD40000000
7FD000000000
BF8000000000
FF0000000000
FF0000000000
FF4000000000
FFC0000006E0
7FF90016BFE0
2FFFFFFFFFD0
07FFFFFFFD00
006BFFE94000
00003F000000
00007D000000
0000BD000000
0000BE040000
00007FFE0000
00003FFE0000
00000BF80000
ENDCHAR
STARTCHAR eogonek
ENCODING 281
SWIDTH 393 0
DWIDTH 11 0
BBX 14 20 1 -7
BITMAP
01BE4000
0BFFD000
2FFFE000
7F87E000
BF07E000
FE0BD000
FD6F8000
FFFE00D0
FFE407E0
BF002FD0
7FEAFF40
2FFFFD00
07FFD000
00BD0000
01F80000
02F40000
02F40000
02FEA400
00FFF800
002FE000
ENDCHAR
STARTCHAR Ecaron
ENCODING 282
SWIDTH 686 0
DWIDTH 19 0
BBX 22 33 1 0
BITMAP
00007802D000
0000BD0BE000
00007E1FC000
00002F2F4000
00001FBE0000
00000BF80000
000002E00000
000000000000
000000000000
00016FF90000
001BFFFFD000
007FFFFFF000
01FFD01BF800
03FE0003FC00
07FC0002FC00
07F80003FC00
07F80003F800
03FD0002F000
02FF50000000
007FFF400000
006FFF400000
06FFFF000000
1FFD40000000
7FD000000000
BF8000000000
FF0000000000
FF0000000000
FF4000000000
BFC0000006E0
7FF90016BFE0
1FFFFFFFFFD0
06FFFFFFFE00
005AFFFA4000
ENDCHAR
STARTCHAR ecaron
ENCODING 283
SWIDTH 393 0
DWIDTH 11 0
BBX 14 24 1 0
BITMAP
02E01F40
03F03F40
03F47E00
02F4FD00
01F5F800
00FBF000
00FFD000
00BF8000
002E0000
00000000
00000000
01BE4000
0BFFD000
2FFFE000
7F87E000
BF07E000
FD0BD000
FE7F8040
FFFD01E0
FF900BE0
BF417FD0
7FFFFF40
1FFFF800
02FF9000
ENDCHAR
STARTCHAR Gcircumflex
ENCODING 284
SWIDTH 811 0
DWIDTH 23 0
BBX 25 47 1 -13
BITMAP
00000014000000
000001FF000000
000007FF400000
00000BEFC00000
00002FCBD00000
00007F4BE00000
0000BE07F00000
00007802D00000
00000000000000
00000000000000
00002BFE400000
0002FFFFE00000
001FFFFFF40000
007FE407FC0000
01FF4002FD0000
03FD0001FD0000
0BF80001FD0000
0FF00002FD0000
1FE00002FC0000
2FD00000A40000
3FD00000000000
3FC00000000000
3FC00000000000
7FC00000000000
7FC000BFFE0000
3FC000FFFF0000
3FD000BFFF0000
2FE00000BE0000
1FF40000BE0240
0BFD0000FE1F80
03FF9006FDBF40
01FFFFFFFFFD00
002FFFFFFFE000
0001BFEAFF4000
00000007FC0000
0000002FF80000
000000BFF40000
000002FBF00000
00000BD7E00000
00001F8BE00000
00003E0FD00000
00007D1F800000
0000BC2F400000
0000BC7F000000
0000BFFD000000
00007FF8000000
00001B90000000
ENDCHAR
STARTCHAR gcircumflex
ENCODING 285
SWIDTH 479 0
DWIDTH 13 0
BBX 17 37 0 -13
BITMAP
0000BD0000
0002FE0000
0003FF0000
000BDF4000
001F9F8000
003F4FC000
00BE0FC000
00FC0BD000
00B4078000
0000000000
0000000000
001BD00000
00BFFA0000
02FFFF0000
07FD7F0000
0FF0BE0000
1FD0BE0000
2F80FD0000
3F81FD0B40
3F82FC7F40
3F87FEFE00
2FFFFFF800
1FFFFFD000
06F6FE0000
000BF40000
003FF00000
01FFF00000
03FBE00000
0FDBD00000
2F4FC00000
7E1F800000
BC2F400000
F83F000000
FCBE000000
FFFC000000
BFF4000000
2F90000000
ENDCHAR
STARTCHAR Gbreve
ENCODING 286
SWIDTH 811 0
DWIDTH 23 0
BBX 25 44 1 -13
BITMAP
0000B4007C0000
0001FD02FC0000
0000FFFFF80000
00007FFFE00000
00000AFE400000
00000000000000
00000000000000
00002BFE400000
0002FFFFE00000
001FFFFFF40000
007FE407FC0000
01FF4002FD0000
03FD0001FD0000
0BF80001FD0000
0FF00002FD0000
1FE00002FC0000
2FD00000A40000
3FD00000000000
3FC00000000000
3FC00000000000
7FC00000000000
7FC000BFFE0000
3FC000FFFF0000
3FD000BFFF0000
2FE00000BE0000
1FF40000BE0240
0BFD0000FE1F80
03FF9006FDBF40
01FFFFFFFFFD00
002FFFFFFFE000
0001BFEAFF4000
00000007FC0000
0000002FF80000
000000BFF40000
000002FBF00000
00000BD7E00000
00001F8BE00000
00003E0FD00000
00007D1F800000
0000BC2F400000
0000BC7F000000
0000BFFD000000
00007FF8000000
00001B90000000
ENDCHAR
STARTCHAR gbreve
ENCODING 287
SWIDTH 479 0
DWIDTH 13 0
BBX 17 34 0 -13
BITMAP
01E000B400
02F801F800
02FD07F400
00FFFFF000
007FFFC000
000BF90000
0000000000
0000000000
001BD00000
00BFFA0000
02FFFF0000
07FD7F0000
0FF0BE0000
1FD0BE0000
2F80FD0000
3F81FD0B40
3F82FC7F40
3F87FEFE00
2FFFFFF800
1FFFFFD000
06F6FE0000
000BF40000
003FF00000
01FFF00000
03FBE00000
0FDBD00000
2F4FC00000
7E1F800000
BC2F400000
F83F000000
FCBE000000
FFFC000000
BFF4000000
2F90000000
ENDCHAR
STARTCHAR Gdotaccent
ENCODING 288
SWIDTH 811 0
DWIDTH 23 0
BBX 25 43 1 -13
BITMAP
000001B9000000
000003FE000000
000003FE000000
000002F8000000
00000000000000
00000000000000
00002BFE400000
0002FFFFE00000
001FFFFFF40000
007FE407FC0000
01FF4002FD0000
03FD0001FD0000
0BF80001FD0000
0FF00002FD0000
1FE00002FC0000
2FD00000A40000
3FD00000000000
3FC00000000000
3FC00000000000
7FC00000000000
7FC000BFFE0000
3FC000FFFF0000
3FD000BFFF0000
2FE00000BE0000
1FF40000BE0240
0BFD0000FE1F80
03FF9006FDBF40
01FFFFFFFFFD00
002FFFFFFFE000
0001BFEAFF4000
00000007FC0000
0000002FF80000
000000BFF40000
000002FBF00000
00000BD7E00000
00001F8BE00000
00003E0FD00000
00007D1F800000
0000BC2F400000
0000BC7F000000
0000BFFD000000
00007FF8000000
00001B90000000
ENDCHAR
STARTCHAR gdotaccent
ENCODING 289
SWIDTH 479 0
DWIDTH 13 0
BBX 17 32 0 -13
BITMAP
0002F80000
0007FD0000
000BFD0000
0002F40000
0000000000
0000000000
001BD00000
00BFFA0000
02FFFF0000
07FD7F0000
0FF0BE0000
1FD0BE0000
2F80FD0000
3F81FD0B40
3F82FC7F40
3F87FEFE00
2FFFFFF800
1FFFFFD000
06F6FE0000
000BF40000
003FF00000
01FFF00000
03FBE00000
0FDBD00000
2F4FC00000
7E1F800000
BC2F400000
F83F000000
FCBE000000
FFFC000000
BFF4000000
2F90000000
ENDCHAR
STARTCHAR uni0122
ENCODING 290
SWIDTH 811 0
DWIDTH 23 0
BBX 25 37 1 -13
BITMAP
00002BFE400000
0002FFFFE00000
001FFFFFF40000
007FE407FC0000
01FF4002FD0000
03FD0001FD0000
0BF80001FD0000
0FF00002FD0000
1FE00002FC0000
2FD00000A40000
3FD00000000000
3FC00000000000
3FC00000000000
7FC00000000000
7FC000BFFE0000
3FC000FFFF0000
3FD000BFFF0000
2FE00000BE0000
1FF40000BE0240
0BFD0000FE1F80
03FF9006FDBF40
01FFFFFFFFFD00
002FFFFFFFE000
0001BFEAFF4000
00000007FC0000
002E002FF80000
007F00BFF40000
007F02FBF00000
007E0BD7E00000
007D1F8BE00000
00383E0FD00000
00007D1F800000
0000BC2F400000
0000BC7F000000
0000BFFD000000
00007FF8000000
00001B90000000
ENDCHAR
STARTCHAR uni0123
ENCODING 291
SWIDTH 479 0
DWIDTH 13 0
BBX 17 35 0 -13
BITMAP
0000B80000
0000FC0000
0001FC0000
0001F80000
0001F40000
0001F00000
0001E00000
0000000000
0000000000
001BD00000
00BFFA0000
02FFFF0000
07FD7F0000
0FF0BE0000
1FD0BE0000
2F80FD0000
3F81FD0B40
3F82FC7F40
3F87FEFE00
2FFFFFF800
1FFFFFD000
06F6FE0000
000BF40000
003FF00000
01FFF00000
03FBE00000
0FDBD00000
2F4FC00000
7E1F800000
BC2F400000
F83F000000
FCBE000000
FFFC000000
BFF4000000
2F90000000
ENDCHAR
STARTCHAR Hcircumflex
ENCODING 292
SWIDTH 873 0
DWIDTH 24 0
BBX 29 34 -1 0
BITMAP
0000000050000000
00000007FC000000
0000001FFD000000
0000003FBE000000
000000BE3F400000
000001FD2F800000
000002F81F800000
000001E00B400000
0000000000000000
000000000006F400
001BE400002FFC00
01FFFC00007FFD00
07FFFE0000FE3E00
1FD1FE0002FC2E00
3F00FF0003F42E00
7D00FF0007F03D00
7400FF000BE07C00
0000FF000FD0B800
0000FE001FD1F400
0001FE002FCBE000
0001FD002FFF8000
0001FE557FFD0000
00BFFFFFFFE00000
01FFFFFFFF800000
00FFFE957F800000
0007F8007F400000
000BF4007F800000
000BF0007F800000
000FF0003F8002C0
001FE0003FC00BC0
002FD0002FE46F80
002FC0000FFFFE00
003F800007FFF800
001F400000BF9000
ENDCHAR
STARTCHAR hcircumflex
ENCODING 293
SWIDTH 502 0
DWIDTH 14 0
BBX 17 36 1 0
BITMAP
0000540000
0003FD0000
000BFE0000
001FAF4000
007F5F8000
00BE1FC000
01FC0FD000
01F4078000
0000000000
0000000000
000BE00000
002FF40000
00BFFC0000
01FCFC0000
02F4BC0000
03F0BC0000
07E0F80000
0BD1F40000
0FC2F00000
1FC3D00000
2F8BC00000
2F9F400000
2FBD000000
3FF87E0000
3FF2FF0000
7FCBFF0000
7F5FFF0000
7F3EBE0000
7FB8BD0000
7FF0FD0000
7FE1FC0780
7FD1FC1F80
BFC1FC7F40
BF81FFFD00
7F40FFF400
3D007F8000
ENDCHAR
STARTCHAR Hbar
ENCODING 294
SWIDTH 856 0
DWIDTH 24 0
BBX 24 24 1 0
BITMAP
002F40000B80
007F80002FD0
007F80002FD0
00BF40002FD0
0AFFFFFFFFF9
1FFFFFFFFFFE
1FFFFFFFFFF9
00FF00007F80
01FE00007F40
01FE0000BF40
2FFFFFFFFFF4
7FFFFFFFFFF8
7FFFFFFFFFF4
03F80001FE00
07F80001FD00
07F40002FD00
0BF40002FC00
0BF40003FC00
0FF00003FC00
0FF00007F800
0FF00007F800
1FE00007F800
1FE00007F400
0B800002E000
ENDCHAR
STARTCHAR hbar
ENCODING 295
SWIDTH 502 0
DWIDTH 14 0
BBX 17 23 1 0
BITMAP
00BC000000
01FD000000
02FC000000
03F8000000
6FFFF80000
7FFFFD0000
2FFFFC0000
0FE0000000
1FD0000000
1FD0000000
2FC07E0000
2F82FF0000
3F8BFF0000
3F5FFF0000
3F7EBE0000
7FB8BD0000
7FF0FD0000
7FE1FC0780
7FD1FC1F80
7FC1FC7F40
7F81FFFD00
3F40FFF400
2E007F8000
ENDCHAR
STARTCHAR Itilde
ENCODING 296
SWIDTH 495 0
DWIDTH 14 0
BBX 17 32 -1 0
BITMAP
0001500000
0007F807C0
001FFF4FC0
003FAFFF80
003E07FF00
001401B900
0000000000
0000000000
007FFFFF40
00FFFFFF40
00BFFFFE00
0000FF0000
0001FE0000
0001FE0000
0002FD0000
0002FD0000
0003FC0000
0003FC0000
0003F80000
0007F80000
0007F40000
000BF40000
000BF00000
000FF00000
000FF00000
001FE00000
001FE00000
002FD00000
002FD00000
1FFFFF8000
7FFFFFD000
7FFFFF8000
ENDCHAR
STARTCHAR itilde
ENCODING 297
SWIDTH 246 0
DWIDTH 7 0
BBX 12 21 -1 0
BITMAP
054000
1FE01F
3FFD3F
BEBFFE
F81FFC
5002E0
000000
000000
00B800
02FC00
02F800
03F800
07F400
07F000
0BF004
0BE01D
0BE07D
0BF1FC
07FFF4
03FFD0
01BE00
ENDCHAR
STARTCHAR Imacron
ENCODING 298
SWIDTH 495 0
DWIDTH 14 0
BBX 17 29 -1 0
BITMAP
0007FFFC00
000BFFFD00
0007FFF800
0000000000
0000000000
007FFFFF40
00FFFFFF40
00BFFFFE00
0000FF0000
0001FE0000
0001FE0000
0002FD0000
0002FD0000
0003FC0000
0003FC0000
0003F80000
0007F80000
0007F40000
000BF40000
000BF00000
000FF00000
000FF00000
001FE00000
001FE00000
002FD00000
002FD00000
1FFFFF8000
7FFFFFD000
7FFFFF8000
ENDCHAR
STARTCHAR imacron
ENCODING 299
SWIDTH 246 0
DWIDTH 7 0
BBX 11 18 0 0
BITMAP
7FFFC0
BFFFD0
7FFF80
000000
000000
02E000
0BF000
0BE000
0FE000
1FD000
1FC000
2FC010
2F8074
2F81F4
2FC7F0
1FFFD0
0FFF40
06F800
ENDCHAR
STARTCHAR Ibreve
ENCODING 300
SWIDTH 495 0
DWIDTH 14 0
BBX 17 31 -1 0
BITMAP
001F400B80
002FD06F80
001FFFFF40
000BFFFD00
0001BFA000
0000000000
0000000000
007FFFFF40
00FFFFFF40
00BFFFFE00
0000FF0000
0001FE0000
0001FE0000
0002FD0000
0002FD0000
0003FC0000
0003FC0000
0003F80000
0007F80000
0007F40000
000BF40000
000BF00000
000FF00000
000FF00000
001FE00000
001FE00000
002FD00000
002FD00000
1FFFFF8000
7FFFFFD000
7FFFFF8000
ENDCHAR
STARTCHAR ibreve
ENCODING 301
SWIDTH 246 0
DWIDTH 7 0
BBX 12 21 -1 0
BITMAP
7C002E
BE007E
7F81FE
3FFFFC
1FFFF4
02FE40
000000
000000
00B800
02FC00
02F800
03F800
07F400
07F000
0BF004
0BE01D
0BE07D
0BF1FC
07FFF4
03FFD0
01BE00
ENDCHAR
STARTCHAR Iogonek
ENCODING 302
SWIDTH 495 0
DWIDTH 14 0
BBX 17 31 -1 -7
BITMAP
007FFFFF40
00FFFFFF40
00BFFFFE00
0000FF0000
0001FE0000
0001FE0000
0002FD0000
0002FD0000
0003FC0000
0003FC0000
0003F80000
0007F80000
0007F40000
000BF40000
000BF00000
000FF00000
000FF00000
001FE00000
001FE00000
002FD00000
002FD00000
1FFFFF8000
7FFFFFD000
7FFFFF8000
007E000000
00FC000000
00F8000000
01FD140000
00FFFD0000
007FFC0000
001BE40000
ENDCHAR
STARTCHAR iogonek
ENCODING 303
SWIDTH 246 0
DWIDTH 7 0
BBX 11 26 0 -7
BITMAP
02F800
07FD00
07FD00
02F400
000000
000000
02E000
07F000
0BE000
0FE000
1FD000
1FC000
2FC000
2F8074
2F81F4
2FC7F0
1FFFD0
0FFF40
0BF800
1FD000
3F4000
3E0000
7E0000
3FAA00
2FFF00
06F900
ENDCHAR
STARTCHAR Idotaccent
ENCODING 304
SWIDTH 495 0
DWIDTH 14 0
BBX 17 30 -1 0
BITMAP
00002F8000
00007FD000
0000BFD000
00002F4000
0000000000
0000000000
007FFFFF40
00FFFFFF40
00BFFFFE00
0000FF0000
0001FE0000
0001FE0000
0002FD0000
0002FD0000
0003FC0000
0003FC0000
0003F80000
0007F80000
0007F40000
000BF40000
000BF00000
000FF00000
000FF00000
001FE00000
001FE00000
002FD00000
002FD00000
1FFFFF8000
7FFFFFD000
7FFFFF8000
ENDCHAR
STARTCHAR dotlessi
ENCODING 305
SWIDTH 246 0
DWIDTH 7 0
BBX 10 13 1 0
BITMAP
0B8000
2FC000
2F8000
3F8000
7F4000
7F0000
BF0040
BE01D0
BE07D0
BF1FC0
7FFF40
3FFD00
1BE000
ENDCHAR
STARTCHAR Jcircumflex
ENCODING 308
SWIDTH 743 0
DWIDTH 21 0
BBX 20 36 2 -2
BITMAP
0000054000
00002FD000
0000BFF000
0001FEF400
0003F5F800
000BE0FC00
001FD0BD00
000F407800
0000000000
0000000000
001AFFFE90
02FFFFFFFD
1FFFFFFFFD
7FE5001FF4
BF00000FF0
FD00001FE0
FD00001FE0
FE00001FD0
BF00002FD0
2D00002FC0
0000003FC0
000002FF80
00002FFF80
0001FFFF40
000BFDBF00
003FD0FF00
00FF40FE00
02FC01FD00
07F402FC00
0BF003F800
0BE00BF000
0FE01FE000
0BF47FC000
07FFFF4000
02FFFD0000
007F900000
ENDCHAR
STARTCHAR jcircumflex
ENCODING 309
SWIDTH 254 0
DWIDTH 7 0
BBX 17 37 -7 -13
BITMAP
000002F400
000007FC00
00000FFC00
00002F7D00
00007E7E00
0000FD3F00
0001F83F00
0003F42F40
0002D01E00
0000000000
0000000000
00001F8000
00002F8000
00002F8000
00003F8000
00003F4000
00003F4000
00007F0000
00007F02C0
00007F1FC0
0000BEBF80
0000BFFD00
0000FFE000
0000FF4000
0002FC0000
000FFC0000
007FF80000
01FAF40000
03E3F00000
0BC7F00000
1F47E00000
3E0FD00000
7D1F800000
7E3F400000
7FFE000000
3FFC000000
0BE0000000
ENDCHAR
STARTCHAR uni0136
ENCODING 310
SWIDTH 937 0
DWIDTH 26 0
BBX 30 32 0 -8
BITMAP
0006BFE50001F800
007FFFFF4003FC00
01FFFFFF8007F800
07FD02FE000BF400
0BE002FD000FF000
0FD003FC001FE000
0FD003FC003FC000
0FD003F800BF8000
0FE007F801FF0000
0BE007F403FD0000
02D00BF41FF40000
00000BF5BFD00000
0000BFFFFE000000
0000FFFFE4000000
0000BFFFF8000000
00001FE6FE000000
00001FD0FF800000
00002FD07FC00000
2C003FC03FE000A0
7E007F801FF402E0
3F91FF400FFD1BD0
2FFFFE0007FFFF80
0BFFF80001FFFE00
01BF9000006FE400
0000000000000000
0000000000000000
0000007D00000000
000000BE00000000
000000BE00000000
000000BD00000000
000000BC00000000
0000007400000000
ENDCHAR
STARTCHAR uni0137
ENCODING 311
SWIDTH 525 0
DWIDTH 15 0
BBX 18 35 1 -9
BITMAP
000BE00000
002FF40000
00BFFC0000
01FCFC0000
02F4BC0000
03F0BC0000
07E0F80000
0BD1F40000
0FC2F00000
1FC3D00000
2F8B800000
2F9F000000
2FBD000000
3FF4BE0000
3FE2FF8000
7F8FFFD000
7F2F5FD000
7F7D1FC000
7FB82F8000
7FF1BF4040
7FE7FD02D0
7FCBF00BD0
7F87F82F80
7F83FFFF00
3F41FFF800
2E006F9000
0000000000
0000000000
00B8000000
01FC000000
01FC000000
01F8000000
01F4000000
01F0000000
01E0000000
ENDCHAR
STARTCHAR kgreenlandic
ENCODING 312
SWIDTH 465 0
DWIDTH 13 0
BBX 16 13 1 0
BITMAP
0B81BE00
2F8BFF80
2F5FFFC0
3F7F8BC0
7F7E0FC0
7FBD0B40
BFFD0000
BFFD001E
BFFE007E
BFFF41FD
7F6FFFF4
7F0BFFD0
2E01BE00
ENDCHAR
STARTCHAR Lacute
ENCODING 313
SWIDTH 673 0
DWIDTH 19 0
BBX 24 33 -1 0
BITMAP
000000000050
0000000007F4
000000001FF8
000000007FF0
00000002FF80
0000000BF800
0000000B8000
000000000000
000000000000
000001BFE400
00001BFFFE00
00007FFFFF80
0001FF907FD0
0003FD001FD0
0007F8001FE0
000FF4001FD0
000FF0001FD0
001FE0001F80
001FE0000500
002FD0000000
002FD0000000
002FD0000000
002FD0000000
002FC0000000
002FC0000000
003FC0000000
003F80000008
1BFFD400002D
7FFFFFE405FD
FFFFFFFFFFF8
FFFDBFFFFFF0
BFF806FFFF80
2F90006BF900
ENDCHAR
STARTCHAR lacute
ENCODING 314
SWIDTH 326 0
DWIDTH 9 0
BBX 16 35 1 0
BITMAP
00000014
000000FD
000007FE
00001FFC
0000BFE0
0002FE00
0001E000
00000000
00000000
000BE000
002FF400
00BFF800
01FCFC00
02F4BC00
03F0BC00
07E0BC00
0BD0F800
0FC0F400
1FC1F400
2F82F000
2F83D000
3F4BC000
3F4F8000
7F1F0000
7F3E0000
7FBC0000
7FF40000
7FE00000
7FD00000
7F401E00
3F407E00
2F81FD00
1FFFF400
0BFFD000
02FE0000
ENDCHAR
STARTCHAR uni013B
ENCODING 315
SWIDTH 673 0
DWIDTH 19 0
BBX 24 32 -1 -8
BITMAP
000001BFE400
00001BFFFE00
00007FFFFF80
0001FF907FD0
0003FD001FD0
0007F8001FE0
000FF4001FD0
000FF0001FD0
001FE0001F80
001FE0000500
002FD0000000
002FD0000000
002FD0000000
002FD0000000
002FC0000000
002FC0000000
003FC0000000
003F80000008
1BFFD400002D
7FFFFFE405FD
FFFFFFFFFFF8
FFFDBFFFFFF0
BFF806FFFF80
2F90006BF900
000000000000
000000000000
000078000000
0000BD000000
0000FD000000
0000FC000000
0000F8000000
0000B4000000
ENDCHAR
STARTCHAR uni013C
ENCODING 316
SWIDTH 326 0
DWIDTH 9 0
BBX 12 35 1 -9
BITMAP
000BE0
002FF4
00BFF8
01FCFC
02F4BC
03F0BC
07E0BC
0BD0F8
0FC0F4
1FC1F4
2F82F0
2F83D0
3F4BC0
3F4F80
7F1F00
7F3E00
7FBC00
7FF400
7FE000
7FD000
7F401E
3F407E
2F81FD
1FFFF4
0BFFD0
02FE00
000000
000000
07D000
0BE000
0BD000
0FC000
0FC000
0F8000
0B0000
ENDCHAR
STARTCHAR Lcaron
ENCODING 317
SWIDTH 673 0
DWIDTH 19 0
BBX 26 24 -1 0
BITMAP
000001BFE40040
00001BFFFE03F0
00007FFFFF87F0
0001FF907FD7E0
0003FD001FD7D0
0007F8001FEBC0
000FF4001FD740
000FF0001FD000
001FE0001F8000
001FE000050000
002FD000000000
002FD000000000
002FD000000000
002FD000000000
002FC000000000
002FC000000000
003FC000000000
003F8000000800
1BFFD400002D00
7FFFFFE405FD00
FFFFFFFFFFF800
FFFDBFFFFFF000
BFF806FFFF8000
2F90006BF90000
ENDCHAR
STARTCHAR lcaron
ENCODING 318
SWIDTH 237 0
DWIDTH 7 0
BBX 11 26 1 0
BITMAP
000014
0000FC
0001FC
01B9FC
02FDF8
03F9F4
07F9E0
07F400
0BF000
0FF000
0FE000
1FD000
1FC000
2FC000
3F8000
3F4000
7F4000
7F0000
7F0000
BE0040
BE02D0
BE0BC0
BE2F80
BFFE00
7FF800
1FD000
ENDCHAR
STARTCHAR Ldot
ENCODING 319
SWIDTH 673 0
DWIDTH 19 0
BBX 24 24 -1 0
BITMAP
000001BFE400
00001BFFFE00
00007FFFFF80
0001FF907FD0
0003FD001FD0
0007F8001FE0
000FF4001FD0
000FF0001FD0
001FE0001F80
001FE0000500
002FD0000000
002FD06F4000
002FD0FFC000
002FD0FF8000
002FC07E4000
002FC0000000
003FC0000000
003F80000008
1BFFD400002D
7FFFFFE405FD
FFFFFFFFFFF8
FFFDBFFFFFF0
BFF806FFFF80
2F90006BF900
ENDCHAR
STARTCHAR ldot
ENCODING 320
SWIDTH 363 0
DWIDTH 10 0
BBX 13 26 1 0
BITMAP
007D0000
00FE0000
01FE0000
01FD0000
02FC0000
03F80000
07F80000
07F40000
0BF00000
0FE00000
0FE00000
1FD7E000
2FDFF400
2FDFF400
3F8BD000
3F400000
7F400000
7F000000
BF000000
BF000140
BF000780
BF401F80
7FD1BF40
3FFFFD00
1FFFF400
02FE4000
ENDCHAR
STARTCHAR Lslash
ENCODING 321
SWIDTH 673 0
DWIDTH 19 0
BBX 24 28 -1 0
BITMAP
0000016BFF90
00002FFFFFF4
0000FFFFFFF4
0001FF940040
000054000000
000001BFE400
00001FFFFE00
00007FFFFF80
0001FF907FD0
0003FD001FD0
000BF8001FE0
000FF0001FD0
001FE0001FD0
001FE0001F80
001FE0000000
002FD0000000
002FD0000000
002FD0000000
002FC0000000
002FC0000000
003FC0000000
003F80000008
1BFFD400002D
7FFFFFE405FD
FFFFFFFFFFF8
FFFDBFFFFFF0
BFF806FFFF80
2F90006BF900
ENDCHAR
STARTCHAR lslash
ENCODING 322
SWIDTH 326 0
DWIDTH 9 0
BBX 16 28 1 0
BITMAP
0006BFE4
00BFFFFD
03FFFFFD
07F94000
000BE000
007FF400
00FFF800
02F8FC00
03F4BC00
0BE0BC00
0FD0F800
1FC0F800
1F81F400
2F82F000
3F43E000
3F4BC000
7F1F8000
7F2F0000
7F7D0000
7FF80000
7FF00000
7FD00000
7F401E00
3F407E00
2F81FD00
1FFFF400
0BFFD000
02FE0000
ENDCHAR
STARTCHAR Nacute
ENCODING 323
SWIDTH 884 0
DWIDTH 25 0
BBX 29 33 0 0
BITMAP
0000000000500000
0000000002F80000
000000000BFC0000
000000007FF40000
00000001FF900000
00000007F9000000
0000000790000000
0000000000000000
0000000000000000
006F9001BF900000
02FFF00BFFF40000
0FFFF42FFFF80000
3F87F4BE07FC0000
BD07F5F403FD0000
F407F6D003FD0000
A007FB8003FC0000
000BFB4003FC0000
000BFE0007F80000
000BFD000BF80000
000FFC000BF40000
000FF8000FF00000
001FF4001FF00000
001FF0001FE00000
001FE0002FD00000
002FE0002FD00000
002FD0003FC00000
003FC0003FC00000
003FC0003FC00740
007F80003FC01F40
007F80003FE0BF00
007F80001FFFFC00
007F40000BFFE000
002E000001BE4000
ENDCHAR
STARTCHAR nacute
ENCODING 324
SWIDTH 496 0
DWIDTH 14 0
BBX 17 24 1 0
BITMAP
0000050000
00001F8000
00002FC000
00007F8000
0000BE0000
0000FC0000
0002F40000
0003E00000
0003800000
0000000000
0000000000
0B80BD0000
2F83FF0000
2F4FFF0000
3F6FFE0000
7F7DFE0000
7FB8FD0000
BFF0FC0100
BFD1FC0740
BFC2F81F40
BF82FC7F00
7F42FFFD00
7F01FFF400
2E007E4000
ENDCHAR
STARTCHAR uni0145
ENCODING 325
SWIDTH 884 0
DWIDTH 25 0
BBX 29 32 0 -8
BITMAP
006F9001BF900000
02FFF00BFFF40000
0FFFF42FFFF80000
3F87F4BE07FC0000
BD07F5F403FD0000
F407F6D003FD0000
A007FB8003FC0000
000BFB4003FC0000
000BFE0007F80000
000BFD000BF80000
000FFC000BF40000
000FF8000FF00000
001FF4001FF00000
001FF0001FE00000
001FE0002FD00000
002FE0002FD00000
002FD0003FC00000
003FC0003FC00000
003FC0003FC00740
007F80003FC01F40
007F80003FE0BF00
007F80001FFFFC00
007F40000BFFE000
002E000001BE4000
0000000000000000
0000000000000000
000007C000000000
00000BE000000000
00000FD000000000
00000FC000000000
00000F8000000000
00000B4000000000
ENDCHAR
STARTCHAR uni0146
ENCODING 326
SWIDTH 496 0
DWIDTH 14 0
BBX 17 22 1 -9
BITMAP
0B80BD0000
2F83FF0000
2F4FFF0000
3F6FFE0000
7F7DFE0000
7FB8FD0000
BFF0FC0100
BFD1FC0740
BFC2F81F40
BF82FC7F00
7F42FFFD00
7F01FFF400
2E007E4000
0000000000
0000000000
00B8000000
01FC000000
01FC000000
01F8000000
01F4000000
01F0000000
01E0000000
ENDCHAR
STARTCHAR Ncaron
ENCODING 327
SWIDTH 884 0
DWIDTH 25 0
BBX 29 33 0 0
BITMAP
000000F407C00000
000001F81FC00000
000000FC2F400000
0000007D7E000000
0000003FFC000000
0000001FF4000000
0000000BD0000000
0000000000000000
0000000000000000
006F9001BF900000
02FFF00BFFF40000
0FFFF42FFFF80000
3F87F4BE07FC0000
BD07F5F403FD0000
F407F6D003FD0000
A007FB8003FC0000
000BFB4003FC0000
000BFE0007F80000
000BFD000BF80000
000FFC000BF40000
000FF8000FF00000
001FF4001FF00000
001FF0001FE00000
001FE0002FD00000
002FE0002FD00000
002FD0003FC00000
003FC0003FC00000
003FC0003FC00740
007F80003FC01F40
007F80003FE0BF00
007F80001FFFFC00
007F40000BFFE000
002E000001BE4000
ENDCHAR
STARTCHAR ncaron
ENCODING 328
SWIDTH 496 0
DWIDTH 14 0
BBX 17 24 1 0
BITMAP
007C02E000
00BD07E000
007E0FD000
007E2F8000
003F3F0000
002FBD0000
001FF80000
001FF40000
000BD00000
0000000000
0000000000
0B80BD0000
2F83FF0000
2F4FFF0000
3F6FFE0000
7F7DFE0000
7FB8FD0000
BFF0FC0100
BFD1FC0740
BFC2F81F40
BF82FC7F00
7F42FFFD00
7F01FFF400
2E007E4000
ENDCHAR
STARTCHAR napostrophe
ENCODING 329
SWIDTH 496 0
DWIDTH 14 0
BBX 18 22 0 0
BITMAP
7C00000000
FD00000000
FD00000000
FC00000000
F800000000
F400000000
E000000000
0000000000
0000000000
02E02F4000
0BE0FFC000
0BD3FFC000
0FDBFF8000
1FDF7F8000
1FEE3F4000
2FFC3F0040
2FF47F01D0
2FF0BE07D0
2FE0BF1FC0
1FD0BFFF40
1FC07FFD00
0B801F9000
ENDCHAR
STARTCHAR Eng
ENCODING 330
SWIDTH 884 0
DWIDTH 25 0
BBX 29 34 0 -10
BITMAP
006F9001BF800000
02FFF00BFFF00000
1FFFF42FFFF80000
3F87F4BE0BFC0000
BD07F5F403FC0000
F407F7D003FC0000
A007FB8003FC0000
000BFB4007FC0000
000BFE0007F80000
000BFD000BF40000
000FFC000BF40000
000FF8000FF00000
001FF4001FF00000
001FF0001FE00000
001FE0002FD00000
002FE0002FC00000
002FD0003FC00000
003FC0007F800000
003FC0007F400740
007F8000BF401F40
007F8000FF907F00
007F8000FFFFFC00
007F4001FFFFF000
002E0002FDBF4000
00000002FC000000
00000003F8000000
00000007F4000000
0000000BE0000000
0029000FD0000000
007F402FC0000000
003FD0BF40000000
002FFFFE00000000
000BFFF800000000
0001BF9000000000
ENDCHAR
STARTCHAR eng
ENCODING 331
SWIDTH 495 0
DWIDTH 14 0
BBX 17 22 1 -9
BITMAP
0B80BD0000
2F83FF0000
2F4FFF0000
3F6FFE0000
7F7DFE0000
7FB8FD0000
BFF0FC0100
BFD1FC0740
BFC2F81F40
BF82F4BF00
7F43FFFD00
7F03FFF400
2E07FE4000
000BD00000
000FC00000
000F800000
001F400000
B43F000000
F87D000000
FEFC000000
7FF4000000
2F80000000
ENDCHAR
STARTCHAR Omacron
ENCODING 332
SWIDTH 816 0
DWIDTH 23 0
BBX 22 29 1 0
BITMAP
00007FFFC000
0000BFFFD000
00007FFF8000
000000000000
000000000000
00006BFA0000
0006FFFFE000
001FFFFFF800
007FE41BFE00
01FF4001FF40
03FD0000BF80
07F800007FC0
0FF000003FC0
1FE000003FD0
2FE000002FD0
3FD000002FD0
3FC000003FD0
3FC000003FC0
7FC000003FC0
7FC000007F80
3FC00000BF40
3FC00000FF00
2FD00002FE00
2FF00007FC00
0FF8001FF400
07FE41BFE000
02FFFFFF8000
007FFFF90000
0006FE900000
ENDCHAR
STARTCHAR omacron
ENCODING 333
SWIDTH 451 0
DWIDTH 13 0
BBX 16 18 1 0
BITMAP
0BFFF800
0FFFFC00
0BFFF400
00000000
00000000
01BE4000
0BFFE000
2FFFF400
7F8FF800
BF0FFC18
FE0BFFFD
FD03FFFD
FD01FFE4
FE01F800
BF47F400
7FFFE000
1FFF8000
06F90000
ENDCHAR
STARTCHAR Obreve
ENCODING 334
SWIDTH 816 0
DWIDTH 23 0
BBX 22 31 1 0
BITMAP
0001F400B800
0002FD06F800
0001FFFFF400
0000BFFFD000
00001BFE0000
000000000000
000000000000
00006BFA0000
0006FFFFE000
001FFFFFF800
007FE41BFE00
01FF4001FF40
03FD0000BF80
07F800007FC0
0FF000003FC0
1FE000003FD0
2FE000002FD0
3FD000002FD0
3FC000003FD0
3FC000003FC0
7FC000003FC0
7FC000007F80
3FC00000BF40
3FC00000FF00
2FD00002FE00
2FF00007FC00
0FF8001FF400
07FE41BFE000
02FFFFFF8000
007FFFF90000
0006FE900000
ENDCHAR
STARTCHAR obreve
ENCODING 335
SWIDTH 451 0
DWIDTH 13 0
BBX 16 21 1 0
BITMAP
2E000B40
3F402F40
3FD0BF40
1FFFFE00
0BFFF800
01BF9000
00000000
00000000
01BE4000
0BFFE000
2FFFF400
7F8FF800
BF0FFC18
FE0BFFFD
FD03FFFD
FD01FFE4
FE01F800
BF47F400
7FFFE000
1FFF8000
06F90000
ENDCHAR
STARTCHAR Ohungarumlaut
ENCODING 336
SWIDTH 816 0
DWIDTH 23 0
BBX 22 33 1 0
BITMAP
000001405000
00000BD1F400
00000FE2F800
00001FC3F400
00001F87E000
00002F0BC000
00002D0B4000
000000000000
000000000000
00006BFA0000
0006FFFFE000
001FFFFFF800
007FE41BFE00
01FF4001FF40
03FD0000BF80
07F800007FC0
0FF000003FC0
1FE000003FD0
2FE000002FD0
3FD000002FD0
3FC000003FD0
3FC000003FC0
7FC000003FC0
7FC000007F80
3FC00000BF40
3FC00000FF00
2FD00002FE00
2FF00007FC00
0FF8001FF400
07FE41BFE000
02FFFFFF8000
007FFFF90000
0006FE900000
ENDCHAR
STARTCHAR ohungarumlaut
ENCODING 337
SWIDTH 451 0
DWIDTH 13 0
BBX 16 24 1 0
BITMAP
00140500
007F0FC0
00BF1FC0
00BE2F80
00FD3F40
01F87E00
02F0BC00
03D0F400
0380A000
00000000
00000000
01BE4000
0BFFE000
2FFFF400
7F8FF800
BF0FFC18
FE0BFFFD
FD03FFFD
FD01FFE4
FE01F800
BF47F400
7FFFE000
1FFF8000
06F90000
ENDCHAR
STARTCHAR OE
ENCODING 338
SWIDTH 1124 0
DWIDTH 31 0
BBX 34 24 1 0
BITMAP
00006BF9001BFFFE00
0006FFFFD07FFFFF40
001FFFFFF4FFFFFF00
007FE41BFDFFFFFE00
01FF4001FFFD000000
03FD0000BFFD000000
07F800007FFC000000
0FF400003FF8000000
1FE000003FF4000000
2FE000002FF4000000
3FD000002FF0000000
3FC000003FFFFFF000
3FC000003FFFFFF400
7FC000003FFFFFE000
7FC000007FD0000000
3FC00000BFC0000000
3FC00000FFC0000000
2FD00002FFC0000000
2FF00007FFD0000000
0FF8001FFFF00001A0
07FE41BFDFFD406FF0
02FFFFFF47FFFFFFD0
007FFFF901FFFFFE40
0006FE90001BFF9000
ENDCHAR
STARTCHAR oe
ENCODING 339
SWIDTH 668 0
DWIDTH 19 0
BBX 22 13 1 0
BITMAP
01BE01BE0000
0BFFDBFFC000
2FFFFFFFD000
7F87FF4BD000
BF02FE0BD000
FE01FD1FC000
FD01FDBF4040
FD02FFF902D0
FE03FF900BD0
BF4BFF41BF80
7FFFFFFFFE00
1FFF5FFFF800
06F902FE8000
ENDCHAR
STARTCHAR Racute
ENCODING 340
SWIDTH 880 0
DWIDTH 25 0
BBX 28 33 1 0
BITMAP
00000000050000
000000002F8000
00000000FF8000
00000007FF4000
0000001FF80000
0000007F800000
00000079000000
00000000000000
00000000000000
00001BFF900000
0002FFFFFD0000
001FFFFFFF4000
007FE406FFC000
01FE00007FD000
03F806402FE000
0BF02F802FE000
0FD03F802FE000
1F807F802FD000
2F40BF407FC000
3F00BF41FF4000
3F00FF1BFD0000
7E0BFFFFE40000
7E0FFFFE400000
7E0BFFFF400000
7E01FD7FD00000
7E02FD1FF00000
7E03FC0FF80004
3F03FC07FC002C
2F47F803FE007D
1FDBF801FF82F8
0BFFF400BFFFF0
02FFE0002FFF80
006F800006F900
ENDCHAR
STARTCHAR racute
ENCODING 341
SWIDTH 455 0
DWIDTH 13 0
BBX 16 24 1 0
BITMAP
00000500
00003F00
00007F40
0000FF00
0001FD00
0002F400
0007E000
000BC000
000B4000
00000000
00000000
0B80BD00
2F83FF00
2F8FFF00
3F6FFE00
7F7EFE05
7FB8FE2E
BFF0FFFD
BFD0BFF8
BFC02F90
BF800000
7F400000
7F000000
2E000000
ENDCHAR
STARTCHAR uni0156
ENCODING 342
SWIDTH 880 0
DWIDTH 25 0
BBX 28 32 1 -8
BITMAP
00001BFF900000
0002FFFFFD0000
001FFFFFFF4000
007FE406FFC000
01FE00007FD000
03F806402FE000
0BF02F802FE000
0FD03F802FE000
1F807F802FD000
2F40BF407FC000
3F00BF41FF4000
3F00FF1BFD0000
7E0BFFFFE40000
7E0FFFFE400000
7E0BFFFF400000
7E01FD7FD00000
7E02FD1FF00000
7E03FC0FF80004
3F03FC07FC002C
2F47F803FE007D
1FDBF801FF82F8
0BFFF400BFFFF0
02FFE0002FFF80
006F800006F900
00000000000000
00000000000000
000001E0000000
000003F4000000
000003F4000000
000003F0000000
000003E0000000
000002C0000000
ENDCHAR
STARTCHAR uni0157
ENCODING 343
SWIDTH 455 0
DWIDTH 13 0
BBX 16 22 1 -9
BITMAP
0B80BD00
2F83FF00
2F8FFF00
3F6FFE00
7F7EFE05
7FB8FE2E
BFF0FFFD
BFD0BFF8
BFC02F90
BF800000
7F400000
7F000000
2E000000
00000000
00000000
7D000000
BE000000
BE000000
BD000000
FC000000
F8000000
B0000000
ENDCHAR
STARTCHAR Rcaron
ENCODING 344
SWIDTH 880 0
DWIDTH 25 0
BBX 28 33 1 0
BITMAP
00000F40780000
00001F81FC0000
00000FC3F40000
00000BDBE00000
000003FFC00000
000001FF400000
000000B9000000
00000000000000
00000000000000
00001BFF900000
0002FFFFFD0000
001FFFFFFF4000
007FE406FFC000
01FE00007FD000
03F806402FE000
0BF02F802FE000
0FD03F802FE000
1F807F802FD000
2F40BF407FC000
3F00BF41FF4000
3F00FF1BFD0000
7E0BFFFFE40000
7E0FFFFE400000
7E0BFFFF400000
7E01FD7FD00000
7E02FD1FF00000
7E03FC0FF80004
3F03FC07FC002C
2F47F803FE007D
1FDBF801FF82F8
0BFFF400BFFFF0
02FFE0002FFF80
006F800006F900
ENDCHAR
STARTCHAR rcaron
ENCODING 345
SWIDTH 455 0
DWIDTH 13 0
BBX 16 24 1 0
BITMAP
00B40780
01F80FC0
00FC2F80
00FC3F00
00BDBD00
007DF800
003FF400
002FE000
001F8000
00000000
00000000
0B80BD00
2F83FF00
2F8FFF00
3F6FFE00
7F7EFE05
7FB8FE2E
BFF0FFFD
BFD0BFF8
BFC02F90
BF800000
7F400000
7F000000
2E000000
ENDCHAR
STARTCHAR Sacute
ENCODING 346
SWIDTH 693 0
DWIDTH 19 0
BBX 19 33 1 0
BITMAP
0000000050
00000007F4
0000001FF4
000000BFE0
000002FF40
00000BF400
00000B4000
0000000000
0000000000
0006BFE400
006FFFFF40
01FFFFFFD0
03FE406FF0
0BF4000BF4
0FF00007F4
0FF00007F4
0FF00007F0
0BF80002D0
07FF400000
02FFF40000
00BFFF8000
001BFFF800
0001BFFE00
00000BFF80
290000BFC0
BE00003FD0
FE00002FD0
FE00002FD0
FF00007FC0
BFD006FF40
3FFFFFFE00
0BFFFFF400
01AFFA4000
ENDCHAR
STARTCHAR sacute
ENCODING 347
SWIDTH 427 0
DWIDTH 12 0
BBX 17 25 -1 -1
BITMAP
0000014000
00000BD000
00001FE000
00002FD000
00003F4000
0000BE0000
0000FC0000
0001F40000
0001D00000
0000000000
0000000000
0007E00000
000FD00000
001FC00000
003FC00000
007FD00000
00FFF00000
01FFF80000
07E3FD0340
0FD1FE0F80
2F40FF7F40
7E2FFFFE00
247FFFF800
007FFF9000
001FD00000
ENDCHAR
STARTCHAR Scircumflex
ENCODING 348
SWIDTH 693 0
DWIDTH 19 0
BBX 19 34 1 0
BITMAP
0000014000
00001FF000
00003FF800
0000BEFC00
0001FCBD00
0003F47E00
000BE07F00
0007802D00
0000000000
0000000000
0006BFE400
006FFFFF40
01FFFFFFD0
03FE406FF0
0BF4000BF4
0FF00007F4
0FF00007F4
0FF00007F0
0BF80002D0
07FF400000
02FFF40000
00BFFF8000
001BFFF800
0001BFFE00
00000BFF80
290000BFC0
BE00003FD0
FE00002FD0
FE00002FD0
FF00007FC0
BFD006FF40
3FFFFFFE00
0BFFFFF400
01AFFA4000
ENDCHAR
STARTCHAR scircumflex
ENCODING 349
SWIDTH 427 0
DWIDTH 12 0
BBX 17 25 -1 -1
BITMAP
0000B80000
0002FE0000
0007FF0000
000FEF0000
002F5F4000
003F1F8000
00BD0FC000
01FC0FC000
01F40B8000
0000000000
0000000000
0007E00000
000FD00000
001FC00000
003FC00000
007FD00000
00FFF00000
01FFF80000
07E3FD0340
0FD1FE0F80
2F40FF7F40
7E2FFFFE00
247FFFF800
007FFF9000
001FD00000
ENDCHAR
STARTCHAR Scedilla
ENCODING 350
SWIDTH 693 0
DWIDTH 19 0
BBX 19 31 1 -7
BITMAP
0006BFE400
006FFFFF40
01FFFFFFD0
03FE406FF0
0BF4000BF4
0FF00007F4
0FF00007F4
0FF00007F0
0BF80002D0
07FF400000
02FFF40000
00BFFF8000
001FFFF800
0001BFFE00
00000BFF80
290000BFC0
BE00003FD0
FE00002FD0
FE00002FD0
FF00007FC0
BF9006FF40
3FFFFFFE00
0BFFFFF800
01BFFE4000
003FF80000
0001FD0000
0000BD0000
0001FD0000
02FFF80000
02FFF00000
01FF800000
ENDCHAR
STARTCHAR scedilla
ENCODING 351
SWIDTH 427 0
DWIDTH 12 0
BBX 17 20 -1 -7
BITMAP
0007E00000
000FD00000
001FC00000
003FC00000
007FD00000
00FFF00000
01FFF80000
07E3FD0340
0FD1FE0F80
2F40FF7F40
7E2FFFFE00
247FFFF800
007FFF9000
00BFF00000
0002F40000
0000F80000
0001F80000
02ABF40000
07FFD00000
02FE400000
ENDCHAR
STARTCHAR Scaron
ENCODING 352
SWIDTH 693 0
DWIDTH 19 0
BBX 19 33 1 0
BITMAP
0002E00B40
0002F42F40
0001F87F00
0000FCFD00
00007EF400
00003FE000
00001F8000
0000000000
0000000000
0006BFE400
006FFFFF40
01FFFFFFD0
03FE406FF0
0BF4000BF4
0FF00007F4
0FF00007F4
0FF00007F0
0BF80002D0
07FF400000
02FFF40000
00BFFF8000
001BFFF800
0001BFFE00
00000BFF80
290000BFC0
BE00003FD0
FE00002FD0
FE00002FD0
FF00007FC0
BFD006FF40
3FFFFFFE00
0BFFFFF400
01AFFA4000
ENDCHAR
STARTCHAR scaron
ENCODING 353
SWIDTH 427 0
DWIDTH 12 0
BBX 17 25 -1 -1
BITMAP
002E01F400
003F03F400
003F07E000
002F4FD000
001F5F8000
000FBF0000
000FFD0000
000BF80000
0002E00000
0000000000
0000000000
0007E00000
000FD00000
001FC00000
003FC00000
007FD00000
00FFF00000
01FFF80000
07E3FD0340
0FD1FE0F80
2F40FF7F40
7E2FFFFE00
247FFFF800
007FFF9000
001FD00000
ENDCHAR
STARTCHAR uni0162
ENCODING 354
SWIDTH 697 0
DWIDTH 20 0
BBX 25 30 1 -6
BITMAP
0016AFFFFFF900
02FFFFFFFFFF40
1FFFFFFFFFFF00
7FE50BF4001400
BF000BF4000000
FD000FF0000000
FD001FF0000000
FE001FE0000000
7F002FD0000000
29002FD0000000
00003FC0000000
00003FC0000000
00007F80000000
00007F80000000
0000BF40000000
0000BF40000000
0000FF00000000
0000FF00000000
0001FE00000000
0001FE00000000
0002FE00000000
0002FD00000000
000BFD00000000
000FFE00000000
00006F40000000
00001F40000000
00006F40000000
007FFF00000000
00BFFD00000000
007FE000000000
ENDCHAR
STARTCHAR uni0163
ENCODING 355
SWIDTH 393 0
DWIDTH 11 0
BBX 15 32 0 -8
BITMAP
0001B800
0007FE00
000FFF00
002F6F40
007E1F00
00BD2F00
00FC3E00
01F87D00
02F8F800
02F6F000
03FFC000
BFFFFF40
FFFFFF40
BFFFFE00
07F00000
0BF00000
0BF00000
07F00000
07F00024
07F400B8
03F802F4
02FE6FE0
01FFFFC0
00BFFE00
01FFE400
01AFE000
0003E000
0003F000
0007E000
0FFFD000
0FFF8000
0BF90000
ENDCHAR
STARTCHAR Tcaron
ENCODING 356
SWIDTH 697 0
DWIDTH 20 0
BBX 25 33 1 0
BITMAP
00001E00B80000
00002F41F80000
00001F83F00000
00000BCBD00000
000007EF800000
000002FF000000
000000B8000000
00000000000000
00000000000000
0006AFFFFFF900
01FFFFFFFFFF40
1FFFFFFFFFFF00
3FE50BF4001400
BF000BF4000000
FD000FF0000000
FD001FF0000000
FE001FE0000000
BF002FD0000000
3D002FD0000000
00003FC0000000
00003FC0000000
00007F80000000
00007F80000000
0000BF40000000
0000BF40000000
0000FF00000000
0000FF00000000
0001FF00000000
0001FE00000000
0001FE00000000
0002FE00000000
0002FD00000000
0000B800000000
ENDCHAR
STARTCHAR tcaron
ENCODING 357
SWIDTH 343 0
DWIDTH 10 0
BBX 13 26 0 0
BITMAP
00000100
00000FC0
00001FC0
00001F80
00151F40
007F1F00
00BF1E00
00FF0000
00FE0000
01FD0000
02FC0000
02FC0000
6BFEA800
BFFFFC00
7FFFF400
0BF00000
0BF00000
0BE00000
0FE00000
0FD00040
0FD002C0
0FE00BC0
0BF46F80
07FFFE00
02FFF800
00BF9000
ENDCHAR
STARTCHAR Tbar
ENCODING 358
SWIDTH 697 0
DWIDTH 20 0
BBX 25 24 1 0
BITMAP
0006AFFFFFF900
01BFFFFFFFFF40
1FFFFFFFFFFF00
3FE50BF4001400
BF400BF4000000
FD000FF0000000
FD000FF0000000
FE001FE0000000
BF002FE0000000
7E002FD0000000
14003FC0000000
007FFFFFD00000
00FFFFFFE00000
00BFFFFF800000
00007F80000000
0000BF40000000
0000BF40000000
0000FF00000000
0000FF00000000
0001FE00000000
0001FE00000000
0002FE00000000
0002FD00000000
0001F800000000
ENDCHAR
STARTCHAR tbar
ENCODING 359
SWIDTH 343 0
DWIDTH 10 0
BBX 14 22 -1 0
BITMAP
00054000
001FC000
002FC000
003FC000
003F8000
007F4000
00BF0000
00BF0000
1AFFAA00
2FFFFF00
1FFFFD00
02FC0000
02FC0000
3FFFFC00
7FFFFC00
2BFEA400
03F400B0
03F802F0
03FD1BE0
02FFFFC0
00FFFE00
002FE400
ENDCHAR
STARTCHAR Utilde
ENCODING 360
SWIDTH 890 0
DWIDTH 25 0
BBX 29 32 0 0
BITMAP
0000005000000000
000003FD02D00000
00000BFF8BE00000
00001FEFFFC00000
00002F46FF400000
00000500BD000000
0000000000000000
0000000000000000
006FD00000B80000
02FFF40001FD0000
0FFFFC0002FD0000
3F97FC0002FD0000
BD03FC0003FD0000
F803FC0003FC0000
A003FC0007FC0000
0007F80007F80000
0007F8000BF80000
000BF4000FF40000
000FF4000FF40000
000FF0001FF00000
001FE0002FF00000
002FE0003FE00000
002FD0007FE00000
003FC000FFE00000
007FC001FFD00000
007F8003EFD00000
007F800BAFD00740
007F801F2FD01F40
007FD1BD2FE07F40
003FFFF81FFFFD00
001FFFE00BFFF400
0006FE4001BE4000
ENDCHAR
STARTCHAR utilde
ENCODING 361
SWIDTH 462 0
DWIDTH 13 0
BBX 16 21 1 0
BITMAP
00500000
02FD02D0
0BFF87E0
0FDFFFC0
1F42FF40
05007D00
00000000
00000000
0BC07D00
1FC0FD00
2F81FC00
3F42F800
7F43F800
7F07F400
BF0BF404
BE1FF01D
BE3FF07D
BFFBF1FC
7FF7FFF4
3FE3FFD0
1F81FA00
ENDCHAR
STARTCHAR Umacron
ENCODING 362
SWIDTH 890 0
DWIDTH 25 0
BBX 29 29 0 0
BITMAP
000002FFFD000000
000007FFFE000000
000003FFFD000000
0000000000000000
0000000000000000
006FD00000B80000
02FFF40001FD0000
0FFFFC0002FD0000
3F97FC0002FD0000
BD03FC0003FD0000
F803FC0003FC0000
A003FC0007FC0000
0007F80007F80000
0007F8000BF80000
000BF4000FF40000
000FF4000FF40000
000FF0001FF00000
001FE0002FF00000
002FE0003FE00000
002FD0007FE00000
003FC000FFE00000
007FC001FFD00000
007F8003EFD00000
007F800BAFD00740
007F801F2FD01F40
007FD1BD2FE07F40
003FFFF81FFFFD00
001FFFE00BFFF400
0006FE4001BE4000
ENDCHAR
STARTCHAR umacron
ENCODING 363
SWIDTH 462 0
DWIDTH 13 0
BBX 16 18 1 0
BITMAP
02FFFE00
03FFFE00
03FFFD00
00000000
00000000
0BC07D00
1FC0FD00
2F81FC00
3F42F800
7F43F800
7F07F400
BF0BF404
BE1FF01D
BE3FF07D
BFFBF1FC
7FF7FFF4
3FE3FFD0
1F81FA00
ENDCHAR
STARTCHAR Ubreve
ENCODING 364
SWIDTH 890 0
DWIDTH 25 0
BBX 29 31 0 0
BITMAP
00000B8007C00000
00001FE01FD00000
00000FFFFF800000
000007FFFE000000
000000AFE4000000
0000000000000000
0000000000000000
006FD00000B80000
02FFF40001FD0000
0FFFFC0002FD0000
3F97FC0002FD0000
BD03FC0003FD0000
F803FC0003FC0000
A003FC0007FC0000
0007F80007F80000
0007F8000BF80000
000BF4000FF40000
000FF4000FF40000
000FF0001FF00000
001FE0002FF00000
002FE0003FE00000
002FD0007FE00000
003FC000FFE00000
007FC001FFD00000
007F8003EFD00000
007F800BAFD00740
007F801F2FD01F40
007FD1BD2FE07F40
003FFFF81FFFFD00
001FFFE00BFFF400
0006FE4001BE4000
ENDCHAR
STARTCHAR ubreve
ENCODING 365
SWIDTH 462 0
DWIDTH 13 0
BBX 16 21 1 0
BITMAP
0B8002C0
0FD00BD0
0FF42FC0
07FFFF80
02FFFE00
006FE400
00000000
00000000
0BC07D00
1FC0FD00
2F81FC00
3F42F800
7F43F800
7F07F400
BF0BF404
BE1FF01D
BE3FF07D
BFFBF1FC
7FF7FFF4
3FE3FFD0
1F81FA00
ENDCHAR
STARTCHAR Uring
ENCODING 366
SWIDTH 890 0
DWIDTH 25 0
BBX 29 34 0 0
BITMAP
0000001BE0000000
0000007FF8000000
000000BFFD000000
000000F87D000000
000000F87D000000
000000FFFC000000
0000007FF4000000
0000001F90000000
0000000000000000
0000000000000000
006FD00000B80000
02FFF40001FD0000
0FFFFC0002FD0000
3F97FC0002FD0000
BD03FC0003FD0000
F803FC0003FC0000
A003FC0007FC0000
0007F80007F80000
0007F8000BF80000
000BF4000FF40000
000FF4000FF40000
000FF0001FF00000
001FE0002FF00000
002FE0003FE00000
002FD0007FE00000
003FC000FFE00000
007FC001FFD00000
007F8003EFD00000
007F800BAFD00740
007F801F2FD01F40
007FD1BD2FE07F40
003FFFF81FFFFD00
001FFFE00BFFF400
0006FE4001BE4000
ENDCHAR
STARTCHAR uring
ENCODING 367
SWIDTH 462 0
DWIDTH 13 0
BBX 16 23 1 0
BITMAP
001BE000
007FF800
00BFFD00
00F87D00
00F87D00
00FFFD00
007FF800
001BD000
00000000
00000000
0BC07D00
1FC0FD00
2F81FC00
3F42F800
7F43F800
7F07F400
BF0BF404
BE1FF01D
BE3FF07D
BFFBF1FC
7FF7FFF4
3FE3FFD0
1F81FA00
ENDCHAR
STARTCHAR Uhungarumlaut
ENCODING 368
SWIDTH 890 0
DWIDTH 25 0
BBX 29 33 0 0
BITMAP
0000001405000000
0000003E0FC00000
0000007F1FC00000
000000BE2F800000
000000FC3F000000
000001F47D000000
000001E038000000
0000000000000000
0000000000000000
006FD00000B80000
02FFF40001FD0000
0FFFFC0002FD0000
3F97FC0002FD0000
BD03FC0003FD0000
F803FC0003FC0000
A003FC0007FC0000
0007F80007F80000
0007F8000BF80000
000BF4000FF40000
000FF4000FF40000
000FF0001FF00000
001FE0002FF00000
002FE0003FE00000
002FD0007FE00000
003FC000FFE00000
007FC001FFD00000
007F8003EFD00000
007F800BAFD00740
007F801F2FD01F40
007FD1BD2FE07F40
003FFFF81FFFFD00
001FFFE00BFFF400
0006FE4001BE4000
ENDCHAR
STARTCHAR uhungarumlaut
ENCODING 369
SWIDTH 462 0
DWIDTH 13 0
BBX 16 24 1 0
BITMAP
00050140
001F87F0
002FCBF0
003F8FE0
007F0FD0
00BD1F80
00FC2F00
00F43D00
00E03800
00000000
00000000
0BC07D00
1FC0FD00
2F81FC00
3F42F800
7F43F800
7F07F400
BF0BF404
BE1FF01D
BE3FF07D
BFFBF1FC
7FF7FFF4
3FE3FFD0
1F81FA00
ENDCHAR
STARTCHAR Uogonek
ENCODING 370
SWIDTH 890 0
DWIDTH 25 0
BBX 29 31 0 -7
BITMAP
006FD00000B80000
02FFF40001FD0000
0FFFFC0002FD0000
3F97FC0002FD0000
BD03FC0003FD0000
F803FC0003FC0000
A003FC0007FC0000
0007F80007F80000
0007F8000BF80000
000BF4000FF40000
000FF4000FF40000
000FF0001FF00000
001FE0002FF00000
002FE0003FE00000
002FD0007FE00000
003FC000FFE00000
007FC001FFD00000
007F8003EFD00000
007F800BAFD00740
007F801F2FD01F40
007FD1BD2FE07F40
003FFFF81FFFFD00
001FFFE00BFFF400
0006FE4001FF8000
0000000000BD0000
0000000001F80000
0000000001F40000
0000000002F80000
0000000001FEA800
0000000000BFFC00
00000000002FE400
ENDCHAR
STARTCHAR uogonek
ENCODING 371
SWIDTH 462 0
DWIDTH 13 0
BBX 16 20 1 -7
BITMAP
0BC07D00
1FC0FD00
2F81FC00
3F42F800
7F43F800
7F07F400
BF0BF404
BE1FF01D
BE3FF07D
BFFBF1FC
7FF7FFF4
3FE3FFD0
1F82FE00
0007F400
000BD000
000F8000
001F8000
000FEA80
000BFFC0
0001BE40
ENDCHAR
STARTCHAR Wcircumflex
ENCODING 372
SWIDTH 1217 0
DWIDTH 34 0
BBX 35 34 3 0
BITMAP
000000005400000000
00000002FE00000000
00000007FF40000000
0000000FEF80000000
0000002F8FC0000000
0000007F0BD0000000
000000FD0BE0000000
000000B803D0000000
000000000000000000
000000000000000000
0B800002E0001BE000
2FD0000BF4007FFC00
3FD0000FF401FFFE00
3FC0000FF002F4FE00
3FC0001FF003F0BF00
7F80001FE003E0BF00
7F80002FE003E0BE00
7F80003FE003E0BE00
7F80003FE003F0FD00
BF40007FE002F5FD00
BF4000BFE001FEFC00
BF4000FFD000BFF800
BF4001FFD0002FFFFC
BF4002FFE0000FFFFC
BF4003FFE0001FEBF8
7F800BEFE0003FC000
7F800FDBE000BF4000
3FC02FCBF001FE0000
3FD07F47F407FC0000
2FE1FF07FD1FF40000
1FFFFD03FFFFD00000
0BFFF401FFFF400000
07FFD000BFFD000000
01BE40002F90000000
ENDCHAR
STARTCHAR wcircumflex
ENCODING 373
SWIDTH 700 0
DWIDTH 20 0
BBX 23 24 1 0
BITMAP
00002F400000
0000BF800000
0000FFC00000
0002F7D00000
0007E7E00000
000FC3F00000
002F83F00000
003F02F40000
002D01E00000
000000000000
000000000000
7D00B806E000
BE01F80FF400
BE02F81FF400
BE07F82FF000
BF0BFC2FE160
BF0FFC1FFFF4
7F1FFC2FFFF0
7F3FFC7FBF90
7F7DFDFD0000
7FFCFFF80000
3FF8BFF00000
2FF0BFD00000
0B802E400000
ENDCHAR
STARTCHAR Ycircumflex
ENCODING 374
SWIDTH 851 0
DWIDTH 24 0
BBX 27 42 0 -8
BITMAP
00000001500000
0000000BF40000
0000002FFC0000
0000007FBD0000
000000FD7E0000
000002F83F0000
000007F42F4000
000003D01E0000
00000000000000
00000000000000
006FD00000B800
02FFF40001FD00
1FFFFC0002FD00
3F87FC0002FD00
BD03FC0003FC00
F403FC0003FC00
9003FC0007FC00
0007F8000BF800
000BF8000BF800
000BF4000FF400
000FF0001FF400
001FF0003FF000
001FE0007FF000
002FD000FFE000
002FD002EFE000
002FE007DFD000
001FF46F9FD000
000FFFFE1FD6B8
0007FFF82FFFF8
0001BF91BFFFF4
0000001FFFE900
000001FFBF8000
00000BF47F4000
00007F807F4000
0000FD00BF0000
0002F800FE0000
0003F401FD0000
0007F403F80000
0007F81FF40000
0003FFFFD00000
0001FFFF400000
00006FE4000000
ENDCHAR
STARTCHAR ycircumflex
ENCODING 375
SWIDTH 479 0
DWIDTH 13 0
BBX 17 37 0 -13
BITMAP
0000B80000
0003FD0000
000BFE0000
000FAF0000
002F6F4000
007E1F4000
00FD1F8000
01F80FC000
01F00B8000
0000000000
0000000000
02F01F4000
07F03F4000
0BE07F0000
0FD0BF0000
1FD0FE0000
1FC1FE0000
2FC2FD0100
2F87FD0B40
2F8FFC7F40
2FFFFEFE00
1FFEFFF400
0FF9FF9000
07E2FE0000
000BF40000
002FF00000
00FFF00000
03FBE00000
0BDBD00000
2F4FC00000
7D1F800000
BC2F400000
F83F000000
F8BE000000
FFFC000000
BFF4000000
2F90000000
ENDCHAR
STARTCHAR Ydieresis
ENCODING 376
SWIDTH 851 0
DWIDTH 24 0
BBX 27 38 0 -8
BITMAP
000001F42F4000
000003FC7F8000
000003FC7F8000
000002F42E4000
00000000000000
00000000000000
006FD00000B800
02FFF40001FD00
1FFFFC0002FD00
3F87FC0002FD00
BD03FC0003FC00
F403FC0003FC00
9003FC0007FC00
0007F8000BF800
000BF8000BF800
000BF4000FF400
000FF0001FF400
001FF0003FF000
001FE0007FF000
002FD000FFE000
002FD002EFE000
002FE007DFD000
001FF46F9FD000
000FFFFE1FD6B8
0007FFF82FFFF8
0001BF91BFFFF4
0000001FFFE900
000001FFBF8000
00000BF47F4000
00007F807F4000
0000FD00BF0000
0002F800FE0000
0003F401FD0000
0007F403F80000
0007F81FF40000
0003FFFFD00000
0001FFFF400000
00006FE4000000
ENDCHAR
STARTCHAR Zacute
ENCODING 377
SWIDTH 721 0
DWIDTH 20 0
BBX 24 33 0 0
BITMAP
000000001400
00000000BF00
00000002FF00
0000000BFE00
0000007FE400
000000FE4000
000000E40000
000000000000
000000000000
0006BFFEA500
007FFFFFFFD0
02FFFFFFFFE0
0BF94005FFD0
0FE00002FF00
1FC00003FD00
1FC0000BF800
1FD0001FF000
0BE0003FD000
029000BF8000
000001FF0000
000003FD0000
00000BF80000
00001FF00000
00003FD00000
0000FF800000
0002FF000000
0007FD000005
06FFF900002E
2FFFFFE501BE
7FFFFFFFFFFD
BFFF6FFFFFF4
7FFD06FFFFD0
1BE0001BF900
ENDCHAR
STARTCHAR zacute
ENCODING 378
SWIDTH 445 0
DWIDTH 12 0
BBX 15 24 1 0
BITMAP
00001400
00003F00
0000BF00
0000FE00
0001FC00
0003F400
0007E000
000B8000
000A0000
00000000
00000000
3FFFFF00
7FFFFF40
3FFFFF00
002FF800
01FF9000
0BF90000
1FE00004
3F80003C
7F8001FC
3FD01BF4
2FFFFFE0
0BFFFF40
01BFE400
ENDCHAR
STARTCHAR Zdotaccent
ENCODING 379
SWIDTH 721 0
DWIDTH 20 0
BBX 24 30 0 0
BITMAP
000001F80000
000007FE0000
000007FD0000
000002F80000
000000000000
000000000000
0006BFFEA500
007FFFFFFFD0
02FFFFFFFFE0
0BF94005FFD0
0FE00002FF00
1FC00003FD00
1FC0000BF800
1FD0001FF000
0BE0003FD000
029000BF8000
000001FF0000
000003FD0000
00000BF80000
00001FF00000
00003FD00000
0000FF800000
0002FF000000
0007FD000005
06FFF900002E
2FFFFFE501BE
7FFFFFFFFFFD
BFFF6FFFFFF4
7FFD06FFFFD0
1BE0001BF900
ENDCHAR
STARTCHAR zdotaccent
ENCODING 380
SWIDTH 445 0
DWIDTH 12 0
BBX 15 19 1 0
BITMAP
001F9000
003FE000
003FE000
002F8000
00000000
00000000
3FFFFF00
7FFFFF40
3FFFFF00
002FF800
01FF9000
0BF90000
1FE00004
3F80003C
7F8001FC
3FD01BF4
2FFFFFE0
0BFFFF40
01BFE400
ENDCHAR
STARTCHAR Zcaron
ENCODING 381
SWIDTH 721 0
DWIDTH 20 0
BBX 24 33 0 0
BITMAP
00002D01F000
00003F03F400
00002F4BE000
00001F9FC000
00000BFF4000
000007FD0000
000001F40000
000000000000
000000000000
0006BFFEA500
007FFFFFFFD0
02FFFFFFFFE0
0BF94005FFD0
0FE00002FF00
1FC00003FD00
1FC0000BF800
1FD0001FF000
0BE0003FD000
029000BF8000
000001FF0000
000003FD0000
00000BF80000
00001FF00000
00003FD00000
0000FF800000
0002FF000000
0007FD000005
06FFF900002E
2FFFFFE501BE
7FFFFFFFFFFD
BFFF6FFFFFF4
7FFD06FFFFD0
1BE0001BF900
ENDCHAR
STARTCHAR zcaron
ENCODING 382
SWIDTH 445 0
DWIDTH 12 0
BBX 15 24 1 0
BITMAP
00F40B80
01F81FC0
01F82F40
00FC7E00
00BCBD00
00BDF800
007FF000
003FD000
001F4000
00000000
00000000
3FFFFF00
7FFFFF40
3FFFFF00
002FF800
01FF9000
0BF90000
1FE00004
3F80003C
7F8001FC
3FD01BF4
2FFFFFE0
0BFFFF40
01BFE400
ENDCHAR
STARTCHAR uni018F
ENCODING 399
SWIDTH 792 0
DWIDTH 22 0
BBX 21 24 1 0
BITMAP
0001AFE90000
001FFFFF8000
00BFFFFFF000
02FF906FF800
03F80007FD00
03D00002FF00
02400000FF40
00000000BF40
00000000BF80
00000000BF80
000000007F80
000000007F80
1FFFFFFFFF40
3FFFFFFFFF40
7FFFFFFFFF00
7F800000FE00
7FC00001FD00
3FC00003FC00
2FD0000BF400
1FF4002FE000
0BFD01BFC000
03FFFFFF0000
00BFFFF80000
001BFE800000
ENDCHAR
STARTCHAR florin
ENCODING 402
SWIDTH 478 0
DWIDTH 13 0
BBX 17 29 -2 -8
BITMAP
000006FF40
00001FFFC0
00007FFF80
0000BF8000
0000FE0000
0001FD0000
0001FD0000
0001FD0000
02FFFFFE00
03FFFFFE00
02FFFFF800
0003F80000
0003F80000
0007F40000
0007F40000
0007F40000
000BF00000
000BF00000
000BE00000
000FE00000
000FE00000
001FD00000
001FD00000
001FD00000
002FC00000
01BF800000
7FFF400000
BFFD000000
7FE0000000
ENDCHAR
STARTCHAR Ohorn
ENCODING 416
SWIDTH 816 0
DWIDTH 23 0
BBX 23 28 1 0
BITMAP
0000000000B8
0000000001FC
0000000002FC
0000000007F8
00006BFFFFF4
0006FFFFFFD0
001FFFFFFF40
007FE41BFE00
01FF4001FF40
03FD0000BF80
07F800007FC0
0FF000003FD0
1FE000003FD0
2FE000002FD0
3FD000002FD0
3FC000003FD0
3FC000003FC0
7FC000003FC0
7FC000007F80
3FC00000BF40
3FC00000FF00
2FD00002FE00
2FF00007FC00
0FF8001FF400
07FE41BFE000
02FFFFFF4000
007FFFF90000
0006FE900000
ENDCHAR
STARTCHAR ohorn
ENCODING 417
SWIDTH 451 0
DWIDTH 13 0
BBX 16 17 1 0
BITMAP
00000140
00000BC0
00000FC0
00002F80
01BFFF40
0BFFFE00
2FFFF400
7F8FF800
BF0FFC18
FE0BFFFD
FD03FFFD
FD01FFE4
FE01F800
BF47F400
7FFFE000
1FFF8000
06F90000
ENDCHAR
STARTCHAR Uhorn
ENCODING 431
SWIDTH 890 0
DWIDTH 25 0
BBX 29 28 0 0
BITMAP
0000000000003D00
0000000000007E00
000000000000BE00
000000000002FD00
006FD00000BFFC00
02FFF40001FFF400
0FFFFC0002FFD000
3F97FC0002FE0000
BD03FC0003FD0000
F803FC0003FC0000
A003FC0007FC0000
0007F80007F80000
0007F8000BF80000
000BF4000FF40000
000FF4000FF40000
000FF0001FF00000
001FE0002FF00000
002FE0003FE00000
002FD0007FE00000
003FC000FFE00000
007FC001FFD00000
007F8003EFD00000
007F800BAFD00740
007F801F2FD01F40
007FD1BD2FE07F40
003FFFF81FFFFD00
001FFFE00BFFF400
0006FE4001BE4000
ENDCHAR
STARTCHAR uhorn
ENCODING 432
SWIDTH 512 0
DWIDTH 14 0
BBX 17 17 1 0
BITMAP
0000001000
000000B800
000000F800
000002F800
0BC07FF000
1FC0FFD000
2F81FD0000
3F42F80000
7F43F80000
7F07F40000
BF0BF00040
BE1FF003C0
BE3FF00BC0
BFFBF47F40
7FF7FFFE00
3FE2FFF400
1F80BE4000
ENDCHAR
STARTCHAR uni01C4
ENCODING 452
SWIDTH 1531 0
DWIDTH 43 0
BBX 45 33 2 0
BITMAP
000000000000001F00B80000
000000000000001F81FC0000
000000000000000FC3F40000
000000000000000BDBE00000
0000000000000003FF800000
0000000000000002FF000000
0000000000000000B9000000
000000000000000000000000
000000000000000000000000
001BFF90000001AFFEA90000
02FFFFFE00002FFFFFFFE000
0BFFFFFFC001FFFFFFFFF400
07E501BFF003FE4001BFF400
0000001FF807F40000BF8000
00500007FD0BE00001FF0000
02FC0002FE0BE00003FD0000
03FC0001FF0BF0000BF80000
07F80000FF03F4001FF00000
0BF40000FF01A0003FD00000
0FF00000FF000000BF800000
0FF00000FF000001FF000000
1FE00000FF000003FD000000
1FD00001FE00000BF8000000
2FD00002FE00001FF0000000
3FC00003FD00007FD0000000
3FC00007FC0000FF80000000
7F80000FF40002FF00000200
7F80002FE002FFFE00000B40
7F8001FFC01FFFFFF9007F40
BF405BFF402FFFFFFFFFFF00
BFFFFFF8003FFFAFFFFFFC00
BFFFFF90002FFE01BFFFE000
2BFFA4000007F4001AFE4000
ENDCHAR
STARTCHAR uni01C5
ENCODING 453
SWIDTH 1191 0
DWIDTH 33 0
BBX 34 24 2 0
BITMAP
001BFF900000B807C0
02FFFFFE0000FC0FD0
0BFFFFFFC000FC1F80
07E501BFF000BD3F00
0000001FF8007D7E00
00500007FD003EFC00
02FC0002FE003FF400
03FC0001FF002FE000
07F80000FF000B8000
0BF40000FF00000000
0FF00000FF00000000
0FF00000FF1FFFFE00
1FE00000FF3FFFFF00
1FD00001FE2FFFFE00
2FD00002FE001FF800
3FC00003FD00BF9000
3FC00007FC02FE0000
7F80000FF40BF80000
7F80002FE01FE00000
7F8001FFC07F800000
BF405BFF40BF000000
BFFFFFF800FFFFFE00
BFFFFF9000FFFFFF00
2BFFA40000BFFFFE00
ENDCHAR
STARTCHAR uni01C6
ENCODING 454
SWIDTH 895 0
DWIDTH 25 0
BBX 28 24 1 0
BITMAP
000000007802D0
00000BD0BD0BD0
00001FD0BD0FC0
00002FC07E2F40
00002FC07E3F00
00003F803EBD00
00003F802FF800
00003F401FF000
00007F000FD000
00007F00010000
0000BE00000000
006FFE1FFFFF80
02FFFD2FFFFF80
0BFFFC1FFFFF80
1FF5FC001BFD00
3FC2F800BFD000
7F42F802FE0000
BE03F40BF40004
FE07F41FD0001E
FE0BF43FD0007E
FE1FF5FFE417FD
BFFFFFFFFFFFF4
7FF8FFD7FFFF80
1BE06E00AFE900
ENDCHAR
STARTCHAR uni01C7
ENCODING 455
SWIDTH 1276 0
DWIDTH 36 0
BBX 38 27 -1 -3
BITMAP
000001BF900006BFE900
00001FFFF8007FFFFFC0
0000BFFFFE01FFFFFFD0
0001FF41FF07FD41FF80
0003FD007F4BE000FE00
000BF8007F4FD001FE00
000FF4007F4FD001FE00
001FF000BF0FD002FD00
001FE0007E0FE002FD00
001FE0001407E002FC00
002FD00000014003FC00
002FD0000000001BF800
002FD000000001BFF800
002FD00000001BFFF400
002FC00000007FEBF400
002FC0000002FF4BF000
003FC000000BF80FE000
003F8000002FE01FD000
1BFFD400003F802FC000
7FFFFFE405FF403F8000
FFFFFFFFFFFE007F4000
FFFEBFFFFFFE00BF0000
BFF806FFFFFE01FD0000
2F90006BF9BF47F80000
00000000007FFFF00000
00000000002FFF800000
000000000006F9000000
ENDCHAR
STARTCHAR uni01C8
ENCODING 456
SWIDTH 927 0
DWIDTH 26 0
BBX 30 37 -1 -13
BITMAP
000001BFE4000000
00001BFFFE000000
00007FFFFF800000
0001FF907FC00000
0003FD001FD00000
0007F8001FE6E400
000FF4001FEFF800
000FF0001FDFF800
001FE0001FC7E000
001FE0000A400000
002FD00000000000
002FD0000007E000
002FD000000BE000
002FD000000FE000
002FC000000FD000
002FC000001FD000
003FC000001FC000
003F8000001FC050
1BFFD400002F82F0
7FFFFFE401FF9FF0
FFFFFFFFFFFFBFD0
FFFDBFFFFFFFFE00
BFF806FFFFBFF400
2F90006BF97F8000
0000000001FF0000
0000000007FE0000
000000002FFD0000
00000000BEFD0000
00000001F8FC0000
00000003E1F80000
0000000BC2F40000
0000000F83F00000
0000001F47E00000
0000001F5FC00000
0000001FFF800000
0000000FFE000000
00000006F8000000
ENDCHAR
STARTCHAR uni01C9
ENCODING 457
SWIDTH 610 0
DWIDTH 17 0
BBX 19 39 1 -13
BITMAP
000BE00000
002FF40000
00BFF80000
01FCFC0000
02F4BC0000
03F0BC0000
07E0BC0000
0BD0F9BD00
0FC1F7FF00
1FC1F7FE00
2F82F1F900
2F87D00000
3F4BC00000
3F4F81F800
7F2F02F800
7F7E02F800
7FBC03F800
7FF403F400
7FE007F400
7FD007F000
7F401FF07C
3F407FE1FC
2F81FFEBF4
1FFFFFFFD0
0BFFDFFE00
02FE0FF400
00003FC000
0001FF8000
0007FF8000
001FAF4000
007E3F0000
00FC7F0000
01F4BE0000
03E0FC0000
07D1F80000
07E7F40000
07FFE00000
03FFC00000
00BE000000
ENDCHAR
STARTCHAR uni01CA
ENCODING 458
SWIDTH 1497 0
DWIDTH 42 0
BBX 43 27 0 -3
BITMAP
006F9001BF900006FFFA50
02FFF00BFFF400BFFFFFF4
1FFFF42FFFF807FFFFFFF4
3F87F4BE07FC0FF9003FD0
BD07F5F403FD2FD0003FC0
F407F7D003FD2F80003FC0
A007FB8003FC3F40007F80
000BFB4003FC3F80007F80
000BFE0007F82FC0007F40
000BFD000BF81F8000BF40
000FFC000BF4010000BF00
000FF8000FF0000001FF00
001FF4001FF000002FFE00
001FF0001FE00001FFFE00
001FE0002FD0000BFEFD00
002FE0002FD0007FE2FC00
002FD0003FC001FF42FC00
003FC0003FC003FC03F800
003FC0003FC00BF007F400
007F80003FC01FD00BF000
007F80003FE0BFC00FD000
007F80001FFFFFC02FC000
007F40000BFFFFC07F4000
002E000001BE6FD1FF0000
0000000000001FFFFC0000
0000000000000BFFF40000
00000000000001BE400000
ENDCHAR
STARTCHAR uni01CB
ENCODING 459
SWIDTH 1138 0
DWIDTH 32 0
BBX 35 37 0 -13
BITMAP
006F9001BF90000000
02FFF00BFFF4000000
0FFFF42FFFF8000000
2F87F4BE07FC000000
BE07F5F403FD000000
F807F6D003FD01F900
F007F78003FC03FE00
400BFB4003FC07FE00
000BFE0007F802F800
000BFD000BF8000000
000FFC000BF4000000
000FF8000FF001F400
001FF4001FF003F800
001FF0001FE003F400
001FE0002FD003F400
002FE0002FD007F400
002FD0003FC007F000
003FC0003FC007F000
003FC0003FC00BE028
007F80003FC01FE1FC
007F80003FE0BFEBF4
007F80001FFFFFFFD0
007F40000BFFFFFE00
002E000001BE5FF400
0000000000007FC000
000000000001FF8000
000000000007FF4000
00000000001FBF4000
00000000007E7F0000
0000000000F87E0000
0000000002F0BD0000
0000000003D0FC0000
0000000007D2F80000
000000000BD7F00000
0000000007FFD00000
0000000003FF800000
0000000001BD000000
ENDCHAR
STARTCHAR uni01CC
ENCODING 460
SWIDTH 750 0
DWIDTH 21 0
BBX 23 32 1 -13
BITMAP
00000001BD00
00000003FE00
00000003FE00
00000001F800
000000000000
000000000000
0B80BD01F800
2F83FF02F800
2F4FFF03F800
3F6FFE03F400
7F7DFE03F400
7FB8FD07F400
BFF0FC07F000
BFD1FC0BF07C
BFC2F81FE2FC
BF82FC7FEBF4
7F42FFFFFFD0
7F01FFFFFE00
2E007E5FF400
0000007FC000
000001FF8000
000007FF8000
00001FBF4000
00007E3F0000
0000F87E0000
0002F0BD0000
0003E0FC0000
0007D1F80000
0007D7F40000
0007FFE00000
0003FF800000
0000BE000000
ENDCHAR
STARTCHAR Gcaron
ENCODING 486
SWIDTH 811 0
DWIDTH 23 0
BBX 25 46 1 -13
BITMAP
00002E00B40000
00003F02F40000
00002F87E00000
00000FCFD00000
00000BEF400000
000003FE000000
000001F8000000
00000000000000
00000000000000
00002BFE400000
0002FFFFE00000
001FFFFFF40000
007FE407FC0000
01FF4002FD0000
03FD0001FD0000
0BF80001FD0000
0FF00002FD0000
1FE00002FC0000
2FD00000A40000
3FD00000000000
3FC00000000000
3FC00000000000
7FC00000000000
7FC000BFFE0000
3FC000FFFF0000
3FD000BFFF0000
2FE00000BE0000
1FF40000BE0240
0BFD0000FE1F80
03FF9006FDBF40
01FFFFFFFFFD00
002FFFFFFFE000
0001BFEAFF4000
00000007FC0000
0000002FF80000
000000BFF40000
000002FBF00000
00000BD7E00000
00001F8BE00000
00003E0FD00000
00007D1F800000
0000BC2F400000
0000BC7F000000
0000BFFD000000
00007FF8000000
00001B90000000
ENDCHAR
STARTCHAR gcaron
ENCODING 487
SWIDTH 479 0
DWIDTH 13 0
BBX 17 37 0 -13
BITMAP
001E00B400
002F42F400
002F47F000
001F8BD000
000F9F8000
000FAF4000
000BFE0000
0007FC0000
0002E40000
0000000000
0000000000
001BD00000
00BFFA0000
02FFFF0000
07FD7F0000
0FF0BE0000
1FD0BE0000
2F80FD0000
3F81FD0B40
3F82FC7F40
3F87FEFE00
2FFFFFF800
1FFFFFD000
06F6FE0000
000BF40000
003FF00000
01FFF00000
03FBE00000
0FDBD00000
2F4FC00000
7E1F800000
BC2F400000
F83F000000
FCBE000000
FFFC000000
BFF4000000
2F90000000
ENDCHAR
STARTCHAR uni01EA
ENCODING 490
SWIDTH 816 0
DWIDTH 23 0
BBX 22 31 1 -7
BITMAP
00006BFA0000
0006FFFFE000
001FFFFFF800
007FE41BFE00
01FF4001FF40
03FD0000BF80
0BF800007FC0
0FF000003FD0
1FE000003FD0
2FD000002FD0
3FD000002FD0
3FC000003FD0
3FC000003FC0
7FC000007FC0
7FC000007F80
3FC00000BF40
3FD00001FF00
2FE00002FD00
1FF4000BFC00
0FFD006FF400
07FFEBFFD000
01FFFFFF4000
006FFFF80000
0001BF400000
0000BD000000
0000FC000000
0001F8000000
0001FD040000
0000FFFD0000
00007FFC0000
000006900000
ENDCHAR
STARTCHAR uni01EB
ENCODING 491
SWIDTH 451 0
DWIDTH 13 0
BBX 16 20 1 -7
BITMAP
01BE4000
0BFFE000
2FFFF400
7F8FF800
BF0FFC18
FE0BFFFD
FD03FFFD
FD01FFE4
FE01F800
BF43F400
7FEFE000
2FFFC000
07FE0000
01F80000
03E00000
07D00000
0BD00000
07FAA000
02FFE000
00BF9000
ENDCHAR
STARTCHAR Aringacute
ENCODING 506
SWIDTH 786 0
DWIDTH 22 0
BBX 27 36 1 0
BITMAP
000000000001E0
00000000000BF4
00000007E42FE0
0000001FFDB900
0000003FFE0000
0000007D2F0000
0000007C1F0000
0000007D2F0000
0000007FFE0000
0000002FFC0000
0000000BE00000
00000000000000
000001AFFE9000
00006FFFFFF400
0002FFFFFFF400
000FFE50069000
003FF400140000
00FF8001FD0000
02FE0002FD0000
07FC0002FD0000
0BF40003FC0000
1FF00007F80000
2FE00007F80000
3FD0000BF40000
3FC0000FF40000
7FC0001FF00000
7F80001FF00000
7F80002FE00000
7F80007FE00000
7FC000BFE00000
3FC001FFE00780
2FE003FFE00F80
1FF81FDFF47F40
0BFFFF4FFFFD00
02FFFE07FFF400
006FE401BF8000
ENDCHAR
STARTCHAR aringacute
ENCODING 507
SWIDTH 470 0
DWIDTH 13 0
BBX 18 26 1 0
BITMAP
0000000140
0000000BD0
0000002FD0
000BE47F80
002FFDB900
007FFE0000
00BD2F0000
00BD2E0000
007FFE0000
003FFC0000
000BE00000
0000000000
0000000000
006F400000
02FFE80000
0BFFFC0000
1FF5FC0000
3FC2FC0000
7F42F80000
BE03F40000
FE07F40E00
FE0BF43E00
FE1FF5FD00
BFFFFFF800
7FF8FFD000
1BE06E4000
ENDCHAR
STARTCHAR AEacute
ENCODING 508
SWIDTH 1015 0
DWIDTH 28 0
BBX 31 33 1 0
BITMAP
0000000000014000
000000000007F000
00000000002FF000
0000000000BFE000
0000000003FE4000
000000000FE40000
000000000E400000
0000000000000000
0000000000000000
000006BD07FFFF80
00007FFE2FFFFFD0
0002FFFE3FFFFF80
001FFF947F400000
007FF800BF000000
00FFD000FF000000
02FF0001FE000000
07FD0001FE000000
0FF80002FD000000
1FF00003FC000000
2FE00007FC000000
3FD0000BFFFFFC00
3FC0000BFFFFFD00
7FC0000FFFFFF800
7F80001FF0000000
7F80002FF0000000
7F80007FF0000000
7F8000BFF0000000
3FC001FFF4000000
2FE002FBFC000078
1FF81FE3FF401BFC
0BFFFFC1FFFFFFF4
02FFFF007FFFFF90
006FE40006FFE400
ENDCHAR
STARTCHAR aeacute
ENCODING 509
SWIDTH 653 0
DWIDTH 18 0
BBX 21 24 1 0
BITMAP
000000050000
0000003F0000
0000007F4000
000000FF0000
000001FD0000
000002F40000
000007E00000
00000BC00000
00000B400000
000000000000
000000000000
002BD2FD0000
02FFFFFF4000
0BFFFFFFC000
2FE4BE0FC000
3F81FC0FC000
BF02F82F8000
BE03F9BE0000
FE03FFF80780
FE07FE401F80
FF1FFE41BF40
BFFFBFFFFD00
3FFD2FFFF400
0BE406FE4000
ENDCHAR
STARTCHAR Oslashacute
ENCODING 510
SWIDTH 816 0
DWIDTH 23 0
BBX 22 36 1 -3
BITMAP
000000014000
0000001FD000
0000007FD000
000002FF8000
00000BFD0000
00002FD00000
00002D000000
0000002E0000
0000003F0000
00006BFF0000
0006FFFFE000
001FFFFFF800
007FE5FFFE00
01FF42FAFF40
03FD02F4BF80
07F803F07FC0
0FF407E03FC0
1FE00BD03FD0
2FD00BD02FD0
2FD00FC02FD0
3FC01F803FD0
3FC02F403FC0
3FC02F003FC0
7FC03F007F80
3FC07E00BF40
3FD0BD00FF00
2FD0FC02FE00
2FF0FC07FC00
0FF9F80FF400
07FFF5BFE000
02FFFFFF8000
00BFFFF90000
000BFE900000
000BD0000000
000FC0000000
000B80000000
ENDCHAR
STARTCHAR oslashacute
ENCODING 511
SWIDTH 459 0
DWIDTH 13 0
BBX 16 28 1 -4
BITMAP
00050000
001F8000
002FC000
007F8000
00BE0000
00FC0000
02F40000
03E10000
038B4000
000F0000
000F0000
01BF4000
0BFFE000
2FFFF800
7FAEFC00
BE3CFD19
FD3CFFFE
FD78FFFD
FD78FFA4
FEB5FC00
BFF6F800
7FFFF000
2FFFD000
07FE0000
02D00000
02D00000
03C00000
01400000
ENDCHAR
STARTCHAR uni0200
ENCODING 512
SWIDTH 786 0
DWIDTH 22 0
BBX 25 33 1 0
BITMAP
00000140500000
00000BC2F40000
00000FD3F80000
00000BE1F80000
000003F0FC0000
000001F47D0000
000000B42D0000
00000000000000
00000000000000
000001AFFE9000
00006FFFFFF400
0002FFFFFFF400
000FFE50069000
003FF400140000
00FF8001FD0000
02FE0002FD0000
07FC0002FD0000
0BF40003FC0000
1FF00007F80000
2FE00007F80000
3FD0000BF40000
3FC0000FF40000
7FC0001FF00000
7F80001FF00000
7F80002FE00000
7F80007FE00000
7FC000BFE00000
3FC001FFE00780
2FE003FFE00F80
1FF81FDFF47F40
0BFFFF4FFFFD00
02FFFE07FFF400
006FE401BF8000
ENDCHAR
STARTCHAR uni0201
ENCODING 513
SWIDTH 470 0
DWIDTH 13 0
BBX 16 24 1 0
BITMAP
05014000
3F4BD000
3F8FE000
2FCBF000
0FD3F400
0BD1F800
03E0FC00
01F07C00
00B02C00
00000000
00000000
006F4000
02FFE800
0BFFFC00
1FF5FC00
3FC2FC00
7F42F800
BE03F400
FE07F40E
FE0BF43E
FE1FF5FD
BFFFFFF8
7FF8FFD0
1BE06E40
ENDCHAR
STARTCHAR uni0202
ENCODING 514
SWIDTH 786 0
DWIDTH 22 0
BBX 25 31 1 0
BITMAP
0000001BF90000
000000BFFF8000
000003FFFFE000
000007F41BF000
00000BD003F000
00000140014000
00000000000000
000001AFFE9000
00006FFFFFF400
0002FFFFFFF400
000FFE50069000
003FF400140000
00FF8001FD0000
02FE0002FD0000
07FC0002FD0000
0BF40003FC0000
1FF00007F80000
2FE00007F80000
3FD0000BF40000
3FC0000FF40000
7FC0001FF00000
7F80001FF00000
7F80002FE00000
7F80007FE00000
7FC000BFE00000
3FC001FFE00780
2FE003FFE00F80
1FF81FDFF47F40
0BFFFF4FFFFD00
02FFFE07FFF400
006FE401BF8000
ENDCHAR
STARTCHAR uni0203
ENCODING 515
SWIDTH 470 0
DWIDTH 13 0
BBX 16 21 1 0
BITMAP
001BF800
00BFFF40
02FFFFC0
07F82FE0
0BE00BE0
0BC007E0
01000140
00000000
006F4000
02FFE800
0BFFFC00
1FF5FC00
3FC2FC00
7F42F800
BE03F400
FE07F40E
FE0BF43E
FE1FF5FD
BFFFFFF8
7FF8FFD0
1BE06E40
ENDCHAR
STARTCHAR uni0204
ENCODING 516
SWIDTH 686 0
DWIDTH 19 0
BBX 22 33 1 0
BITMAP
000140500000
0007E1F80000
0007F1FC0000
0003F4FD0000
0001F87E0000
0000F82F0000
0000780E0000
000000000000
000000000000
00016FF90000
001BFFFFD000
007FFFFFF000
01FFD01BF800
03FE0003FC00
07FC0002FC00
07F80003FC00
07F80003F800
03FD0002F000
02FF50000000
007FFF400000
006FFF400000
06FFFF000000
1FFD40000000
7FD000000000
BF8000000000
FF0000000000
FF0000000000
FF4000000000
BFC0000006E0
7FF90016BFE0
1FFFFFFFFFD0
06FFFFFFFE00
005AFFFA4000
ENDCHAR
STARTCHAR uni0205
ENCODING 517
SWIDTH 393 0
DWIDTH 11 0
BBX 15 24 0 0
BITMAP
05014000
3F0FC000
7F4FD000
3F8BE000
1FC7F000
0BD2F400
03E0F800
02F07C00
00A02C00
00000000
00000000
006F9000
02FFF400
0BFFF800
1FE1F800
2FC1F800
3F42F400
3F9FE010
3FFF4078
3FE402F8
2FD05FF4
1FFFFFD0
07FFFE00
00BFE400
ENDCHAR
STARTCHAR uni0206
ENCODING 518
SWIDTH 686 0
DWIDTH 19 0
BBX 22 31 1 0
BITMAP
00001BFE0000
00007FFFD000
0001FFFFF000
0003F907F400
0003E002F400
000140005000
000000000000
00016FF90000
001BFFFFD000
007FFFFFF000
01FFD01BF800
03FE0003FC00
07FC0002FC00
07F80003FC00
07F80003F800
03FD0002F000
02FF50000000
007FFF400000
006FFF400000
06FFFF000000
1FFD40000000
7FD000000000
BF8000000000
FF0000000000
FF0000000000
FF4000000000
BFC0000006E0
7FF90016BFE0
1FFFFFFFFFD0
06FFFFFFFE00
005AFFFA4000
ENDCHAR
STARTCHAR uni0207
ENCODING 519
SWIDTH 393 0
DWIDTH 11 0
BBX 14 21 1 0
BITMAP
006FD000
07FFFC00
0FFFFF00
2FD0BF40
2F402F80
3E001F40
14000500
00000000
01BE4000
0BFFD000
2FFFE000
7F87E000
BF07E000
FD0BD000
FE7F8040
FFFD01E0
FF900BE0
BF417FD0
7FFFFF40
1FFFF800
02FF9000
ENDCHAR
STARTCHAR uni0208
ENCODING 520
SWIDTH 495 0
DWIDTH 14 0
BBX 17 33 -1 0
BITMAP
0005014000
003F0FC000
003F4FD000
002F8BE000
000FC3F000
0007D1F400
0002C0B400
0000000000
0000000000
007FFFFF40
00FFFFFF40
00BFFFFE00
0000FF0000
0001FE0000
0001FE0000
0002FD0000
0002FD0000
0003FC0000
0003FC0000
0003F80000
0007F80000
0007F40000
000BF40000
000BF00000
000FF00000
000FF00000
001FE00000
001FE00000
002FD00000
002FD00000
1FFFFF8000
7FFFFFD000
7FFFFF8000
ENDCHAR
STARTCHAR uni0209
ENCODING 521
SWIDTH 246 0
DWIDTH 7 0
BBX 13 24 -2 0
BITMAP
14050000
BD2F4000
FE3F8000
BF2FC000
3F4FD000
1F87E000
0FC2F000
07C1F400
02C0B000
00000000
00000000
002E0000
00BF0000
00BE0000
00FE0000
01FD0000
01FC0000
02FC0100
02F80740
02F81F40
02FC7F00
01FFFD00
00FFF400
006F8000
ENDCHAR
STARTCHAR uni020A
ENCODING 522
SWIDTH 495 0
DWIDTH 14 0
BBX 17 31 -1 0
BITMAP
00006FE400
0007FFFE00
000FFFFF40
002FD07F80
002F401F80
0005000500
0000000000
007FFFFF40
00FFFFFF40
00BFFFFE00
0000FF0000
0001FE0000
0001FE0000
0002FD0000
0002FD0000
0003FC0000
0003FC0000
0003F80000
0007F80000
0007F40000
000BF40000
000BF00000
000FF00000
000FF00000
001FE00000
001FE00000
002FD00000
002FD00000
1FFFFF8000
7FFFFFD000
7FFFFF8000
ENDCHAR
STARTCHAR uni020B
ENCODING 523
SWIDTH 246 0
DWIDTH 7 0
BBX 12 21 -1 0
BITMAP
01BF80
0BFFF4
2FFFFC
7F81FE
BE00BE
BC003E
100014
000000
00B800
02FC00
02F800
03F800
07F400
07F000
0BF004
0BE01D
0BE07D
0BF1FC
07FFF4
03FFD0
01BE00
ENDCHAR
STARTCHAR uni020C
ENCODING 524
SWIDTH 816 0
DWIDTH 23 0
BBX 22 33 1 0
BITMAP
000050140000
0003F0BC0000
0003F4FD0000
0002F8BE0000
0000FC3F0000
00007D1F4000
00002C0B4000
000000000000
000000000000
00006BFA0000
0006FFFFE000
001FFFFFF800
007FE41BFE00
01FF4001FF40
03FD0000BF80
07F800007FC0
0FF000003FC0
1FE000003FD0
2FE000002FD0
3FD000002FD0
3FC000003FD0
3FC000003FC0
7FC000003FC0
7FC000007F80
3FC00000BF40
3FC00000FF00
2FD00002FE00
2FF00007FC00
0FF8001FF400
07FE41BFE000
02FFFFFF8000
007FFFF90000
0006FE900000
ENDCHAR
STARTCHAR uni020D
ENCODING 525
SWIDTH 451 0
DWIDTH 13 0
BBX 17 24 0 0
BITMAP
1405400000
7F0FC00000
7F5FD00000
3F8FE00000
1FC7F00000
0BD2F40000
07E1F80000
02E0BC0000
00E0280000
0000000000
0000000000
006F900000
02FFF80000
0BFFFD0000
1FE3FE0000
2FC3FF0600
3F82FFFF40
3F40FFFF40
3F407FF900
3F807E0000
2FD1FD0000
1FFFF80000
07FFE00000
01BE400000
ENDCHAR
STARTCHAR uni020E
ENCODING 526
SWIDTH 816 0
DWIDTH 23 0
BBX 22 31 1 0
BITMAP
000006FE4000
00007FFFE000
0000FFFFF400
0001FD07FC00
0002F401FC00
000050005000
000000000000
00006BFA0000
0006FFFFE000
001FFFFFF800
007FE41BFE00
01FF4001FF40
03FD0000BF80
07F800007FC0
0FF000003FC0
1FE000003FD0
2FE000002FD0
3FD000002FD0
3FC000003FD0
3FC000003FC0
7FC000003FC0
7FC000007F80
3FC00000BF40
3FC00000FF00
2FD00002FE00
2FF00007FC00
0FF8001FF400
07FE41BFE000
02FFFFFF8000
007FFFF90000
0006FE900000
ENDCHAR
STARTCHAR uni020F
ENCODING 527
SWIDTH 451 0
DWIDTH 13 0
BBX 16 21 1 0
BITMAP
00BF9000
07FFF800
0FFFFE00
2FD0BF40
3F403F40
3E001F40
14000500
00000000
01BE4000
0BFFE000
2FFFF400
7F8FF800
BF0FFC18
FE0BFFFD
FD03FFFD
FD01FFE4
FE01F800
BF47F400
7FFFE000
1FFF8000
06F90000
ENDCHAR
STARTCHAR uni0210
ENCODING 528
SWIDTH 880 0
DWIDTH 25 0
BBX 28 33 1 0
BITMAP
00005005000000
0000FC3F000000
0001FD3F400000
0000BE2F800000
00007E0FC00000
00002F07D00000
00000B02C00000
00000000000000
00000000000000
00001BFF900000
0002FFFFFD0000
001FFFFFFF4000
007FE406FFC000
01FE00007FD000
03F806402FE000
0BF02F802FE000
0FD03F802FE000
1F807F802FD000
2F40BF407FC000
3F00BF41FF4000
3F00FF1BFD0000
7E0BFFFFE40000
7E0FFFFE400000
7E0BFFFF400000
7E01FD7FD00000
7E02FD1FF00000
7E03FC0FF80004
3F03FC07FC002C
2F47F803FE007D
1FDBF801FF82F8
0BFFF400BFFFF0
02FFE0002FFF80
006F800006F900
ENDCHAR
STARTCHAR uni0211
ENCODING 529
SWIDTH 455 0
DWIDTH 13 0
BBX 16 24 1 0
BITMAP
14050000
7E1F8000
7F1FD000
7F4FD000
2F8BE000
0FC3F000
07D1F400
02E0B800
00E03800
00000000
00000000
0B80BD00
2F83FF00
2F8FFF00
3F6FFE00
7F7EFE05
7FB8FE2E
BFF0FFFD
BFD0BFF8
BFC02F90
BF800000
7F400000
7F000000
2E000000
ENDCHAR
STARTCHAR uni0212
ENCODING 530
SWIDTH 880 0
DWIDTH 25 0
BBX 28 31 1 0
BITMAP
000001BF900000
00001FFFF40000
00003FFFFD0000
0000BF41FE0000
0000BC007E0000
00005000140000
00000000000000
00001BFF900000
0002FFFFFD0000
001FFFFFFF4000
007FE406FFC000
01FE00007FD000
03F806402FE000
0BF02F802FE000
0FD03F802FE000
1F807F802FD000
2F40BF407FC000
3F00BF41FF4000
3F00FF1BFD0000
7E0BFFFFE40000
7E0FFFFE400000
7E0BFFFF400000
7E01FD7FD00000
7E02FD1FF00000
7E03FC0FF80004
3F03FC07FC002C
2F47F803FE007D
1FDBF801FF82F8
0BFFF400BFFFF0
02FFE0002FFF80
006F800006F900
ENDCHAR
STARTCHAR uni0213
ENCODING 531
SWIDTH 455 0
DWIDTH 13 0
BBX 16 21 1 0
BITMAP
002FE400
01FFFE00
07FFFF80
0BF46FC0
0FD00FD0
0F800BD0
05000140
00000000
0B80BD00
2F83FF00
2F8FFF00
3F6FFE00
7F7EFE05
7FB8FE2E
BFF0FFFD
BFD0BFF8
BFC02F90
BF800000
7F400000
7F000000
2E000000
ENDCHAR
STARTCHAR uni0214
ENCODING 532
SWIDTH 890 0
DWIDTH 25 0
BBX 29 33 0 0
BITMAP
0000050140000000
00001F47E0000000
00002F8BF0000000
00001FC3F4000000
00000BD2F4000000
000003E0F8000000
000001E078000000
0000000000000000
0000000000000000
006FD00000B80000
02FFF40001FD0000
0FFFFC0002FD0000
3F97FC0002FD0000
BD03FC0003FD0000
F803FC0003FC0000
A003FC0007FC0000
0007F80007F80000
0007F8000BF80000
000BF4000FF40000
000FF4000FF40000
000FF0001FF00000
001FE0002FF00000
002FE0003FE00000
002FD0007FE00000
003FC000FFE00000
007FC001FFD00000
007F8003EFD00000
007F800BAFD00740
007F801F2FD01F40
007FD1BD2FE07F40
003FFFF81FFFFD00
001FFFE00BFFF400
0006FE4001BE4000
ENDCHAR
STARTCHAR uni0215
ENCODING 533
SWIDTH 462 0
DWIDTH 13 0
BBX 16 24 1 0
BITMAP
14050000
7E1FC000
7F5FD000
3F4FE000
2F87F000
0FC3F400
07D1F400
02E0B800
00E03800
00000000
00000000
0BC07D00
1FC0FD00
2F81FC00
3F42F800
7F43F800
7F07F400
BF0BF404
BE1FF01D
BE3FF07D
BFFBF1FC
7FF7FFF4
3FE3FFD0
1F81FA00
ENDCHAR
STARTCHAR uni0216
ENCODING 534
SWIDTH 890 0
DWIDTH 25 0
BBX 29 31 0 0
BITMAP
0000006FE4000000
000002FFFF400000
00000BFFFFC00000
00000FE02FD00000
00001F800BD00000
0000050001400000
0000000000000000
006FD00000B80000
02FFF40001FD0000
0FFFFC0002FD0000
3F97FC0002FD0000
BD03FC0003FD0000
F803FC0003FC0000
A003FC0007FC0000
0007F80007F80000
0007F8000BF80000
000BF4000FF40000
000FF4000FF40000
000FF0001FF00000
001FE0002FF00000
002FE0003FE00000
002FD0007FE00000
003FC000FFE00000
007FC001FFD00000
007F8003EFD00000
007F800BAFD00740
007F801F2FD01F40
007FD1BD2FE07F40
003FFFF81FFFFD00
001FFFE00BFFF400
0006FE4001BE4000
ENDCHAR
STARTCHAR uni0217
ENCODING 535
SWIDTH 462 0
DWIDTH 13 0
BBX 16 21 1 0
BITMAP
002FE400
01FFFE00
07FFFF80
0BF46FC0
0FD00FD0
0F800BD0
05000140
00000000
0BC07D00
1FC0FD00
2F81FC00
3F42F800
7F43F800
7F07F400
BF0BF404
BE1FF01D
BE3FF07D
BFFBF1FC
7FF7FFF4
3FE3FFD0
1F81FA00
ENDCHAR
STARTCHAR uni0218
ENCODING 536
SWIDTH 693 0
DWIDTH 19 0
BBX 19 32 1 -8
BITMAP
0006BFE400
006FFFFF40
01FFFFFFD0
03FE406FF0
0BF4000BF4
0FF00007F4
0FF00007F4
0FF00007F0
0BF80002D0
07FF400000
02FFF40000
00BFFF8000
001BFFF800
0001BFFE00
00000BFF80
290000BFC0
BE00003FD0
FE00002FD0
FE00002FD0
FF00007FC0
BFD006FF40
3FFFFFFE00
0BFFFFF400
01AFFA4000
0000000000
0000000000
0007800000
000BD00000
000FD00000
000FC00000
000F800000
000B400000
ENDCHAR
STARTCHAR uni0219
ENCODING 537
SWIDTH 427 0
DWIDTH 12 0
BBX 17 22 -1 -9
BITMAP
0007E00000
000FD00000
001FC00000
003FC00000
007FD00000
00FFF00000
01FFF80000
07E3FD0340
0FD1FE0F80
2F40FF7F40
7E2FFFFE00
247FFFF800
007FFF9000
001FD00000
0000000000
000B400000
001FC00000
001F800000
002F800000
002F400000
002F000000
001D000000
ENDCHAR
STARTCHAR uni021A
ENCODING 538
SWIDTH 697 0
DWIDTH 20 0
BBX 25 32 1 -8
BITMAP
0006AFFFFFF900
01FFFFFFFFFF40
1FFFFFFFFFFF00
3FE50BF4001400
BF000BF4000000
FD000FF0000000
FD001FF0000000
FE001FE0000000
BF002FD0000000
3D002FD0000000
00003FC0000000
00003FC0000000
00007F80000000
00007F80000000
0000BF40000000
0000BF40000000
0000FF00000000
0000FF00000000
0001FF00000000
0001FE00000000
0001FE00000000
0002FE00000000
0002FD00000000
0000B800000000
00000000000000
00000000000000
0001F400000000
0002F800000000
0002F800000000
0002F400000000
0002F000000000
0002D000000000
ENDCHAR
STARTCHAR uni021B
ENCODING 539
SWIDTH 393 0
DWIDTH 11 0
BBX 15 34 0 -9
BITMAP
0001B800
0007FE00
000FFF00
002F6F00
003F1F00
007D2F00
00BD2F00
00FC3E00
01F87C00
02F8F800
02F6E000
03FFC000
BFFFFF40
FFFFFF40
BFFFFE00
07F00000
0BF00000
0BF00000
07F00000
07F00074
07F401F8
03FD0BF4
01FFFFD0
00BFFF40
001BE800
00000000
00000000
002E0000
003F4000
007F0000
007E0000
007D0000
007C0000
00380000
ENDCHAR
STARTCHAR uni022A
ENCODING 554
SWIDTH 816 0
DWIDTH 23 0
BBX 22 35 1 0
BITMAP
00002FFFE000
00003FFFF000
00002FFFE000
000000000000
000000000000
00007E07D000
0000FF0FF000
0000FF0FF000
00007D0BD000
000000000000
000000000000
00006BFA0000
0006FFFFE000
001FFFFFF800
007FE41BFE00
01FF4001FF40
03FD0000BF80
07F800007FC0
0FF000003FC0
1FE000003FD0
2FE000002FD0
3FD000002FD0
3FC000003FD0
3FC000003FC0
7FC000003FC0
7FC000007F80
3FC00000BF40
3FC00000FF00
2FD00002FE00
2FF00007FC00
0FF8001FF400
07FE41BFE000
02FFFFFF8000
007FFFF90000
0006FE900000
ENDCHAR
STARTCHAR uni022B
ENCODING 555
SWIDTH 451 0
DWIDTH 13 0
BBX 16 24 1 0
BITMAP
02FFFD00
07FFFE00
03FFFD00
00000000
00000000
0BD0BC00
1FE1FE00
1FE1FD00
0B80B800
00000000
00000000
01BE4000
0BFFE000
2FFFF400
7F8FF800
BF0FFC18
FE0BFFFD
FD03FFFD
FD01FFE4
FE01F800
BF47F400
7FFFE000
1FFF8000
06F90000
ENDCHAR
STARTCHAR uni022C
ENCODING 556
SWIDTH 816 0
DWIDTH 23 0
BBX 22 36 1 0
BITMAP
00001FFFF000
00002FFFF000
00001FFFE000
000000000000
000015000000
00007F807C00
0001FFF4FC00
0002FAFFF800
0003E07FF000
0001401B9000
000000000000
000000000000
00006BFA0000
0006FFFFE000
001FFFFFF800
007FE41BFE00
01FF4001FF40
03FD0000BF80
07F800007FC0
0FF000003FC0
1FE000003FD0
2FE000002FD0
3FD000002FD0
3FC000003FD0
3FC000003FC0
7FC000003FC0
7FC000007F80
3FC00000BF40
3FC00000FF00
2FD00002FE00
2FF00007FC00
0FF8001FF400
07FE41BFE000
02FFFFFF8000
007FFFF90000
0006FE900000
ENDCHAR
STARTCHAR uni022D
ENCODING 557
SWIDTH 451 0
DWIDTH 13 0
BBX 16 25 1 0
BITMAP
02FFFE00
03FFFE00
02FFFD00
00000000
01500000
0BF80780
1FFE1F80
3F7FFF40
7D0BFE00
1401F800
00000000
00000000
01BE4000
0BFFE000
2FFFF400
7F8FF800
BF0FFC18
FE0BFFFD
FD03FFFD
FD01FFE4
FE01F800
BF47F400
7FFFE000
1FFF8000
06F90000
ENDCHAR
STARTCHAR uni0230
ENCODING 560
SWIDTH 816 0
DWIDTH 23 0
BBX 22 35 1 0
BITMAP
00001FFFE000
00003FFFF000
00002FFFE000
000000000000
000000000000
000002F80000
000007FD0000
00000BFD0000
000002F80000
000000000000
000000000000
00006BFA0000
0006FFFFE000
001FFFFFF800
007FE41BFE00
01FF4001FF40
03FD0000BF80
07F800007FC0
0FF000003FC0
1FE000003FD0
2FE000002FD0
3FD000002FD0
3FC000003FD0
3FC000003FC0
7FC000003FC0
7FC000007F80
3FC00000BF40
3FC00000FF00
2FD00002FE00
2FF00007FC00
0FF8001FF400
07FE41BFE000
02FFFFFF8000
007FFFF90000
0006FE900000
ENDCHAR
STARTCHAR uni0231
ENCODING 561
SWIDTH 451 0
DWIDTH 13 0
BBX 16 24 1 0
BITMAP
02FFFD00
07FFFE00
03FFFD00
00000000
00000000
002F4000
00BFC000
00BFC000
007E4000
00000000
00000000
01BE4000
0BFFE000
2FFFF400
7F8FF800
BF0FFC18
FE0BFFFD
FD03FFFD
FD01FFE4
FE01F800
BF47F400
7FFFE000
1FFF8000
06F90000
ENDCHAR
STARTCHAR uni0232
ENCODING 562
SWIDTH 851 0
DWIDTH 24 0
BBX 27 37 0 -8
BITMAP
000002FFFE0000
000003FFFF0000
000002FFFE0000
00000000000000
00000000000000
006FD00000B800
02FFF40001FD00
1FFFFC0002FD00
3F87FC0002FD00
BD03FC0003FC00
F403FC0003FC00
9003FC0007FC00
0007F8000BF800
000BF8000BF800
000BF4000FF400
000FF0001FF400
001FF0003FF000
001FE0007FF000
002FD000FFE000
002FD002EFE000
002FE007DFD000
001FF46F9FD000
000FFFFE1FD6B8
0007FFF82FFFF8
0001BF91BFFFF4
0000001FFFE900
000001FFBF8000
00000BF47F4000
00007F807F4000
0000FD00BF0000
0002F800FE0000
0003F401FD0000
0007F403F80000
0007F81FF40000
0003FFFFD00000
0001FFFF400000
00006FE4000000
ENDCHAR
STARTCHAR uni0233
ENCODING 563
SWIDTH 479 0
DWIDTH 13 0
BBX 17 31 0 -13
BITMAP
00BFFF8000
00FFFF8000
00FFFF4000
0000000000
0000000000
02F01F4000
07F03F4000
0BE07F0000
0FD0BF0000
1FD0FE0000
1FC1FE0000
2FC2FD0100
2F87FD0B40
2F8FFC7F40
2FFFFEFE00
1FFEFFF400
0FF9FF9000
07E2FE0000
000BF40000
002FF00000
00FFF00000
03FBE00000
0BDBD00000
2F4FC00000
7D1F800000
BC2F400000
F83F000000
F8BE000000
FFFC000000
BFF4000000
2F90000000
ENDCHAR
STARTCHAR uni0237
ENCODING 567
SWIDTH 254 0
DWIDTH 7 0
BBX 17 26 -7 -13
BITMAP
00001F8000
00002F8000
00002F8000
00003F8000
00003F4000
00003F4000
00007F0000
00007F02C0
00007F1FC0
0000BEBF80
0000BFFD00
0000FFE000
0000FF4000
0002FC0000
000FFC0000
007FF80000
01FAF40000
03E3F00000
0BC7F00000
1F47E00000
3E0FD00000
7D1F800000
7E3F400000
7FFE000000
3FFC000000
0BE0000000
ENDCHAR
STARTCHAR uni0259
ENCODING 601
SWIDTH 458 0
DWIDTH 13 0
BBX 12 13 1 0
BITMAP
0AFE40
3FFFE0
7FFFF4
2407F8
0002FC
0001FD
7FFFFD
BFFFFC
FD02FC
BE47F8
7FFFF0
2FFFD0
06FE00
ENDCHAR
STARTCHAR uni02BC
ENCODING 700
SWIDTH 600 0
DWIDTH 17 0
BBX 4 7 7 15
BITMAP
2E
7F
7F
7E
7D
BC
74
ENDCHAR
STARTCHAR circumflex
ENCODING 710
SWIDTH 600 0
DWIDTH 17 0
BBX 9 9 4 15
BITMAP
00B800
02FE00
07FF00
0FEF40
1F5F40
3F1F80
BD0FC0
FC0FC0
F40B80
ENDCHAR
STARTCHAR caron
ENCODING 711
SWIDTH 600 0
DWIDTH 17 0
BBX 10 9 5 15
BITMAP
B807D0
FC0FD0
FD1F80
BD3F40
7D7E00
3EFC00
3FF400
2FE000
0B8000
ENDCHAR
STARTCHAR uni02C9
ENCODING 713
SWIDTH 600 0
DWIDTH 17 0
BBX 9 3 4 15
BITMAP
BFFF80
FFFFC0
BFFF80
ENDCHAR
STARTCHAR breve
ENCODING 728
SWIDTH 600 0
DWIDTH 17 0
BBX 12 6 3 15
BITMAP
78002D
FD00BE
BF42FD
7FFFF8
1FFFE0
06FE40
ENDCHAR
STARTCHAR dotaccent
ENCODING 729
SWIDTH 600 0
DWIDTH 17 0
BBX 5 4 6 15
BITMAP
2F40
BFC0
BFC0
6F40
ENDCHAR
STARTCHAR ring
ENCODING 730
SWIDTH 600 0
DWIDTH 17 0
BBX 8 8 5 15
BITMAP
0BE0
3FFC
BFFE
BC3E
B87E
BFFD
7FF8
1BE0
ENDCHAR
STARTCHAR ogonek
ENCODING 731
SWIDTH 600 0
DWIDTH 17 0
BBX 8 9 3 -7
BITMAP
0180
0BD0
1F80
3F00
3E00
7F40
3FFF
2FFF
06F9
ENDCHAR
STARTCHAR tilde
ENCODING 732
SWIDTH 600 0
DWIDTH 17 0
BBX 13 6 2 15
BITMAP
01500000
0BF80780
1FFF5F80
3F7FFF40
7D0BFE00
1401B800
ENDCHAR
STARTCHAR hungarumlaut
ENCODING 733
SWIDTH 600 0
DWIDTH 17 0
BBX 11 9 5 15
BITMAP
050150
0FC3F0
1FD7F4
2FCBF0
3F4FD0
7E1F80
BC2F00
F43E00
A02800
ENDCHAR
STARTCHAR gravecomb
ENCODING 768
SWIDTH 0 0
DWIDTH 0 0
BBX 7 9 -14 15
BITMAP
1400
7F00
7F40
3F80
1FD0
0BE0
02F0
00F8
0074
ENDCHAR
STARTCHAR acutecomb
ENCODING 769
SWIDTH 0 0
DWIDTH 0 0
BBX 6 9 -9 15
BITMAP
0140
07E0
0FE0
1FD0
3F80
7F00
BD00
F400
E000
ENDCHAR
STARTCHAR uni0302
ENCODING 770
SWIDTH 0 0
DWIDTH 0 0
BBX 10 9 -13 15
BITMAP
00BD00
01FF00
03FF00
0BDF40
1F8F80
3F4FC0
7E0FC0
FD0BD0
B40780
ENDCHAR
STARTCHAR tildecomb
ENCODING 771
SWIDTH 0 0
DWIDTH 0 0
BBX 12 6 -14 15
BITMAP
054000
1FE01E
7FFD3F
BEBFFE
F81FF8
5006E0
ENDCHAR
STARTCHAR uni0304
ENCODING 772
SWIDTH 0 0
DWIDTH 0 0
BBX 10 3 -13 15
BITMAP
7FFFC0
BFFFD0
7FFF80
ENDCHAR
STARTCHAR uni0306
ENCODING 774
SWIDTH 0 0
DWIDTH 0 0
BBX 12 6 -14 15
BITMAP
78002D
BE007E
BF41FD
3FFFFC
1FFFF0
02FE40
ENDCHAR
STARTCHAR uni0307
ENCODING 775
SWIDTH 0 0
DWIDTH 0 0
BBX 6 4 -11 15
BITMAP
2F80
7FD0
BFD0
2F40
ENDCHAR
STARTCHAR uni0308
ENCODING 776
SWIDTH 0 0
DWIDTH 0 0
BBX 10 4 -13 15
BITMAP
7E07D0
FF0FF0
FF0FE0
7D0BD0
ENDCHAR
STARTCHAR hookabovecomb
ENCODING 777
SWIDTH 0 0
DWIDTH 0 0
BBX 7 8 -11 15
BITMAP
7F90
BFF4
01F8
00B8
00B8
01F4
2FE0
2F80
ENDCHAR
STARTCHAR uni030A
ENCODING 778
SWIDTH 0 0
DWIDTH 0 0
BBX 8 8 -12 15
BITMAP
0BE4
2FFD
7FFE
BD2F
BD2E
7FFE
3FFC
0BE0
ENDCHAR
STARTCHAR uni030B
ENCODING 779
SWIDTH 0 0
DWIDTH 0 0
BBX 11 9 -12 15
BITMAP
014050
0FD2F4
1FD3F4
2FC7F0
3F4BE0
3F0FC0
7D1F40
B82E00
B02C00
ENDCHAR
STARTCHAR uni030C
ENCODING 780
SWIDTH 0 0
DWIDTH 0 0
BBX 10 9 -12 15
BITMAP
7802D0
BD0BD0
BD1FC0
7E2F40
3E7E00
3EBD00
2FF800
1FF000
0B9000
ENDCHAR
STARTCHAR uni030F
ENCODING 783
SWIDTH 0 0
DWIDTH 0 0
BBX 10 9 -15 15
BITMAP
140500
FD2F40
FE3F80
BF2FC0
3F4FD0
2F47E0
0F83F0
07C1F0
02C0B0
ENDCHAR
STARTCHAR uni0311
ENCODING 785
SWIDTH 0 0
DWIDTH 0 0
BBX 12 7 -14 14
BITMAP
01BF80
0BFFF4
2FFFFC
7F82FE
BE00BE
BC007E
100014
ENDCHAR
STARTCHAR uni0312
ENCODING 786
SWIDTH 0 0
DWIDTH 0 0
BBX 4 7 -10 15
BITMAP
2E
3F
7F
7E
7D
7C
78
ENDCHAR
STARTCHAR uni031B
ENCODING 795
SWIDTH 0 0
DWIDTH 0 0
BBX 5 7 -9 10
BITMAP
0140
07C0
0BC0
1FC0
BF80
BE00
E400
ENDCHAR
STARTCHAR dotbelowcomb
ENCODING 803
SWIDTH 0 0
DWIDTH 0 0
BBX 5 4 -13 -6
BITMAP
6E40
FF80
FF80
7E00
ENDCHAR
STARTCHAR uni0324
ENCODING 804
SWIDTH 0 0
DWIDTH 0 0
BBX 11 4 -16 -6
BITMAP
2E02E0
7F4BF4
BF4BF4
7E07E0
ENDCHAR
STARTCHAR uni0326
ENCODING 806
SWIDTH 0 0
DWIDTH 0 0
BBX 4 7 -13 -9
BITMAP
2E
3F
7F
7E
7D
7C
78
ENDCHAR
STARTCHAR uni0327
ENCODING 807
SWIDTH 0 0
DWIDTH 0 0
BBX 8 8 -15 -7
BITMAP
1FE4
1FFD
01BE
003F
007E
FFFD
FFF8
BF90
ENDCHAR
STARTCHAR uni0328
ENCODING 808
SWIDTH 0 0
DWIDTH 0 0
BBX 8 9 -13 -7
BITMAP
0600
1F80
7E00
BC00
FC00
FD00
BFFD
7FFD
1BF4
ENDCHAR
STARTCHAR uni032E
ENCODING 814
SWIDTH 0 0
DWIDTH 0 0
BBX 12 6 -17 -8
BITMAP
7C001E
BE007F
7F81FE
3FFFFC
1FFFF4
02FE40
ENDCHAR
STARTCHAR uni0331
ENCODING 817
SWIDTH 0 0
DWIDTH 0 0
BBX 9 3 -15 -5
BITMAP
BFFF80
FFFFC0
BFFF40
ENDCHAR
STARTCHAR uni0394
ENCODING 916
SWIDTH 700 0
DWIDTH 20 0
BBX 17 24 1 0
BITMAP
00001F0000
00003F4000
00007F8000
0000FFC000
0001FFC000
0002FFD000
0007FBD000
000BE7E000
000FD7F000
002F83F000
003F43F400
007F02F400
00FE02F800
01FC01F800
02F801FC00
03F400FD00
0BF000FD00
0FD000BE00
1FC000BE00
3F80007F00
7F40007F40
BFFFFFFF40
FFFFFFFF40
BFFFFFFF40
ENDCHAR
STARTCHAR uni03A9
ENCODING 937
SWIDTH 816 0
DWIDTH 23 0
BBX 24 24 -1 0
BITMAP
000006BF9000
00002FFFFD00
0001FFFFFF80
0007FE41BFD0
001FF4001FF0
003FD0000BF8
007F800007FC
00FF000003FC
01FE000003FD
02FD000002FD
02FD000002FD
03FC000003FD
03FC000003FD
03FC000003FC
07FC000007F8
03FC00000BF8
03FD00001FF4
03FE00002FE0
02FF00007FD0
01FF8001FF40
00BFD007FE00
2FFFF41FFFF8
BFFFF42FFFFD
7FFFE01FFFF8
ENDCHAR
STARTCHAR uni03BC
ENCODING 956
SWIDTH 462 0
DWIDTH 13 0
BBX 17 21 0 -8
BITMAP
0150050000
07F02F4000
0BE03F0000
0FD07F0000
0FD0BE0000
1FC1FD0000
1FC2FD0000
2F87FC0740
2F8FFC1F40
2FFEFC7F40
3FFDFFFD00
3FF8FFF400
3FE07F8000
3F40000000
3F40000000
3F40000000
7F40000000
7F40000000
7F40000000
7F00000000
2E00000000
ENDCHAR
STARTCHAR pi
ENCODING 960
SWIDTH 496 0
DWIDTH 14 0
BBX 18 14 0 0
BITMAP
3FFFFFFD00
7FFFFFFD00
2FFFFFE400
0BE02F8000
0FE03F4000
0FD07F4000
1FD07F0000
1FC0BF0040
2FC0BE01D0
2F80BE07D0
3F80BF1FC0
3F807FFF40
3F403FFD00
2F001BE000
ENDCHAR
STARTCHAR uni0400
ENCODING 1024
SWIDTH 686 0
DWIDTH 19 0
BBX 22 33 1 0
BITMAP
001400000000
007F40000000
007FD0000000
002FF8000000
0007FE000000
00007F800000
000007800000
000000000000
000000000000
00016FF90000
001BFFFFD000
007FFFFFF000
01FFD01BF800
03FE0003FC00
07FC0002FC00
07F80003FC00
07F80003F800
03FD0002F000
02FF50000000
007FFF400000
006FFF400000
06FFFF000000
1FFD40000000
7FD000000000
BF8000000000
FF0000000000
FF0000000000
FF4000000000
BFC0000006E0
7FF90016BFE0
1FFFFFFFFFD0
06FFFFFFFE00
005AFFFA4000
ENDCHAR
STARTCHAR uni0401
ENCODING 1025
SWIDTH 686 0
DWIDTH 19 0
BBX 22 30 1 0
BITMAP
0000BD0B8000
0001FE2FE000
0001FE2FD000
0000B80F8000
000000000000
000000000000
00016FF90000
001BFFFFD000
007FFFFFF000
01FFD01BF800
03FE0003FC00
07FC0002FC00
07F80003FC00
07F80003F800
03FD0002F000
02FF50000000
007FFF400000
006FFF400000
06FFFF000000
1FFD40000000
7FD000000000
BF8000000000
FF0000000000
FF0000000000
FF4000000000
BFC0000006E0
7FF90016BFE0
1FFFFFFFFFD0
06FFFFFFFE00
005AFFFA4000
ENDCHAR
STARTCHAR uni0402
ENCODING 1026
SWIDTH 974 0
DWIDTH 27 0
BBX 30 37 1 -13
BITMAP
0006AFFFFFF90000
01BFFFFFFFFF4000
0BFFFFFFFFFF0000
3FE40BF400000000
BF400BF400000000
FE000FF000000000
FD001FF000000000
FD001FE000000000
BE002FE000000000
7F002FD000000000
29003FD000000000
00003FC06FE40000
00007FC7FFFD0000
00007F9FFFFF0000
0000BFBE41FF4000
0000BFF400BF8000
0000FFD0007F8000
0000FF4000BF42C0
0001FF0000BF4BD0
0001FE0000BFBFD0
0001FE0000FFFF40
0002FE0000FFFD00
0002FD0001FFE000
0000B80002FF4000
000000000FFD0000
000000007FFC0000
00000001FFF80000
00000007FFF80000
0000001FE7F40000
0000002F8BF00000
0000007F0FE00000
000000BD1FD00000
000000FD2F800000
000000FD7F400000
000000FFFE000000
000000BFF8000000
0000001F90000000
ENDCHAR
STARTCHAR uni0403
ENCODING 1027
SWIDTH 635 0
DWIDTH 18 0
BBX 23 33 1 0
BITMAP
000000014000
0000000BF000
0000002FF000
000000BFE000
000007FE4000
00000FE40000
00000E400000
000000000000
000000000000
001ABFFFFFFC
02FFFFFFFFFC
1FFFFFFFFFA4
7FE5FF000000
BF41FE000000
FD01FD000000
FD02FD000000
FE03FC000000
BF03FC000000
2D07F8000000
0007F8000000
000BF4000000
000BF4000000
000FF0000000
000FF0000000
001FE0000000
001FE0000000
002FD0000000
002FD0000000
003FD0000000
003FC0000000
003FC0000000
003FC0000000
002F40000000
ENDCHAR
STARTCHAR uni0404
ENCODING 1028
SWIDTH 687 0
DWIDTH 19 0
BBX 21 24 2 0
BITMAP
0001AFE40000
001BFFFF4000
007FFFFFC000
01FF902FD000
07FE001FE000
0FF8000FE000
2FF0001FE000
3FD0001FD000
7FC0000B8000
BF8000000000
FF4000000000
FFFFFF800000
FFFFFFD00000
FFFFFF800000
FF0000000000
FF0000000000
FF4000000000
BF8000000000
7FD000000000
2FF400000B80
0FFE4006BF80
03FFFFFFFF40
00BFFFFFF800
0006FFE94000
ENDCHAR
STARTCHAR uni0405
ENCODING 1029
SWIDTH 693 0
DWIDTH 19 0
BBX 19 24 1 0
BITMAP
0006BFE400
006FFFFF40
01FFFFFFD0
03FE406FF0
0BF4000BF4
0FF00007F4
0FF00007F4
0FF00007F0
0BF80002D0
07FF400000
02FFF40000
00BFFF8000
001BFFF800
0001BFFE00
00000BFF80
290000BFC0
BE00003FD0
FE00002FD0
FE00002FD0
FF00007FC0
BFD006FF40
3FFFFFFE00
0BFFFFF400
01AFFA4000
ENDCHAR
STARTCHAR uni0406
ENCODING 1030
SWIDTH 495 0
DWIDTH 14 0
BBX 17 24 -1 0
BITMAP
007FFFFF40
00FFFFFF40
00BFFFFE00
0000FF0000
0001FE0000
0001FE0000
0002FD0000
0002FD0000
0003FC0000
0003FC0000
0003F80000
0007F80000
0007F40000
000BF40000
000BF00000
000FF00000
000FF00000
001FE00000
001FE00000
002FD00000
002FD00000
1FFFFF8000
7FFFFFD000
7FFFFF8000
ENDCHAR
STARTCHAR uni0407
ENCODING 1031
SWIDTH 495 0
DWIDTH 14 0
BBX 17 30 -1 0
BITMAP
0007E07D00
000FF0FF00
000FF0FF00
0007D0BD00
0000000000
0000000000
007FFFFF40
00FFFFFF40
00BFFFFE00
0000FF0000
0001FE0000
0001FE0000
0002FD0000
0002FD0000
0003FC0000
0003FC0000
0003F80000
0007F80000
0007F40000
000BF40000
000BF00000
000FF00000
000FF00000
001FE00000
001FE00000
002FD00000
002FD00000
1FFFFF8000
7FFFFFD000
7FFFFF8000
ENDCHAR
STARTCHAR uni0408
ENCODING 1032
SWIDTH 743 0
DWIDTH 21 0
BBX 20 26 2 -2
BITMAP
001AFFFE90
02FFFFFFFD
1FFFFFFFFD
7FE5001FF4
BF00000FF0
FD00001FE0
FD00001FE0
FE00001FD0
BF00002FD0
2D00002FC0
0000003FC0
000002FF80
00002FFF80
0001FFFF40
000BFDBF00
003FD0FF00
00FF40FE00
02FC01FD00
07F402FC00
0BF003F800
0BE00BF000
0FE01FE000
0BF47FC000
07FFFF4000
02FFFD0000
007F900000
ENDCHAR
STARTCHAR uni0409
ENCODING 1033
SWIDTH 1158 0
DWIDTH 32 0
BBX 32 24 0 0
BITMAP
00000000BD000000
00000002FF000000
00000003FF000000
00000007FF000000
0000000BFF000000
0000000FFE000000
0000001FFE000000
0000002FFE000000
0000003FFE000000
0000007FFE1AFE40
000000BEFFFFFFF4
000000FDFFFFFFFC
000001FCFF941BFE
000002F8FE0002FF
000007F4FE0001FF
00000BF0FE0000FF
00001FE0FE0000FF
14002FC0FF0001FE
BD007F80BF4002FD
BE00FF007F8007FC
BF47FD003FE01FF4
3FFFF8001FFFFFE0
1FFFE00007FFFF40
02FE400000AFE400
ENDCHAR
STARTCHAR uni040A
ENCODING 1034
SWIDTH 1182 0
DWIDTH 33 0
BBX 34 24 -1 0
BITMAP
001BE40000B8000000
01FFFC0002FC000000
07FFFE0003FC000000
1FD1FE0003FC000000
3F00FF0007F8000000
7D00FF0007F4000000
7400FF000BF0000000
0000FF000FF0000000
0000FE000FE0000000
0001FE001FD6BFE400
0001FE001FFFFFFE00
0002FD016FFFFFFF80
00BFFFFFFFE901BFD0
01FFFFFFFF80002FE0
00BFFFFA7F80001FE0
0007F8003F80001FE0
000BF4003F80001FE0
000BF0003F80002FD0
000FF0003FC0003FC0
001FE0002FD000BF80
002FD0001FF407FF00
002FD0000BFFFFFC00
003FC00002FFFFE000
001F4000006FF90000
ENDCHAR
STARTCHAR uni040B
ENCODING 1035
SWIDTH 979 0
DWIDTH 27 0
BBX 30 24 1 0
BITMAP
0006AFFFFFF90000
01BFFFFFFFFF4000
0BFFFFFFFFFF0000
3FE40BF400000000
BF400BF400000000
FE000FF000000000
FD001FF000000000
FD001FE000000000
BE002FE000000000
7F002FD000000000
29003FD000000000
00003FC06FE40000
00007FC7FFFD0000
00007F9FFFFF0000
0000BFBE41FF4000
0000BFF400BF8000
0000FFD0007F8000
0000FF8000BF4000
0001FF0000BF40B0
0001FE0000FF02F0
0001FE0000FF0BE0
0002FE0000FFFF80
0002FD0000BFFE00
0000B800002FE400
ENDCHAR
STARTCHAR uni040C
ENCODING 1036
SWIDTH 937 0
DWIDTH 26 0
BBX 30 33 0 0
BITMAP
0000000000014000
00000000001FD000
00000000007FE000
0000000001FFC000
000000000BFD0000
000000002FE00000
000000002E000000
0000000000000000
0000000000000000
0006BFE50001F800
007FFFFF4003FC00
01FFFFFF8007F800
07FD02FE000BF400
0BE002FD000FF000
0FD003FC001FE000
0FD003FC003FC000
0FD003F800BF8000
0FE007F801FF0000
0BE007F403FD0000
02D00BF41FF40000
00000BF5BFD00000
0000BFFFFE000000
0000FFFFE4000000
0000BFFFF8000000
00001FE6FE000000
00001FD0FF800000
00002FD07FC00000
2C003FC03FE000A0
7E007F801FF402E0
3F91FF400FFD1BD0
2FFFFE0007FFFF80
0BFFF80001FFFE00
01BF9000006FE400
ENDCHAR
STARTCHAR uni040D
ENCODING 1037
SWIDTH 890 0
DWIDTH 25 0
BBX 29 33 0 0
BITMAP
0000500000000000
0001FC0000000000
0002FF4000000000
0000FFD000000000
00002FF800000000
000002FE00000000
0000002D00000000
0000000000000000
0000000000000000
006FD00000B80000
02FFF40001FD0000
0FFFFC0002FD0000
3F97FC0002FD0000
BD03FC0003FD0000
F803FC0003FC0000
A003FC0007FC0000
0007F80007F80000
0007F8000BF80000
000BF4000FF40000
000FF4000FF40000
000FF0001FF00000
001FE0002FF00000
002FE0003FE00000
002FD0007FE00000
003FC000FFE00000
007FC001FFD00000
007F8003EFD00000
007F800BAFD00740
007F801F2FD01F40
007FD1BD2FE07F40
003FFFF81FFFFD00
001FFFE00BFFF400
0006FE4001BE4000
ENDCHAR
STARTCHAR uni040E
ENCODING 1038
SWIDTH 824 0
DWIDTH 23 0
BBX 26 38 1 -6
BITMAP
000000001E0000
00001E003E0000
00003F81BD0000
00002FFFFC0000
00001FFFF00000
000002FE400000
00000000000000
00000000000000
01BE400002E000
1FFFD0000BF400
7FFFE0000BF400
FD1FF0000FF000
F40FF0001FF000
001FE0002FE000
001FE0003FE000
002FD0007FD000
003FC000BFD000
007F8001FFC000
007F8007FFC000
007F801FBF8000
007FD0BF7F8000
003FFFFD7F4000
001FFFF47F4040
0002FE407FAFE0
00000000BFFFE0
0000000BFFFF90
000001BFFF9400
00001BFFFD0000
00007FE5FD0000
0002FE01FC0000
0007F402F80000
000FE003F40000
001FC00BF00000
001FC01FE00000
001FE07FC00000
000FFFFF400000
0007FFFD000000
0001BF90000000
ENDCHAR
STARTCHAR uni040F
ENCODING 1039
SWIDTH 890 0
DWIDTH 25 0
BBX 29 30 0 -6
BITMAP
006FD00000B80000
02FFF40001FD0000
0FFFFC0002FD0000
3F83FC0002FD0000
BD03FC0003FD0000
F803FC0003FC0000
A003FC0007FC0000
0007F80007F80000
000BF8000BF80000
000BF4000FF40000
000FF4000FF40000
000FF0001FF00000
001FE0002FF00000
002FE0003FE00000
002FD0007FE00000
003FC000BFE00000
007FC001FFD00000
007F8003EFD00000
007F800BAFD00240
007F801F6FD00F40
007FD0BE2FE07F40
003FFFF81FFFFD00
001FFFE00BFFF400
0006FF4001BE4000
0001FD0000000000
0002FC0000000000
0002FC0000000000
0003F80000000000
0003F40000000000
0001500000000000
ENDCHAR
STARTCHAR uni0410
ENCODING 1040
SWIDTH 786 0
DWIDTH 22 0
BBX 25 24 1 0
BITMAP
000001AFFE9000
00006FFFFFF400
0002FFFFFFF400
000FFE50069000
003FF400140000
00FF8001FD0000
02FE0002FD0000
07FC0002FD0000
0BF40003FC0000
1FF00007F80000
2FE00007F80000
3FD0000BF40000
3FC0000FF40000
7FC0001FF00000
7F80001FF00000
7F80002FE00000
7F80007FE00000
7FC000BFE00000
3FC001FFE00780
2FE003FFE00F80
1FF81FDFF47F40
0BFFFF4FFFFD00
02FFFE07FFF400
006FE401BF8000
ENDCHAR
STARTCHAR uni0411
ENCODING 1041
SWIDTH 917 0
DWIDTH 26 0
BBX 24 25 1 -1
BITMAP
001ABFFFFFFC
02FFFFFFFFFC
1FFFFFFFFFA4
7FE57FC00000
BF007F800000
FD007F400000
FD00BF400000
FE00FF000000
BF00FF000000
2E01FE000000
0001FFAFFA40
0006FFFFFFE0
002FFFFFFFFC
007FFD401BFE
002FFC0001FF
0007F80000FF
0007F80000FF
000BF40000FF
000BF40001FE
000BF40007FD
000FF0001FF8
000FF006FFE0
000FF0BFFF80
000FE0BFE800
000140150000
ENDCHAR
STARTCHAR uni0412
ENCODING 1042
SWIDTH 827 0
DWIDTH 23 0
BBX 25 26 0 -2
BITMAP
00006BFFE90000
006FFFFFFFD000
06FFFFFFFFF800
2FFF94006FFE00
7FE4000002FF00
7E00000000FF40
100BE00000FF40
000FF00000FF00
001FE00001FE00
002FD00007FD00
003FC001BFF400
003F80FFFF9000
007F81FFF90000
00BF41FFFD0000
00BF4006FF4000
00FF00007FC000
00FF00003FD000
01FE00003FD000
01FE00007FC000
01FE0001FF8000
02FD005BFF0000
02FFFFFFF80000
02FFFFFFD00000
03FFFFA5000000
02FC0000000000
00500000000000
ENDCHAR
STARTCHAR uni0413
ENCODING 1043
SWIDTH 635 0
DWIDTH 18 0
BBX 23 24 1 0
BITMAP
001ABFFFFFFC
02FFFFFFFFFC
1FFFFFFFFFA4
7FE5FF000000
BF41FE000000
FD01FD000000
FD02FD000000
FE03FC000000
BF03FC000000
2D07F8000000
0007F8000000
000BF4000000
000BF4000000
000FF0000000
000FF0000000
001FE0000000
001FE0000000
002FD0000000
002FD0000000
003FD0000000
003FC0000000
003FC0000000
003FC0000000
002F40000000
ENDCHAR
STARTCHAR uni0414
ENCODING 1044
SWIDTH 964 0
DWIDTH 27 0
BBX 27 24 0 0
BITMAP
000006BFF90000
0001BFFFFFE000
001FFFFFFFFD00
003FF9401BFF00
007F400000FF80
00240140007FD0
00000BE0002FE0
00001FE0001FF0
00002FC0000FF0
00003F80000FF4
00007F40000BF4
0000BF00000BF4
0000FE00000FF4
0001FE00000FF0
0001FD00000FF0
0002FD00001FE0
0002FC00002FD0
0BFBF800003FC0
2FFFF80000BF80
7FFFFD0001FF00
BE0BFFD40BFD00
7FFFDBFFFFF800
3FFF81FFFFD000
1BF9001BFA0000
ENDCHAR
STARTCHAR uni0415
ENCODING 1045
SWIDTH 686 0
DWIDTH 19 0
BBX 22 24 1 0
BITMAP
00016FF90000
001BFFFFD000
007FFFFFF000
01FFD01BF800
03FE0003FC00
07FC0002FC00
07F80003FC00
07F80003F800
03FD0002F000
02FF50000000
007FFF400000
006FFF400000
06FFFF000000
1FFD40000000
7FD000000000
BF8000000000
FF0000000000
FF0000000000
FF4000000000
BFC0000006E0
7FF90016BFE0
1FFFFFFFFFD0
06FFFFFFFE00
005AFFFA4000
ENDCHAR
STARTCHAR uni0416
ENCODING 1046
SWIDTH 1234 0
DWIDTH 35 0
BBX 37 24 0 0
BITMAP
0006F90002F4001BF800
002FFF8003F8007FFF00
00BFFFD007F800FFFF80
00B81FE007F802FD2F80
00500BF40BF407F80500
000003F80BF40BF00000
000002F80BF01FE00000
000002FC0FF03FC00000
000001FD0FE0BF800000
000000BF5FEBFE000000
0000003FFFFFF4000000
0000001FFFFF40000000
000000BFFFFFD0000000
000003FF7FDFF4000000
00000FF83F87FC000000
00002FE07F82FD000000
00003FC07F41FE000000
0000BF407F40FF400000
0400FF00BF407F8002C0
3F02FD00BF003FD007C0
7F47F800FF001FF42F80
3FFFF000FF000BFFFE00
1FFFD000FE0003FFF800
06FE0000BD0000BF9000
ENDCHAR
STARTCHAR uni0417
ENCODING 1047
SWIDTH 725 0
DWIDTH 20 0
BBX 19 24 1 0
BITMAP
0001BFE400
002FFFFE00
00BFFFFF80
02FF40BFC0
03FC002FD0
07F4002FD0
07F4002FC0
03F4002FC0
01E0003F40
000000BF00
000002FD00
0002FFF900
000BFFFF80
0007E92FE0
0000000FF0
0500000BF4
3F40000FF4
7F40000FF4
7F80002FF0
7FC0007FD0
3FE406FF80
1FFFFFFE00
07FFFFF400
006FFA4000
ENDCHAR
STARTCHAR uni0418
ENCODING 1048
SWIDTH 890 0
DWIDTH 25 0
BBX 29 24 0 0
BITMAP
006FD00000B80000
02FFF40001FD0000
0FFFFC0002FD0000
3F97FC0002FD0000
BD03FC0003FD0000
F803FC0003FC0000
A003FC0007FC0000
0007F80007F80000
0007F8000BF80000
000BF4000FF40000
000FF4000FF40000
000FF0001FF00000
001FE0002FF00000
002FE0003FE00000
002FD0007FE00000
003FC000FFE00000
007FC001FFD00000
007F8003EFD00000
007F800BAFD00740
007F801F2FD01F40
007FD1BD2FE07F40
003FFFF81FFFFD00
001FFFE00BFFF400
0006FE4001BE4000
ENDCHAR
STARTCHAR uni0419
ENCODING 1049
SWIDTH 890 0
DWIDTH 25 0
BBX 29 32 0 0
BITMAP
0000000003800000
000007D00BC00000
00000BF02F800000
000007FFFF400000
000002FFFD000000
0000006FE0000000
0000000000000000
0000000000000000
006FD00000B80000
02FFF40001FD0000
0FFFFC0002FD0000
3F97FC0002FD0000
BD03FC0003FD0000
F803FC0003FC0000
A003FC0007FC0000
0007F80007F80000
0007F8000BF80000
000BF4000FF40000
000FF4000FF40000
000FF0001FF00000
001FE0002FF00000
002FE0003FE00000
002FD0007FE00000
003FC000FFE00000
007FC001FFD00000
007F8003EFD00000
007F800BAFD00740
007F801F2FD01F40
007FD1BD2FE07F40
003FFFF81FFFFD00
001FFFE00BFFF400
0006FE4001BE4000
ENDCHAR
STARTCHAR uni041A
ENCODING 1050
SWIDTH 937 0
DWIDTH 26 0
BBX 30 24 0 0
BITMAP
0006BFE50001F800
007FFFFF4003FC00
01FFFFFF8007F800
07FD02FE000BF400
0BE002FD000FF000
0FD003FC001FE000
0FD003FC003FC000
0FD003F800BF8000
0FE007F801FF0000
0BE007F403FD0000
02D00BF41FF40000
00000BF5BFD00000
0000BFFFFE000000
0000FFFFE4000000
0000BFFFF8000000
00001FE6FE000000
00001FD0FF800000
00002FD07FC00000
2C003FC03FE000A0
7E007F801FF402E0
3F91FF400FFD1BD0
2FFFFE0007FFFF80
0BFFF80001FFFE00
01BF9000006FE400
ENDCHAR
STARTCHAR uni041B
ENCODING 1051
SWIDTH 861 0
DWIDTH 24 0
BBX 28 24 0 0
BITMAP
00000000BD0000
00000002FF0000
00000003FF0000
00000007FF0000
0000000BFF0000
0000000FFE0000
0000001FFE0000
0000002FFE0000
0000003FFE0000
0000007FFE0000
000000BEFE0000
000000FDFE0000
000001FDFE0000
000002F8FE0000
000007F4FE0000
00000BF0FE0000
00001FE0FF0000
00002FD0FF0000
7C007F80BF400E
BE01FF007F802E
BF47FD003FD1FD
3FFFF8002FFFF4
1FFFE0000BFFD0
06FE400002FE00
ENDCHAR
STARTCHAR uni041C
ENCODING 1052
SWIDTH 1133 0
DWIDTH 32 0
BBX 36 24 0 0
BITMAP
0000002F4000BE0000
000000BFC001FF4000
000000FFC002FF4000
000001FFC007FF4000
000001FFC00BFF0000
000002FFC00FFF0000
000002FFC02FFF0000
000003FFC03FBF0000
000007FFC07FBE0000
000007EFC0BEBE0000
00000BEFC0FDFE0000
00000FDFC1FCFE0000
00000FCFD2F8FE0000
00001FCFD3F0FE0000
00002F8FD7E0FE0000
00003F4BDBD0FE0000
00007F0BEFC0FE0000
0000BF0BFF80FF0000
7C00FD07FF40BF001D
BE02FC07FF00BF407D
BF47F803FE007F81FC
7FFFE002FD003FFFF0
2FFFC002FC001FFF80
06FE0000F80006F900
ENDCHAR
STARTCHAR uni041D
ENCODING 1053
SWIDTH 873 0
DWIDTH 24 0
BBX 29 25 -1 0
BITMAP
000000000006F400
001BE400002FFC00
01FFFC00007FFD00
07FFFE0000FE3E00
1FD1FE0002FC2E00
3F00FF0003F42E00
7D00FF0007F03D00
7400FF000BE07C00
0000FF000FD0B800
0000FE001FD1F400
0001FE002FCBE000
0001FD002FFF8000
0001FE557FFD0000
00BFFFFFFFE00000
01FFFFFFFF800000
00FFFE957F800000
0007F8007F400000
000BF4007F800000
000BF0007F800000
000FF0003F8002C0
001FE0003FC00BC0
002FD0002FE46F80
002FC0000FFFFE00
003F800007FFF800
001F400000BF9000
ENDCHAR
STARTCHAR uni041E
ENCODING 1054
SWIDTH 816 0
DWIDTH 23 0
BBX 22 24 1 0
BITMAP
00006BFA0000
0006FFFFE000
001FFFFFF800
007FE41BFE00
01FF4001FF40
03FD0000BF80
07F800007FC0
0FF000003FC0
1FE000003FD0
2FE000002FD0
3FD000002FD0
3FC000003FD0
3FC000003FC0
7FC000003FC0
7FC000007F80
3FC00000BF40
3FC00000FF00
2FD00002FE00
2FF00007FC00
0FF8001FF400
07FE41BFE000
02FFFFFF8000
007FFFF90000
0006FE900000
ENDCHAR
STARTCHAR uni041F
ENCODING 1055
SWIDTH 892 0
DWIDTH 25 0
BBX 28 24 1 0
BITMAP
0005ABFFFFAA50
01BFFFFFFFFFFD
0BFFFFFFFFFFFE
3FE9FF0007F9A8
BF40FF0007F800
FD01FE000BF400
FD01FE000BF400
FE02FD000FF000
BF02FD000FF000
3D03FC001FE000
0003FC002FD000
0007F8002FD000
0007F8003FC000
000BF4003FC000
000BF4007F8000
000FF0007F4000
000FF000BF4000
001FE000BF0000
001FE000BF001D
002FE000BF403E
002FD000BF81FD
002FD0007FFFF4
002FD0001FFFD0
001F800006FA00
ENDCHAR
STARTCHAR uni0420
ENCODING 1056
SWIDTH 805 0
DWIDTH 23 0
BBX 22 26 1 -2
BITMAP
00001AFF9000
0001FFFFFD00
000BFFFFFF40
002FE405FFC0
00BF40007FE0
02FD00001FF0
07F41B801FF0
0BE02FC00FF0
1FC03FC01FF0
2F803F801FE0
3F407F803FD0
3F00BF40BF80
7F00BF46FF00
7E1AFFBFFC00
BE2FFFFFE000
BD1BFFF90000
BD01FE000000
BD02FD000000
BD02FC000000
BE03FC000000
7F03F8000000
3F47F8000000
2F8BF4000000
0FFFF0000000
07FFE0000000
00BF40000000
ENDCHAR
STARTCHAR uni0421
ENCODING 1057
SWIDTH 686 0
DWIDTH 19 0
BBX 22 24 1 0
BITMAP
00006BF90000
0006FFFF8000
001FFFFFE000
007FE41FF400
01FF4007F800
03FD0003F800
0BF80007F800
0FF00007F400
1FE00007F000
2FD000014000
3FD000000000
3FC000000000
3FC000000000
7FC000000000
7FC000000000
3FC000000000
3FD000000000
2FE000000000
1FF400000000
0BFD000006E0
03FF9405BFE0
00FFFFFFFFD0
002FFFFFFE00
0001BFFA5000
ENDCHAR
STARTCHAR uni0422
ENCODING 1058
SWIDTH 697 0
DWIDTH 20 0
BBX 25 24 1 0
BITMAP
0006AFFFFFF900
01FFFFFFFFFF40
1FFFFFFFFFFF00
3FE50BF4001400
BF000BF4000000
FD000FF0000000
FD001FF0000000
FE001FE0000000
BF002FD0000000
3D002FD0000000
00003FC0000000
00003FC0000000
00007F80000000
00007F80000000
0000BF40000000
0000BF40000000
0000FF00000000
0000FF00000000
0001FF00000000
0001FE00000000
0001FE00000000
0002FE00000000
0002FD00000000
0000B800000000
ENDCHAR
STARTCHAR uni0423
ENCODING 1059
SWIDTH 824 0
DWIDTH 23 0
BBX 26 30 1 -6
BITMAP
01BE400002E000
1FFFD0000BF400
7FFFE0000BF400
FD1FF0000FF000
F40FF0001FF000
001FE0002FE000
001FE0003FE000
002FD0007FD000
003FC000BFD000
007F8001FFC000
007F8007FFC000
007F801FBF8000
007FD0BF7F8000
003FFFFD7F4000
001FFFF47F4040
0002FE407FAFE0
00000000BFFFE0
0000000BFFFF90
000001BFFF9400
00001BFFFD0000
00007FE5FD0000
0002FE01FC0000
0007F402F80000
000FE003F40000
001FC00BF00000
001FC01FE00000
001FE07FC00000
000FFFFF400000
0007FFFD000000
0001BF90000000
ENDCHAR
STARTCHAR uni0424
ENCODING 1060
SWIDTH 977 0
DWIDTH 27 0
BBX 26 34 1 -7
BITMAP
00500000000000
00FE4000000000
01FFFFFFE40000
00BFFFFFF80000
0016BFFFF40000
0000002F800000
0000003F400000
000AF97F42F900
007FFFBF1FFF80
01FFFFFF7FFFD0
07FD0BFEFD2FE0
0BF401FFF00FE0
1FE000FFC00FF0
2FD001FF400FF0
2FC001FE001FE0
3FC001FC001FE0
7F8002F8001FE0
7F8007F8002FD0
7F800BF8003FC0
7F802FF4007F80
7F80BFF800FF40
3FC2FFFE46FE00
2FFFEBFFFFF800
1FFF8BFFFFE000
06F90BE2FE4000
00000FE0000000
00001FD0000000
02401FC0000000
0BD02F80000000
0BE07F40000000
0BF4BE00000000
03FFFC00000000
01FFF400000000
006F9000000000
ENDCHAR
STARTCHAR uni0425
ENCODING 1061
SWIDTH 712 0
DWIDTH 20 0
BBX 25 24 -1 0
BITMAP
006FE00002F400
02FFFD000BF400
0BFFFE002FF000
2F91FF40BFC000
3E00BF81FF4000
14003FC7FD0000
00002FDFF40000
00001FFFE00000
00000FFF800000
00000FFE000000
00000BFC000000
00000FF8000000
00003FFC000000
0000BFFD000000
0002FFFD000000
000BFDFE000000
001FF0FF000000
007FD0BF400000
01FF407F800740
03FE003FC01F40
0FF8002FE07F00
2FF0001FFFFD00
7FD00007FFF400
3E400001BF8000
ENDCHAR
STARTCHAR uni0426
ENCODING 1062
SWIDTH 890 0
DWIDTH 25 0
BBX 29 33 0 -9
BITMAP
006FD00000B80000
02FFF40001FD0000
0FFFFC0002FD0000
3F83FC0002FD0000
BD03FC0003FD0000
F803FC0003FC0000
A003FC0007FC0000
0007F80007F80000
000BF8000BF80000
000BF4000FF40000
000FF4000FF40000
000FF0001FF00000
001FE0002FF00000
002FE0003FE00000
002FD0007FE00000
003FC000BFE00000
007FC001FFD00000
007F8003EFD00000
007F800BAFD00000
007F801F2FD00100
007FD0BD1FFF1F40
003FFFF807FFFF40
001FFFE0007FF900
0006FE4007FFD000
000000002FFE0000
00000001FFFE0000
00000007FDBD0000
0000000FF0FC0000
0000001FD1F80000
0000001FD7F40000
0000001FFFF00000
0000000FFFD00000
00000002FE000000
ENDCHAR
STARTCHAR uni0427
ENCODING 1063
SWIDTH 773 0
DWIDTH 22 0
BBX 18 24 3 0
BITMAP
0B800007D0
2FD0000FE0
2FD0001FE0
2FD0001FE0
2FD0001FD0
3FD0002FD0
3FC0002FD0
7FC0003FC0
7F80007FC0
BF4000BF80
BF4001FF80
FF4002FF80
BF400BFF40
BFD06FBF40
7FFFFE7F40
1FFFF87F00
06FF90BF00
000000BE00
000000FE00
000001FE00
000001FD00
000001FD00
000001FD00
000000F800
ENDCHAR
STARTCHAR uni0428
ENCODING 1064
SWIDTH 1272 0
DWIDTH 36 0
BBX 40 24 0 0
BITMAP
006FD00001F40007D000
02FFF40003F8000BF000
0FFFFC0003F8000FF000
3F83FC0007F8000FF000
BD03FC0007F8001FF000
F803FC000BF4001FE000
A003FC000BF4002FE000
0007F8000FF0002FD000
000BF8001FE0003FD000
000BF4001FD0003FC000
000FF4002FD0007FC000
000FF0003FC000BF8000
001FE0007F8000FF8000
002FE000BF8001FF8000
002FD000FF4002FF4000
003FC001FF4003FF4000
007FC002FF000BFF0000
007F8007FF000FBF0000
007F800FBF002DBF001C
007F802E7F00BCFF007D
007FD1BD7F42F4FF82FC
003FFFF43FFFD0BFFFF0
001FFFD02FFF403FFF80
0006FE000BF9000BF900
ENDCHAR
STARTCHAR uni0429
ENCODING 1065
SWIDTH 1272 0
DWIDTH 36 0
BBX 39 33 0 -9
BITMAP
006FD00001F40007D000
02FFF40003F8000BF000
0FFFFC0003F8000FF000
3F83FC0007F8000FF000
BD03FC0007F8001FF000
F803FC000BF4001FE000
A003FC000BF4002FE000
0007F8000FF0002FD000
000BF8001FE0003FD000
000BF4001FD0003FC000
000FF4002FD0007FC000
000FF0003FC000BF8000
001FE0007F8000FF8000
002FE000BF8001FF4000
002FD000FF4002FF4000
003FC001FF4003FF4000
007FC002FF000BFF0000
007F8007FF000FBF0000
007F800FBF002DFF0000
007F802E7F00BCFF0014
007FD1BC7F42F4BFF8BC
003FFFF47FFFD02FFFFC
001FFFD02FFF4002FFE0
0006FE000BF9001FFE40
00000000000001BFF800
00000000000007FFF400
0000000000001FE7F000
0000000000007F87E000
000000000000BF0BE000
000000000000BF1FC000
000000000000BFFF8000
0000000000007FFE0000
0000000000001BE40000
ENDCHAR
STARTCHAR uni042A
ENCODING 1066
SWIDTH 863 0
DWIDTH 24 0
BBX 21 23 3 0
BITMAP
0005AE000000
BFFFFF400000
FFFFFF400000
6FFFFD000000
0007F4000000
000BF0000000
001FE0000000
002FD0000000
003FDAFF9000
007FFFFFFC00
06FFFFFFFF00
0FFF9002FF40
1FFF0000BF80
0AFE00007FC0
00FE00007FC0
00FE00007F80
00FE0000BF40
00BF0000FF00
00BF4002FE00
007FD01FF800
002FFFFFE000
000BFFFF8000
0001BFE40000
ENDCHAR
STARTCHAR uni042B
ENCODING 1067
SWIDTH 1078 0
DWIDTH 30 0
BBX 29 24 1 0
BITMAP
002E000000002E00
00BF40000000BF40
00BF40000000BF40
00FF00000000FF00
01FE00000000FF00
01FE00000000FF00
02FD00000001FE00
02FC00000001FE00
03F800000002FD00
07F9AFF90002FD00
07FFFFFFD003FC00
6FFFFFFFF003FC00
FFF9406FF807F800
FFF0000BF807F800
AFF00007FC0BF400
0FE00007FC0BF400
0FE00007F80FF000
0FF0000BF80FF000
0BF0000FF01FE000
0BF4002FE01FE000
07FD01FFC01FE000
02FFFFFF002FD000
00BFFFF8002FD000
001BFE40001F8000
ENDCHAR
STARTCHAR uni042C
ENCODING 1068
SWIDTH 721 0
DWIDTH 20 0
BBX 19 24 1 0
BITMAP
002E000000
00BF400000
00BF400000
00FF000000
01FE000000
01FE000000
02FD000000
02FC000000
03F8000000
07F9AFF900
07FFFFFFD0
6FFFFFFFF0
FFF9406FF8
FFF0000BF8
AFF00007FC
0FE00007FC
0FE00007F8
0FF0000BF8
0BF0000FF0
0BF4002FE0
07FD01FFC0
02FFFFFF00
00BFFFF800
001BFE4000
ENDCHAR
STARTCHAR uni042D
ENCODING 1069
SWIDTH 755 0
DWIDTH 21 0
BBX 20 24 1 0
BITMAP
0006FFA400
007FFFFE00
02FFFFFFC0
0BF901BFE0
0FD0001FF4
0F40000BFC
05000007FC
00000003FD
00000002FE
00000002FE
00000002FE
002FFFFFFE
007FFFFFFD
002FFFFFFD
00000003FC
00000003FC
2E00000BF4
BF00000FF0
BF00002FE0
BF0000BFC0
7F9007FF00
3FFFFFFC00
0BFFFFE000
01BFF90000
ENDCHAR
STARTCHAR uni042E
ENCODING 1070
SWIDTH 1246 0
DWIDTH 35 0
BBX 36 24 -1 0
BITMAP
002BE40000000BE400
01FFFC00006D0FFE00
07FFFE0002FF4FFF80
1FD1FE000BFF41BFE0
3F40FF001FDF401FF4
7D00FF002F6F400BF8
7800FF007F7F0007FC
1000FF00BEBD0003FC
0000FE00FFFC0003FD
0001FE01FFF40002FD
0001FD02FFD00002FD
0002FE6FFE000003FD
00BFFFFFFC000003FD
01FFFFFFFC000003FC
00BFFE43FC000007F8
0007F803FC00000BF4
000BF403FC00000FF0
000BF002FD00001FE0
000FF002FE00007FC0
001FE000FF4001FF40
002FD000BFE01BFE00
002FC0002FFFFFF400
003F80000BFFFF9000
001F400000AFE90000
ENDCHAR
STARTCHAR uni042F
ENCODING 1071
SWIDTH 850 0
DWIDTH 24 0
BBX 28 24 0 0
BITMAP
00001BFE96E000
0000BFFFFFF000
0002FFFFFFF400
000BFD005FF000
000FF0000FF000
001FD0001FF000
002FD0001FE000
002FC0002FE000
002FC0007FD000
002FD000BFD000
001FE000FFC000
000FF901FFC000
0007FFFFFF8000
0001FFFFFF8000
00001BFFFF4000
0000002FBF4000
000000BF7F4000
000002FD7F0000
78000BF47F001D
BD002FE07F407D
BF41FF807F81FC
7FFFFE003FFFF4
2FFFF4002FFFD0
06FE400006F900
ENDCHAR
STARTCHAR uni0430
ENCODING 1072
SWIDTH 470 0
DWIDTH 13 0
BBX 16 13 1 0
BITMAP
006F4000
02FFE800
0BFFFC00
1FF5FC00
3FC2FC00
7F42F800
BE03F400
FE07F40E
FE0BF43E
FE1FF5FD
BFFFFFF8
7FF8FFD0
1BE06E40
ENDCHAR
STARTCHAR uni0431
ENCODING 1073
SWIDTH 473 0
DWIDTH 13 0
BBX 16 26 1 0
BITMAP
00000500
0001BF00
006FFF00
02FFFE00
0BFE9000
0BE00000
0BE00000
07F40000
02FD0000
00FF0000
003FC000
001FE000
0007F400
01BFF800
0BFFFC00
1FFFFD00
3FD7FD00
7F47FD15
BF03FFFF
BE01FFFF
FE02FFA4
FE03F800
BF0BF400
7FFFE000
2FFF8000
06F90000
ENDCHAR
STARTCHAR uni0432
ENCODING 1074
SWIDTH 473 0
DWIDTH 13 0
BBX 16 26 1 0
BITMAP
000BE000
002FF400
00BFF800
01FCFC00
02F4BC00
07F0BC00
0BE0F800
0FD1F400
1FD2F000
1FC3E000
2F87C000
2F8F8000
3F9E0000
3F7E8000
7FBFF400
7FFFF800
7FD7FD00
7F87FE15
7F43FFFF
7F01FFFF
7F00BFE8
3F40FD00
2FD2FC00
1FFFF400
0BFFD000
01BE4000
ENDCHAR
STARTCHAR uni0433
ENCODING 1075
SWIDTH 380 0
DWIDTH 11 0
BBX 14 13 1 0
BITMAP
0AFE4000
3FFFC000
7FFFD000
291FD000
002FC000
01BF4000
0BF80000
7F8002C0
BE000BD0
FE01BF80
FFFFFE00
7FFFF800
1BFE4000
ENDCHAR
STARTCHAR uni0434
ENCODING 1076
SWIDTH 479 0
DWIDTH 13 0
BBX 17 26 0 -13
BITMAP
001BD00000
00BFFA0000
02FFFF0000
07FD7F0000
0FF0BE0000
1FD0BE0000
2F80FD0000
3F81FD0B40
3F82FC7F40
3F87FEFE00
2FFFFFF800
1FFFFFD000
06F6FE0000
000BF40000
003FF00000
01FFF00000
03FBE00000
0FDBD00000
2F4FC00000
7E1F800000
BC2F400000
F83F000000
FCBE000000
FFFC000000
BFF4000000
2F90000000
ENDCHAR
STARTCHAR uni0435
ENCODING 1077
SWIDTH 393 0
DWIDTH 11 0
BBX 14 13 1 0
BITMAP
01BE4000
0BFFD000
2FFFE000
7F87E000
BF07E000
FD0BD000
FE7F8040
FFFD01E0
FF900BE0
BF417FD0
7FFFFF40
1FFFF800
02FF9000
ENDCHAR
STARTCHAR uni0436
ENCODING 1078
SWIDTH 717 0
DWIDTH 20 0
BBX 24 13 0 0
BITMAP
01B90BC1BE00
07FF5FC7FF80
0BFF9F9FFFC0
0BDBEF6F8BC0
0147FF7F0FC0
0007FFBE0A40
0507FFFD0004
2F0BEFFD001E
7F0FEFFE007E
7F2F6FBF41FD
7FFE2F5FFFF4
3FFC2F0BFFD0
1BE01E01BE00
ENDCHAR
STARTCHAR uni0437
ENCODING 1079
SWIDTH 435 0
DWIDTH 12 0
BBX 17 26 -1 -13
BITMAP
002FF40000
01FFFE0000
03FFFF0000
02E43F0000
00002F0000
00003E0000
0001FD0000
001BF40600
02FF902F40
07F901FF00
07F90BF900
02FFBFD000
002FFE0000
000FF40000
007FF00000
01FFF00000
07F7F00000
1FC7E00000
3F0BE00000
7D0FD00000
BC1FC00000
F83F800000
F8BF000000
FFFD000000
BFF4000000
2F90000000
ENDCHAR
STARTCHAR uni0438
ENCODING 1080
SWIDTH 462 0
DWIDTH 13 0
BBX 16 13 1 0
BITMAP
0BC07D00
1FC0FD00
2F81FC00
3F42F800
7F43F800
7F07F400
BF0BF404
BE1FF01D
BE3FF07D
BFFBF1FC
7FF7FFF4
3FE3FFD0
1F81FA00
ENDCHAR
STARTCHAR uni0439
ENCODING 1081
SWIDTH 462 0
DWIDTH 13 0
BBX 16 22 1 0
BITMAP
00000100
01400B40
0FC01F40
0FD07F00
0BFFFD00
07FFF400
00BF8000
00000000
00000000
0BC07D00
1FC0FD00
2F81FC00
3F42F800
7F43F800
7F07F400
BF0BF404
BE1FF01D
BE3FF07D
BFFBF1FC
7FF7FFF4
3FE3FFD0
1F81FA00
ENDCHAR
STARTCHAR uni043A
ENCODING 1082
SWIDTH 465 0
DWIDTH 13 0
BBX 16 13 1 0
BITMAP
0B81BE00
2F8BFF80
2F5FFFC0
3F7F8BC0
7F7E0FC0
7FBD0B40
BFFD0000
BFFD001E
BFFE007E
BFFF41FD
7F6FFFF4
7F0BFFD0
2E01BE00
ENDCHAR
STARTCHAR uni043B
ENCODING 1083
SWIDTH 549 0
DWIDTH 15 0
BBX 19 13 0 0
BITMAP
00002F4000
0000BF8000
0000FFC000
0002FF8000
0003FF8000
0007FF8000
190FEF8000
7D1F9F8078
FD3F5F80F8
FDBE1FC7F4
BFFD1FFFD0
7FF40FFF40
2F9006F800
ENDCHAR
STARTCHAR uni043C
ENCODING 1084
SWIDTH 734 0
DWIDTH 21 0
BBX 24 13 0 0
BITMAP
0000BD01F400
0001FE07FC00
0002FE0FFC00
0003FE2FFC00
000BFE3FFC00
000FEE7DF800
191FAEBDF800
7E2F6FF5F80B
FD3F2FF1F81F
FD7E2FE1FC7E
BFFC1FD0FFF8
7FF41FC0BFE0
2F900B406E40
ENDCHAR
STARTCHAR uni043D
ENCODING 1085
SWIDTH 475 0
DWIDTH 13 0
BBX 16 13 1 0
BITMAP
0B802E00
2F80BE00
2F80BD00
3F40FD00
7F01FC00
7FFFF800
BFFFF800
BFFFF40A
BE03F42F
BE03F4BD
7E03FFF8
7E02FFD0
2D00BE40
ENDCHAR
STARTCHAR uni043E
ENCODING 1086
SWIDTH 451 0
DWIDTH 13 0
BBX 16 13 1 0
BITMAP
01BE4000
0BFFE000
2FFFF400
7F8FF800
BF0FFC18
FE0BFFFD
FD03FFFD
FD01FFE4
FE01F800
BF47F400
7FFFE000
1FFF8000
06F90000
ENDCHAR
STARTCHAR uni043F
ENCODING 1087
SWIDTH 496 0
DWIDTH 14 0
BBX 17 13 1 0
BITMAP
0B80BD0000
2F83FF0000
2F4FFF0000
3F6FFE0000
7F7DFE0000
7FB8FD0000
BFF0FC0100
BFD1FC0740
BFC2F81F40
BF82FC7F00
7F42FFFD00
7F01FFF400
2E007E4000
ENDCHAR
STARTCHAR uni0440
ENCODING 1088
SWIDTH 481 0
DWIDTH 13 0
BBX 21 26 -4 -13
BITMAP
000BC2F80000
001FDFFE0000
001FFFFF0000
001FF87F4000
001FE03F4000
001FD03F4000
001FD07F0000
001FD0BF02C0
003FD1FD0BC0
007FD7FC6F80
00FFEFFFFE00
01FFFFFFF800
03EFF96F9000
07DFC0000000
0B9FC0000000
0F5FC0000000
1F2F80000000
2E2F80000000
3D2F40000000
3D3F00000000
7D3F00000000
7D7E00000000
7DBD00000000
3FFC00000000
2FF400000000
0B9000000000
ENDCHAR
STARTCHAR uni0441
ENCODING 1089
SWIDTH 368 0
DWIDTH 10 0
BBX 13 13 1 0
BITMAP
01BE0000
0BFFC000
2FFFD000
7F8BD000
BF0BC000
FE0B8000
FD000000
FE000380
FE001FC0
BF81BF40
7FFFFE00
1FFFF400
06FE4000
ENDCHAR
STARTCHAR uni0442
ENCODING 1090
SWIDTH 744 0
DWIDTH 21 0
BBX 24 13 1 0
BITMAP
0B80BD02F400
2F87FE1FF800
2F4FFE3FF800
3F6FFDBFF800
7F7DFDF7F400
7FB4FED3F400
BFE1FFC7F004
BFD1FF47F01D
BFC1FF0BE07D
BF82FE0BF1FC
7F42FD0BFFF4
7F01FC07FFC0
2E00B402F900
ENDCHAR
STARTCHAR uni0443
ENCODING 1091
SWIDTH 479 0
DWIDTH 13 0
BBX 17 26 0 -13
BITMAP
02F01F4000
07F03F4000
0BE07F0000
0FD0BF0000
1FD0FE0000
1FC1FE0000
2FC2FD0100
2F87FD0B40
2F8FFC7F40
2FFFFEFE00
1FFEFFF400
0FF9FF9000
07E2FE0000
000BF40000
002FF00000
00FFF00000
03FBE00000
0BDBD00000
2F4FC00000
7D1F800000
BC2F400000
F83F000000
F8BE000000
FFFC000000
BFF4000000
2F90000000
ENDCHAR
STARTCHAR uni0444
ENCODING 1092
SWIDTH 721 0
DWIDTH 20 0
BBX 23 31 1 -9
BITMAP
00000B800000
00001FC00000
00002F800000
00002F800000
00003F400000
00007F000000
00007F000000
0000BE000000
0000BD000000
006FFD6E4000
02FFFDFFD000
0BFFFFFFE000
1FE5FF4BF000
3FC2FE07F000
7F42FD0BF000
BF03FC0BF000
FE07FC0FE028
FE07F82FC0B8
FE0FF4BF87F4
BFFFFFFFFFE0
7FF7FFFFFF40
1BD3FF97F800
0003F0000000
0007F0000000
0007F0000000
0007F0000000
0007F0000000
0007F0000000
0007F0000000
0007F0000000
0002D0000000
ENDCHAR
STARTCHAR uni0445
ENCODING 1093
SWIDTH 529 0
DWIDTH 15 0
BBX 19 13 0 0
BITMAP
01FD06F400
07FF9FFC00
0BFFFFFC00
0BDBFDBC00
0787F87400
0007F40000
0007F40000
2F0BF40074
7F0FF401F4
7F2FFD0BF0
7FFFFFFFD0
3FFDFFFE00
1BE02FE400
ENDCHAR
STARTCHAR uni0446
ENCODING 1094
SWIDTH 501 0
DWIDTH 14 0
BBX 16 22 1 -9
BITMAP
0BC07D00
1FC0FD00
2F81FC00
3F42F800
7F43F800
7F07F400
BF0BF000
BE1FF000
BE3FE00A
BFFBF87F
7FF7FFFD
3FE2FFF4
1F81FF80
000BFD00
002FFC00
00FDF800
02F5F400
07D2F000
0BD7E000
07FFC000
07FF4000
01B90000
ENDCHAR
STARTCHAR uni0447
ENCODING 1095
SWIDTH 555 0
DWIDTH 16 0
BBX 20 15 -1 0
BITMAP
0002E00000
000BF80000
000FFFFF80
001F7FFFC0
002F1FFF40
003E02FD00
00BD0BF400
00FC3F8000
02F4BF0001
0BE1FD000F
1F81FC007F
3F01FD06FE
7C01FFFFF8
1000BFFFD0
00001BF900
ENDCHAR
STARTCHAR uni0448
ENCODING 1096
SWIDTH 693 0
DWIDTH 19 0
BBX 22 13 1 0
BITMAP
0BC07C02E000
1FC0FC07E000
2F81FC0BD000
3F42F80FD000
7F43F81FC000
7F07F42FC000
BF0BF47F8010
BE1FF4BF40B0
BE2FF6FF42F0
BFFFFFFF4BE0
7FF6FFAFFF80
3FE2FF1FFE00
1F80B90BE400
ENDCHAR
STARTCHAR uni0449
ENCODING 1097
SWIDTH 732 0
DWIDTH 21 0
BBX 23 22 1 -9
BITMAP
0BC07C02E000
1FC0FC07E000
2F81FC0BD000
3F42F80FD000
7F43F81FC000
7F07F42F8000
BF0BF47F8000
BE1FF4BF4000
BE2FF6FF4070
BFFFFFFF92F4
7FF6FFAFFFF0
3FE2FF0FFF80
1F80B90BFD00
0000007FE000
000001FFD000
000007EBC000
00001F8FC000
00002F1F8000
00003E2F0000
00003FFE0000
00002FF80000
00000B900000
ENDCHAR
STARTCHAR uni044A
ENCODING 1098
SWIDTH 542 0
DWIDTH 15 0
BBX 18 14 1 0
BITMAP
1400000000
BFFF000000
7FFF000000
07F4000000
0BE6F80000
1FFFFE0000
2FFFFF4000
2FF47F4050
2FC03F81E0
2FC03F47E0
2FD0BF5FD0
1FFFFFFF40
07FFFFFD00
01BFABE000
ENDCHAR
STARTCHAR uni044B
ENCODING 1099
SWIDTH 702 0
DWIDTH 20 0
BBX 23 13 1 0
BITMAP
0BC00007D000
1FC0000BE000
2F80001FD000
3F8BE03FD000
7FBFF8BFC000
7FFFFDFFC000
7FD0FFFF8010
BF40BFFF80B4
7F00BFBF42F0
7F81FE2F8BE0
3FFFF82FFF80
1FFFE01FFE00
02FE4007E400
ENDCHAR
STARTCHAR uni044C
ENCODING 1100
SWIDTH 517 0
DWIDTH 14 0
BBX 17 13 1 0
BITMAP
0BC0000000
1FC0000000
2F80000000
3F8BE00000
7FBFFC0000
7FFFFE0000
7FD0FE0040
BF40BF03C0
7F00BE0BC0
7F81FD2F80
3FFFFFFE00
1FFFFFF800
02FE6F9000
ENDCHAR
STARTCHAR uni044D
ENCODING 1101
SWIDTH 466 0
DWIDTH 13 0
BBX 16 13 1 0
BITMAP
06FE8000
2FFFF400
2FFFFC00
1402FD00
0000FE19
00BFFFFE
00FFFFFE
B8BFFFF8
FC00FD00
FD06FC00
BFFFF800
7FFFE000
0AFE4000
ENDCHAR
STARTCHAR uni044E
ENCODING 1102
SWIDTH 676 0
DWIDTH 19 0
BBX 22 13 1 0
BITMAP
0B801BF80000
2F807FFE0000
2F81FFFF8000
3F43F8BFC000
7F07F4BFD150
7FFFF07FFFE0
BFFFE02FFFE0
BFFFE00FFE40
BE0BF01FC000
BE07F82F8000
7E03FFFF0000
7E01FFFD0000
2D002FE00000
ENDCHAR
STARTCHAR uni044F
ENCODING 1103
SWIDTH 543 0
DWIDTH 15 0
BBX 19 13 0 0
BITMAP
0007FEB400
002FFFF400
007F57F400
00BD03F000
00BD07E000
007E0FE000
193FFFD000
BD1BFFD038
FD01FBC0B8
FE07EBD2F4
BFFFC7FFD0
7FFE07FF40
1BE402F800
ENDCHAR
STARTCHAR uni0450
ENCODING 1104
SWIDTH 393 0
DWIDTH 11 0
BBX 14 24 1 0
BITMAP
05000000
1F800000
2FC00000
1FE00000
07F00000
02F40000
00FC0000
007D0000
001D0000
00000000
00000000
01BE4000
0BFFD000
2FFFE000
7F87E000
BF07E000
FD0BD000
FE7F8040
FFFD01E0
FF900BE0
BF417FD0
7FFFFF40
1FFFF800
02FF9000
ENDCHAR
STARTCHAR uni0451
ENCODING 1105
SWIDTH 393 0
DWIDTH 11 0
BBX 14 19 1 0
BITMAP
07D0BD00
0FF1FE00
0FE1FE00
0BD0B800
00000000
00000000
01BE4000
0BFFD000
2FFFE000
7F87E000
BF07E000
FD0BD000
FE7F8040
FFFD01E0
FF900BE0
BF417FD0
7FFFFF40
1FFFF800
02FF9000
ENDCHAR
STARTCHAR uni0452
ENCODING 1106
SWIDTH 514 0
DWIDTH 14 0
BBX 17 36 1 -13
BITMAP
00BC000000
01FD000000
02FC000000
03F8000000
7FFFFD0000
7FFFFD0000
1FFFF80000
0FE0000000
1FD0000000
1FD0000000
2FC07E0000
2F82FF0000
3F8BFF0000
3F5FFF0000
3F7EBE0000
7FB8BE0000
7FF0FD0000
7FE0FD0B40
7FD1FC7F40
7FC1FEFE00
7F81FFF400
3F42FF8000
2E02FE0000
000BF40000
002FF00000
00BFF00000
02FBE00000
0BDBD00000
2F4FC00000
3E1F800000
BC2F400000
F83F000000
F8BE000000
FFFC000000
BFF4000000
2F90000000
ENDCHAR
STARTCHAR uni0453
ENCODING 1107
SWIDTH 380 0
DWIDTH 11 0
BBX 14 24 1 0
BITMAP
00014000
0003F000
000BF000
000FE000
001FC000
003F4000
007E0000
00B80000
00B00000
00000000
00000000
0AFE4000
3FFFC000
7FFFD000
291FD000
002FC000
01BF4000
0BF80000
7F8002C0
BE000BD0
FE01BF80
FFFFFE00
7FFFF800
1BFE4000
ENDCHAR
STARTCHAR uni0454
ENCODING 1108
SWIDTH 379 0
DWIDTH 11 0
BBX 13 13 1 0
BITMAP
01BF8000
0BFFE000
2FFFF000
7F82F000
BF004000
FFFD0000
FFFE0000
FFFD02C0
FE000BC0
BF407F80
7FFFFE00
1FFFF800
02FE8000
ENDCHAR
STARTCHAR uni0455
ENCODING 1109
SWIDTH 427 0
DWIDTH 12 0
BBX 17 14 -1 -1
BITMAP
0007E00000
000FD00000
001FC00000
003FC00000
007FD00000
00FFF00000
01FFF80000
07E3FD0340
0FD1FE0F80
2F40FF7F40
7E2FFFFE00
247FFFF800
007FFF9000
001FD00000
ENDCHAR
STARTCHAR uni0456
ENCODING 1110
SWIDTH 246 0
DWIDTH 7 0
BBX 10 19 1 0
BITMAP
07E000
1FF800
1FF400
0BE000
000000
000000
0B8000
2FC000
2F8000
3F8000
7F4000
7F0000
BF0040
BE01D0
BE07D0
BF1FC0
7FFF40
3FFD00
1BE000
ENDCHAR
STARTCHAR uni0457
ENCODING 1111
SWIDTH 246 0
DWIDTH 7 0
BBX 11 19 0 0
BITMAP
7E07D0
FF0FF0
FF0FF0
7D0BD0
000000
000000
02E000
0BF000
0BE000
0FE000
1FD000
1FC000
2FC010
2F8074
2F81F4
2FC7F0
1FFFD0
0FFF40
06F800
ENDCHAR
STARTCHAR uni0458
ENCODING 1112
SWIDTH 254 0
DWIDTH 7 0
BBX 17 32 -7 -13
BITMAP
00001BD000
00003FF000
00003FE000
00001F9000
0000000000
0000000000
00001F8000
00002F8000
00002F8000
00003F8000
00003F4000
00003F4000
00007F0000
00007F02C0
00007F1FC0
0000BEBF80
0000BFFD00
0000FFE000
0000FF4000
0002FC0000
000FFC0000
007FF80000
01FAF40000
03E3F00000
0BC7F00000
1F47E00000
3E0FD00000
7D1F800000
7E3F400000
7FFE000000
3FFC000000
0BE0000000
ENDCHAR
STARTCHAR uni0459
ENCODING 1113
SWIDTH 794 0
DWIDTH 22 0
BBX 26 13 0 0
BITMAP
00002F40000000
0000BFC0000000
0000FFC0000000
0002FF86F80000
0003FFAFFE0000
0007EFFFFF4000
2D0FEFF47F8050
BD1F9FC03F81E0
FD3F5F803F43E0
FDBE1FD0BF5FD0
BFFC0FFFFFFF40
7FF407FFFFFD00
2F9001BF9BE000
ENDCHAR
STARTCHAR uni045A
ENCODING 1114
SWIDTH 751 0
DWIDTH 21 0
BBX 24 13 1 0
BITMAP
0B802E000000
2F80BE000000
2F80FD000000
3F41FD6F4000
7F01FEFFE000
7FFFFFFFF000
BFFFFF47F404
BFFFFC03F41E
BE02F807F47E
BE02FD0BF1FC
7E01FFFFFFF4
7E00BFFFFFD0
2D001BFAFE00
ENDCHAR
STARTCHAR uni045B
ENCODING 1115
SWIDTH 502 0
DWIDTH 14 0
BBX 17 23 1 0
BITMAP
00BC000000
01FD000000
02FC000000
03F8000000
6FFFF80000
7FFFFD0000
2FFFFC0000
0FE0000000
1FD0000000
1FD0000000
2FC07E0000
2F82FF0000
3F8BFF0000
3F5FFF0000
3F7EBE0000
7FB8BD0000
7FF0FD0000
7FE1FC0780
7FD1FC1F80
7FC1FC7F40
7F81FFFD00
3F40FFF400
2E007F8000
ENDCHAR
STARTCHAR uni045C
ENCODING 1116
SWIDTH 465 0
DWIDTH 13 0
BBX 16 24 1 0
BITMAP
00000400
00003F00
00007F40
0000FF00
0001FD00
0002F400
0007E000
000B8000
000B0000
00000000
00000000
0B81BE00
2F8BFF80
2F5FFFC0
3F7F8BC0
7F7E0FC0
7FBD0B40
BFFD0000
BFFD001E
BFFE007E
BFFF41FD
7F6FFFF4
7F0BFFD0
2E01BE00
ENDCHAR
STARTCHAR uni045D
ENCODING 1117
SWIDTH 462 0
DWIDTH 13 0
BBX 16 24 1 0
BITMAP
01400000
0BD00000
0BF00000
07F40000
02FC0000
00FD0000
007E0000
001F0000
000B0000
00000000
00000000
0BC07D00
1FC0FD00
2F81FC00
3F42F800
7F43F800
7F07F400
BF0BF404
BE1FF01D
BE3FF07D
BFFBF1FC
7FF7FFF4
3FE3FFD0
1F81FA00
ENDCHAR
STARTCHAR uni045E
ENCODING 1118
SWIDTH 479 0
DWIDTH 13 0
BBX 17 35 0 -13
BITMAP
0000004000
005002D000
03F007D000
03F41FC000
02FFFF4000
01FFFD0000
002FE00000
0000000000
0000000000
02F01F4000
07F03F4000
0BE07F0000
0FD0BF0000
1FD0FE0000
1FC1FE0000
2FC2FD0100
2F87FD0B40
2F8FFC7F40
2FFFFEFE00
1FFEFFF400
0FF9FF9000
07E2FE0000
000BF40000
002FF00000
00FFF00000
03FBE00000
0BDBD00000
2F4FC00000
7D1F800000
BC2F400000
F83F000000
F8BE000000
FFFC000000
BFF4000000
2F90000000
ENDCHAR
STARTCHAR uni045F
ENCODING 1119
SWIDTH 600 0
DWIDTH 17 0
BBX 16 16 1 -3
BITMAP
0B807D00
1FC0FD00
2F81FC00
3F42F800
7F43F800
7F07F400
BF0BF400
BE1FF01D
BE2FF07D
BFFFF1FC
7FF7FFF4
3FE3FFD0
1FC1BA00
1F800000
1F400000
0A000000
ENDCHAR
STARTCHAR uni0462
ENCODING 1122
SWIDTH 721 0
DWIDTH 20 0
BBX 19 24 1 0
BITMAP
002E000000
00BF400000
00BF400000
2FFFFD0000
7FFFFE0000
3FFFF80000
02FD000000
02FC000000
03FC000000
03F9AFF900
07FFFFFFD0
2FFFFFFFF0
FFF9406FF8
FFF0000BF8
AFF00007FC
0FE00007FC
0FE00007F8
0FF0000BF8
0BF0000FF0
0BF4002FE0
07FD01FFC0
02FFFFFF00
00BFFFF800
001BFE4000
ENDCHAR
STARTCHAR uni0463
ENCODING 1123
SWIDTH 517 0
DWIDTH 14 0
BBX 18 18 0 0
BITMAP
00B8000000
01FC000000
03FC000000
03F8000000
7FFFE00000
BFFFF00000
2FFF900000
0FE0000000
1FD2F80000
1FEFFF0000
2FFFFF8000
2FF43F8010
2FD02FC0F0
1FC02F82F0
1FE07F4BE0
0FFFFFFF80
07FFFFFE00
00BF9BE400
ENDCHAR
STARTCHAR uni046A
ENCODING 1130
SWIDTH 1234 0
DWIDTH 35 0
BBX 37 24 0 0
BITMAP
000BFFFFFFFFFFFFF800
002FFFFFFFFFFFFFFC00
001FFFFFFFFFFFFFF400
00001FF0000002FD0000
000007F4000007F40000
000003F800000BF00000
000002FC00001FE00000
000001FD00003FC00000
000000FE0001FF800000
000000BF401BFE000000
0000002FFFFFF4000000
0000001FFFFF40000000
000000BFFFFFD0000000
000003FF7FDFF4000000
00000FF83F87FC000000
00002FE07F82FD000000
00003FC07F41FE000000
0000BF407F40FF400000
0400FF00BF407F8002C0
3F02FD00BF003FD007C0
7F47F800FF001FF42F80
3FFFF000FF000BFFFE00
1FFFD000FE0003FFF800
06FE0000BD0000BF9000
ENDCHAR
STARTCHAR uni046B
ENCODING 1131
SWIDTH 788 0
DWIDTH 22 0
BBX 26 24 0 0
BITMAP
00000007E00000
0000001FF00000
0000002FF00000
0000003FF00000
0000007FF00000
0000007EE00000
000000BEE00000
000000FBE00000
000001F7E00000
000002F7E00000
000003F7D00000
0007E7E7D7E000
000BFFD7FFF400
000BFFC7FFE000
00007F87F90000
00003F47E00000
00007F4BD00000
0000FF4FE00000
2F02FF6FE001E0
7F07FF7FF003E0
7F1FEFFEFD1FD0
7FFF8FF8FFFF40
3FFE0FF07FFE00
1BE407D01BE400
ENDCHAR
STARTCHAR uni0472
ENCODING 1138
SWIDTH 816 0
DWIDTH 23 0
BBX 22 24 1 0
BITMAP
00006BFA0000
0006FFFFE000
001FFFFFF800
007FE40BFE00
01FF4001FF40
03FD0000BF80
07F800007FC0
0FF400003FC0
1FF000003FD0
2FE000002FD0
3FEFF9007FD0
3FFFFFFFFFD0
3FFFFFFFFFC0
7FD006BEBFC0
7FC000007F80
3FC00000BF40
3FC00000FF00
2FD00002FE00
2FF00007FC00
0FF8001FF400
07FE41BFE000
02FFFFFF8000
007FFFF90000
0006FE900000
ENDCHAR
STARTCHAR uni0473
ENCODING 1139
SWIDTH 451 0
DWIDTH 13 0
BBX 16 13 1 0
BITMAP
01BE4000
0BFFE000
2FFFF400
7F82F800
BE01FD68
FFD1FFFD
FFFFFFFD
FFFFFFE4
FE02F800
BF47F400
7FFFE000
1FFF8000
06F90000
ENDCHAR
STARTCHAR uni0474
ENCODING 1140
SWIDTH 797 0
DWIDTH 22 0
BBX 25 24 3 0
BITMAP
0B800000BFF900
2FD00001FFFF40
3FD00002FFFF80
3FC00002FD1A40
3FC00003FD0000
7FC00007FC0000
7F800007F80000
7F80000BF40000
7F80000FF00000
BF80001FE00000
BF40002FD00000
BF40003FC00000
BF40007F800000
7F8000BF400000
7F8000FF000000
7F8002FD000000
3FC003FC000000
3FD00BF4000000
2FE01FF0000000
1FF47FD0000000
0FFFFF40000000
07FFFE00000000
02FFF400000000
007F8000000000
ENDCHAR
STARTCHAR uni0475
ENCODING 1141
SWIDTH 420 0
DWIDTH 12 0
BBX 15 13 1 0
BITMAP
7D007FA0
BE00FFF4
BE01FEA0
BE02F800
BF03F400
BF0BF000
7F0FD000
7F2FC000
7F7F4000
7FFE0000
3FFC0000
2FF40000
0B900000
ENDCHAR
STARTCHAR uni048A
ENCODING 1162
SWIDTH 890 0
DWIDTH 25 0
BBX 29 38 0 -6
BITMAP
0000000001400000
000007D007C00000
00000BE00FC00000
000007F46F800000
000007FFFF000000
000002FFFD000000
0000006F90000000
0000000000000000
006FD00000B80000
02FFF40001FD0000
0FFFFC0002FD0000
3F83FC0002FD0000
BD03FC0003FD0000
F803FC0003FC0000
A003FC0007FC0000
0007F80007F80000
000BF8000BF80000
000BF4000FF40000
000FF4000FF40000
000FF0001FF00000
001FE0002FF00000
002FE0003FE00000
002FD0007FE00000
003FC000BFE00000
007FC001FFD00000
007F8003EFD00000
007F800BAFD00240
007F801F2FD00F40
007FD0BD2FE07F40
003FFFF81FFFFD00
001FFFE00BFFF400
0006FE4001BFD000
00000000007F8000
0000000000FE0000
0000000002FD0000
0000000007F40000
000000000BE00000
0000000007C00000
ENDCHAR
STARTCHAR uni048B
ENCODING 1163
SWIDTH 462 0
DWIDTH 13 0
BBX 16 26 1 -5
BITMAP
01400740
0FC01F40
0FD07F00
0BFFFD00
07FFF400
00BF8000
00000000
00000000
0BC07D00
1FC0FD00
2F81FC00
3F42F800
7F43F800
7F07F400
BF0BF404
BE1FF01D
BE3FF07D
BFFBF1FC
7FF7FFF4
3FE3FFD0
1F81FF40
0000FD00
0002F800
0007F000
000FD000
000B8000
ENDCHAR
STARTCHAR uni048C
ENCODING 1164
SWIDTH 721 0
DWIDTH 20 0
BBX 19 24 1 0
BITMAP
002E000000
00BF400000
00BF400000
2FFFFD0000
7FFFFE0000
3FFFF80000
02FD000000
02FC000000
03FC000000
03F9AFF900
07FFFFFFD0
2FFFFFFFF0
FFF9406FF8
FFF0000BF8
AFF00007FC
0FE00007FC
0FE00007F8
0FF0000BF8
0BF0000FF0
0BF4002FE0
07FD01FFC0
02FFFFFF00
00BFFFF800
001BFE4000
ENDCHAR
STARTCHAR uni048D
ENCODING 1165
SWIDTH 517 0
DWIDTH 14 0
BBX 18 18 0 0
BITMAP
00B8000000
01FC000000
03FC000000
03F8000000
7FFFE00000
BFFFF00000
2FFF900000
0FE0000000
1FD2F80000
1FEFFF0000
2FFFFF8000
2FF43F8010
2FD02FC0F0
1FC02F82F0
1FE07F4BE0
0FFFFFFF80
07FFFFFE00
00BF9BE400
ENDCHAR
STARTCHAR uni048E
ENCODING 1166
SWIDTH 805 0
DWIDTH 23 0
BBX 24 26 1 -2
BITMAP
00001AFF9000
0001FFFFFD00
000BFFFFFF40
003FE401FFC0
00BF40007FE0
02FD00002FF0
07F41B801FF0
0BE02FC00FF0
1FC03FC29FF0
2F803F87FFE0
3F407F81BFE4
3F00BF40BFFE
7E00BF46FF7E
7E1AFFBFFC00
BE2FFFFFE000
BD1BFFF90000
BD01FE000000
BD02FD000000
BD02FC000000
BE03FC000000
7F03F8000000
3F47F8000000
2F8BF4000000
0FFFF0000000
07FFD0000000
006E40000000
ENDCHAR
STARTCHAR uni048F
ENCODING 1167
SWIDTH 481 0
DWIDTH 13 0
BBX 21 26 -4 -13
BITMAP
000BC2F80000
001FDFFE0000
001FFFFF0000
001FF87F4000
001FE03F4000
001FD03F4000
001FD07F4000
001FDABF02C0
002FDFFD0BC0
007FDBFC2F80
00FFEFFFFE00
01FFFFFFF800
03EFF92F9000
07DFC0000000
0B9FC0000000
0F5FC0000000
1F2F80000000
2E2F80000000
3E2F40000000
3D3F00000000
7D3F00000000
7D7E00000000
7DBD00000000
3FFC00000000
2FF400000000
0B9000000000
ENDCHAR
STARTCHAR uni0490
ENCODING 1168
SWIDTH 645 0
DWIDTH 18 0
BBX 24 30 1 0
BITMAP
00000000002D
00000000007F
00000000007F
0000000000BE
0000000000BE
0000000000FD
001ABFFFFFFD
02FFFFFFFFFC
1FFFFFFFFEA0
7FE5FF000000
BF01FE000000
FD02FD000000
FD02FD000000
FE03FC000000
BF03FC000000
2D07F8000000
0007F8000000
000BF4000000
000BF4000000
000FF0000000
000FF0000000
001FE0000000
001FE0000000
002FD0000000
002FD0000000
003FD0000000
003FC0000000
003FC0000000
003FC0000000
002F40000000
ENDCHAR
STARTCHAR uni0491
ENCODING 1169
SWIDTH 394 0
DWIDTH 11 0
BBX 11 17 1 0
BITMAP
000074
0000BC
0000FC
0001F8
0BFFF8
2FFFF0
3FFE80
3F4000
7F0000
7F0000
BF0000
BE0000
BE0000
BE0000
7E0000
7E0000
2D0000
ENDCHAR
STARTCHAR uni0492
ENCODING 1170
SWIDTH 635 0
DWIDTH 18 0
BBX 23 24 1 0
BITMAP
001ABFFFFFFC
02FFFFFFFFFC
1FFFFFFFFFA4
3FE9FF000000
BF41FE000000
FE01FE000000
FD02FD000000
FD03FC000000
BF03FC000000
7E07F8000000
1407F8000000
01FFFFE00000
02FFFFF00000
01FFFFE00000
000FF0000000
000FF0000000
001FE0000000
001FE0000000
002FD0000000
002FD0000000
003FD0000000
003FC0000000
003FC0000000
002F40000000
ENDCHAR
STARTCHAR uni0493
ENCODING 1171
SWIDTH 380 0
DWIDTH 11 0
BBX 15 13 0 0
BITMAP
02BF8000
0FFFF000
1FFFF400
0A47F400
000BF000
647FD000
7FFE4000
1FFF40B0
2F9A42F4
3F806FE0
3FFFFF80
1FFFFE00
06FF9000
ENDCHAR
STARTCHAR uni0494
ENCODING 1172
SWIDTH 884 0
DWIDTH 25 0
BBX 27 37 1 -13
BITMAP
001ABFFFFFFC00
02FFFFFFFFFC00
1FFFFFFFFFA400
3FE5FF00000000
BF41FE00000000
FE01FE00000000
FD02FD00000000
FD03FD00000000
BE03FC00000000
BF07FC00000000
2907F800000000
000BF81AFE0000
000BF4BFFF8000
000FF7FFFFE000
000FFBD02FF000
001FFE000FF000
001FF8000FF000
002FF0000FF064
002FE0001FE2F8
003FD0001FEBF8
003FC0001FFFE0
003FC0002FFF80
003FC0002FFD00
002F40007FE000
00000002FF8000
0000000BFF8000
0000002FFF4000
000000BFFF0000
000002FDFE0000
000007F4FD0000
00000FE1FC0000
00001FC2F80000
00001F87F40000
00002F8BE00000
00001FFFC00000
00000FFF400000
000006F8000000
ENDCHAR
STARTCHAR uni0495
ENCODING 1173
SWIDTH 441 0
DWIDTH 12 0
BBX 15 21 1 -8
BITMAP
0AFE4000
3FFFC000
7FFFD000
291FD000
002FC000
01BF4000
0BF80000
3F800000
BE0000B0
FE0197F4
FFFFFFE0
7FFFFF40
1FFFF800
00BFD000
02FFC000
0F9F8000
2F1F8000
3E2F0000
7FFE0000
3FF80000
1BD00000
ENDCHAR
STARTCHAR uni0496
ENCODING 1174
SWIDTH 1234 0
DWIDTH 35 0
BBX 38 33 0 -9
BITMAP
0006F90002F4001BF800
002FFF8003F8007FFF00
00BFFFD007F800FFFF80
00B81FE007F802FD2F80
00500BF40BF407F80500
000003F80BF40BF00000
000002F80BF01FE00000
000002FC0FF03FC00000
000001FD0FE0BF800000
000000BF5FEBFE000000
0000002FFFFFF4000000
0000001FFFFF40000000
000000BFFFFFD0000000
000003FE7FDFF4000000
00000FF83F87FC000000
00002FE07F82FD000000
00003FC07F41FF000000
0000BF40BF40BF400000
1900FF00BF407FC00000
3F02FD00BF003FE001B0
7F47F800FF001FFE9BF0
3FFFF000FF000BFFFFD0
1FFFD000FE0001FFFE40
06FE0000BD00007FF400
00000000000001FFD000
0000000000001FFFD000
0000000000007F9FC000
000000000000FE1F8000
000000000002FC2F4000
000000000002F87F0000
000000000002FFFE0000
000000000001FFF80000
0000000000006F900000
ENDCHAR
STARTCHAR uni0497
ENCODING 1175
SWIDTH 803 0
DWIDTH 22 0
BBX 26 22 0 -9
BITMAP
01B90BC1BE0000
07FF5FC7FF8000
0BFF9F9FFFC000
0BDBEF6F8BC000
0147FF7F0FC000
0007FFBE0A4000
0507FFFD000000
2F0BEFFD000000
7F0FEFFE0002D0
7F2F6FBF814BD0
7FFE2F6FFFFFC0
3FFC2F0BFFFE00
1BE01E02FFF400
00000000BF8000
00000007FF4000
0000001FAF0000
0000007E3E0000
000000B87E0000
000000F8FC0000
000000FFF80000
000000BFE00000
0000002E400000
ENDCHAR
STARTCHAR uni0498
ENCODING 1176
SWIDTH 725 0
DWIDTH 20 0
BBX 19 33 1 -9
BITMAP
0001BFE400
002FFFFE00
00BFFFFF80
02FF40BFC0
03FC002FD0
07F4002FD0
07F4002FC0
03F4002FC0
01E0003F40
000000BF00
000002FD00
0002FFF900
000BFFFF80
0007E92FE0
0000000FF0
0500000BF4
3F40000FF4
7F40000FF4
7F80002FF0
7FC0007FD0
3FE406FF80
1FFFFFFE00
07FFFFF400
006FFFE000
0002FFE000
001FFBD000
007F8FD000
00FE0FC000
01FD2F8000
02FC7F4000
02FFFE0000
00FFFC0000
006FE00000
ENDCHAR
STARTCHAR uni0499
ENCODING 1177
SWIDTH 445 0
DWIDTH 12 0
BBX 15 21 1 -8
BITMAP
02FF8000
1FFFF000
3FFFF400
7E03F400
3803F000
005FD000
01FF4000
00AFE010
A007F1B4
F807FBF4
FFFFFFE0
BFFFFE40
1BFFF400
007FC000
02FFC000
0BDF8000
2F1F4000
3E2F0000
3FFE0000
2FFC0000
0BE00000
ENDCHAR
STARTCHAR uni049A
ENCODING 1178
SWIDTH 937 0
DWIDTH 26 0
BBX 30 33 0 -9
BITMAP
0006BFE90001F800
007FFFFF4003FC00
02FFFFFF8007F800
07F902FE000BF400
0BE002FC001FF000
0FD003FC002FD000
0FD003FC007FC000
0FD007F800FF4000
0BE007F802FD0000
07D00BF40BF80000
00000BF5BFD00000
0000BFFFFE400000
0000FFFFE4000000
0000BFFFF8000000
00001FE7FE000000
00001FD0FF400000
00002FD0BFC00000
18002FC03FD00000
3D003FC02FE00040
7F007F800FF402E0
3F81FF000BFFEFE0
2FFFFE0003FFFF80
0BFFF80001FFFD00
01BF9000007FE000
0000000006FFC000
000000002FFFC000
00000000BF9F8000
00000001FD2F4000
00000003F83F0000
00000003F4BE0000
00000003FFFC0000
00000002FFF40000
000000007F900000
ENDCHAR
STARTCHAR uni049B
ENCODING 1179
SWIDTH 531 0
DWIDTH 15 0
BBX 17 22 1 -9
BITMAP
0B81BE0000
2F8BFF8000
2F9FFFC000
3F7F8BC000
7F7E0FC000
7FBD0F4000
BFFD000000
BFFD000000
BFFE000240
BFFF411F80
7F7FFFBF40
7F0FFFFD00
2E01BFE000
0002FF4000
000BFE0000
003F7D0000
00FC7D0000
01F4FC0000
02F2F80000
02FFF00000
01FFD00000
007E000000
ENDCHAR
STARTCHAR uni049C
ENCODING 1180
SWIDTH 937 0
DWIDTH 26 0
BBX 30 24 0 0
BITMAP
0006BFE50001F800
007FFFFF4003FC00
01FFFFFF8007F800
07F902FE000BF400
0BE002FC000FF000
0FD003FC001FE000
0FD003FC003FC000
0FD007F8E0BF8000
0FE007F9F1FF0000
0BE007F6F7FD0000
02D00BF6FFF40000
00000BF6FFD00000
0000BFFFFE000000
0000FFFFE0000000
0000BFFFF8000000
00001FE7FE000000
00001FD7FF800000
00002FDBFFC00000
2C003FCBBFE000A0
7E007F8B9FF402E0
3F81FF474FFD0BD0
2FFFFE0007FFFF80
0BFFF80001FFFE00
01BF9000006FE400
ENDCHAR
STARTCHAR uni049D
ENCODING 1181
SWIDTH 485 0
DWIDTH 14 0
BBX 16 13 1 0
BITMAP
0B80BE40
2F82FFC0
2F87FFD0
3F4BD7E0
7F9F47D0
7FEF0780
BFFF0000
BFFF000B
BFFF402F
BFFFD0BE
7FEFFFF8
7E9BFFE0
2D01BE40
ENDCHAR
ENDFONT
